<?xml version="1.0"?>
<svg xmlns="http://www.w3.org/2000/svg" xmlns:xlink="http://www.w3.org/1999/xlink" viewBox="0 0 247.600000 208.000000" width="123.800000mm" height="104.000000mm" version="1.1">
<a xlink:href="b2d-16027.svg">
<rect x="1.000000" y="1.000000" width="246.600000" height="207.000000" rx="0" ry="0" style="stroke:none;fill:#cccccc;"/>
<rect x="0.000000" y="0.000000" width="246.600000" height="207.000000" rx="0" ry="0" style="stroke:none;fill:#ffffff;"/>
</a>
<text x="10.000000" y="7.000000" font-family="Arial" font-size="7"></text>
<rect x="68.800000" y="35.000000" width="24.000000" height="24.000000" rx="0" ry="0" style="stroke:none;fill:#cccccc;"/>
<rect x="67.800000" y="34.000000" width="24.000000" height="24.000000" rx="0" ry="0" style="stroke:none;fill:#f44800;"/>
<text x="79.800000" y="48.000000" font-family="Arial" font-size="7" text-anchor="middle" fill="#FFFFFF">1</text>
<circle cx="69.800000" cy="36.000000" r="1"/>
<line x1="58.800000" y1="25.000000" x2="58.800000" y2="67.000000"  style="stroke: black; stroke-linecap:round; stroke-width:0.25; stroke-dasharray:3,3;"/>
<line x1="58.800000" y1="67.000000" x2="100.800000" y2="67.000000"  style="stroke: black; stroke-linecap:round; stroke-width:0.25; stroke-dasharray:3,3;"/>
<line x1="100.800000" y1="67.000000" x2="100.800000" y2="25.000000"  style="stroke: black; stroke-linecap:round; stroke-width:0.25; stroke-dasharray:3,3;"/>
<line x1="58.800000" y1="25.000000" x2="63.800000" y2="25.000000"  style="stroke: black; stroke-linecap:round; stroke-width:0.25; stroke-dasharray:3,3;"/>
<line x1="73.475000" y1="25.000000" x2="100.800000" y2="25.000000"  style="stroke: black; stroke-linecap:round; stroke-width:0.25; stroke-dasharray:3,3;"/>
<text x="63.800000" y="27.000000" font-family="Arial" font-size="7">S</text>
<rect x="35.000000" y="87.000000" width="51.600000" height="24.000000" rx="0" ry="0" style="stroke:none;fill:#cccccc;"/>
<rect x="34.000000" y="86.000000" width="51.600000" height="24.000000" rx="0" ry="0" style="stroke:none;fill:#f44800;"/>
<text x="59.800000" y="100.000000" font-family="Arial" font-size="7" text-anchor="middle" fill="#FFFFFF">1.4142135f</text>
<circle cx="36.000000" cy="88.000000" r="1"/>
<line x1="25.000000" y1="77.000000" x2="25.000000" y2="119.000000"  style="stroke: black; stroke-linecap:round; stroke-width:0.25; stroke-dasharray:3,3;"/>
<line x1="25.000000" y1="119.000000" x2="94.600000" y2="119.000000"  style="stroke: black; stroke-linecap:round; stroke-width:0.25; stroke-dasharray:3,3;"/>
<line x1="94.600000" y1="119.000000" x2="94.600000" y2="77.000000"  style="stroke: black; stroke-linecap:round; stroke-width:0.25; stroke-dasharray:3,3;"/>
<line x1="25.000000" y1="77.000000" x2="30.000000" y2="77.000000"  style="stroke: black; stroke-linecap:round; stroke-width:0.25; stroke-dasharray:3,3;"/>
<line x1="46.125000" y1="77.000000" x2="94.600000" y2="77.000000"  style="stroke: black; stroke-linecap:round; stroke-width:0.25; stroke-dasharray:3,3;"/>
<text x="30.000000" y="79.000000" font-family="Arial" font-size="7">a1s</text>
<a xlink:href="c-15939.svg">
<rect x="48.800000" y="129.000000" width="24.000000" height="24.000000" rx="0" ry="0" style="stroke:none;fill:#cccccc;"/>
<rect x="47.800000" y="128.000000" width="24.000000" height="24.000000" rx="0" ry="0" style="stroke:none;fill:#003366;"/>
</a>
<a xlink:href="c-15939.svg">
<text x="59.800000" y="142.000000" font-family="Arial" font-size="7" text-anchor="middle" fill="#FFFFFF">c</text>
</a>
<circle cx="49.800000" cy="130.000000" r="1"/>
<rect x="112.600000" y="103.000000" width="24.000000" height="24.000000" rx="0" ry="0" style="stroke:none;fill:#cccccc;"/>
<rect x="111.600000" y="102.000000" width="24.000000" height="24.000000" rx="0" ry="0" style="stroke:none;fill:#4B71A1;"/>
<text x="123.600000" y="116.000000" font-family="Arial" font-size="7" text-anchor="middle" fill="#FFFFFF">*</text>
<circle cx="113.600000" cy="104.000000" r="1"/>
<line x1="108.600000" y1="109.000000" x2="111.600000" y2="110.000000"  transform="rotate(0.000000,111.600000,110.000000)" style="stroke: black; stroke-width:0.25;"/>
<line x1="108.600000" y1="111.000000" x2="111.600000" y2="110.000000"  transform="rotate(0.000000,111.600000,110.000000)" style="stroke: black; stroke-width:0.25;"/>
<line x1="108.600000" y1="117.000000" x2="111.600000" y2="118.000000"  transform="rotate(0.000000,111.600000,118.000000)" style="stroke: black; stroke-width:0.25;"/>
<line x1="108.600000" y1="119.000000" x2="111.600000" y2="118.000000"  transform="rotate(0.000000,111.600000,118.000000)" style="stroke: black; stroke-width:0.25;"/>
<rect x="152.600000" y="77.000000" width="24.000000" height="24.000000" rx="0" ry="0" style="stroke:none;fill:#cccccc;"/>
<rect x="151.600000" y="76.000000" width="24.000000" height="24.000000" rx="0" ry="0" style="stroke:none;fill:#4B71A1;"/>
<text x="163.600000" y="90.000000" font-family="Arial" font-size="7" text-anchor="middle" fill="#FFFFFF">+</text>
<circle cx="153.600000" cy="78.000000" r="1"/>
<line x1="148.600000" y1="83.000000" x2="151.600000" y2="84.000000"  transform="rotate(0.000000,151.600000,84.000000)" style="stroke: black; stroke-width:0.25;"/>
<line x1="148.600000" y1="85.000000" x2="151.600000" y2="84.000000"  transform="rotate(0.000000,151.600000,84.000000)" style="stroke: black; stroke-width:0.25;"/>
<line x1="148.600000" y1="91.000000" x2="151.600000" y2="92.000000"  transform="rotate(0.000000,151.600000,92.000000)" style="stroke: black; stroke-width:0.25;"/>
<line x1="148.600000" y1="93.000000" x2="151.600000" y2="92.000000"  transform="rotate(0.000000,151.600000,92.000000)" style="stroke: black; stroke-width:0.25;"/>
<a xlink:href="csq-15953.svg">
<rect x="88.800000" y="161.000000" width="24.000000" height="24.000000" rx="0" ry="0" style="stroke:none;fill:#cccccc;"/>
<rect x="87.800000" y="160.000000" width="24.000000" height="24.000000" rx="0" ry="0" style="stroke:none;fill:#003366;"/>
</a>
<a xlink:href="csq-15953.svg">
<text x="99.800000" y="174.000000" font-family="Arial" font-size="7" text-anchor="middle" fill="#FFFFFF">csq</text>
</a>
<circle cx="89.800000" cy="162.000000" r="1"/>
<rect x="192.600000" y="93.000000" width="24.000000" height="24.000000" rx="0" ry="0" style="stroke:none;fill:#cccccc;"/>
<rect x="191.600000" y="92.000000" width="24.000000" height="24.000000" rx="0" ry="0" style="stroke:none;fill:#4B71A1;"/>
<text x="203.600000" y="106.000000" font-family="Arial" font-size="7" text-anchor="middle" fill="#FFFFFF">+</text>
<circle cx="193.600000" cy="94.000000" r="1"/>
<line x1="188.600000" y1="99.000000" x2="191.600000" y2="100.000000"  transform="rotate(0.000000,191.600000,100.000000)" style="stroke: black; stroke-width:0.25;"/>
<line x1="188.600000" y1="101.000000" x2="191.600000" y2="100.000000"  transform="rotate(0.000000,191.600000,100.000000)" style="stroke: black; stroke-width:0.25;"/>
<line x1="188.600000" y1="107.000000" x2="191.600000" y2="108.000000"  transform="rotate(0.000000,191.600000,108.000000)" style="stroke: black; stroke-width:0.25;"/>
<line x1="188.600000" y1="109.000000" x2="191.600000" y2="108.000000"  transform="rotate(0.000000,191.600000,108.000000)" style="stroke: black; stroke-width:0.25;"/>
<line x1="15.000000" y1="15.000000" x2="15.000000" y2="193.000000"  style="stroke: black; stroke-linecap:round; stroke-width:0.25; stroke-dasharray:3,3;"/>
<line x1="15.000000" y1="193.000000" x2="232.600000" y2="193.000000"  style="stroke: black; stroke-linecap:round; stroke-width:0.25; stroke-dasharray:3,3;"/>
<line x1="232.600000" y1="193.000000" x2="232.600000" y2="15.000000"  style="stroke: black; stroke-linecap:round; stroke-width:0.25; stroke-dasharray:3,3;"/>
<line x1="15.000000" y1="15.000000" x2="20.000000" y2="15.000000"  style="stroke: black; stroke-linecap:round; stroke-width:0.25; stroke-dasharray:3,3;"/>
<line x1="29.675000" y1="15.000000" x2="232.600000" y2="15.000000"  style="stroke: black; stroke-linecap:round; stroke-width:0.25; stroke-dasharray:3,3;"/>
<text x="20.000000" y="17.000000" font-family="Arial" font-size="7">d</text>
<line x1="234.600000" y1="103.000000" x2="237.600000" y2="104.000000"  transform="rotate(0.000000,237.600000,104.000000)" style="stroke: black; stroke-width:0.25;"/>
<line x1="234.600000" y1="105.000000" x2="237.600000" y2="104.000000"  transform="rotate(0.000000,237.600000,104.000000)" style="stroke: black; stroke-width:0.25;"/>
<line x1="71.800000" y1="140.000000" x2="75.800000" y2="140.000000"  style="stroke:black; stroke-linecap:round; stroke-width:0.25;"/>
<line x1="75.800000" y1="140.000000" x2="99.600000" y2="140.000000"  style="stroke:black; stroke-linecap:round; stroke-width:0.25;"/>
<line x1="85.600000" y1="98.000000" x2="89.600000" y2="98.000000"  style="stroke:black; stroke-linecap:round; stroke-width:0.25;"/>
<line x1="89.600000" y1="98.000000" x2="99.600000" y2="98.000000"  style="stroke:black; stroke-linecap:round; stroke-width:0.25;"/>
<line x1="91.800000" y1="46.000000" x2="95.800000" y2="46.000000"  style="stroke:black; stroke-linecap:round; stroke-width:0.25;"/>
<line x1="95.800000" y1="46.000000" x2="105.800000" y2="46.000000"  style="stroke:black; stroke-linecap:round; stroke-width:0.25;"/>
<line x1="99.600000" y1="98.000000" x2="107.600000" y2="98.000000"  style="stroke:black; stroke-linecap:round; stroke-width:0.25;"/>
<line x1="99.600000" y1="118.000000" x2="107.600000" y2="118.000000"  style="stroke:black; stroke-linecap:round; stroke-width:0.25;"/>
<line x1="99.600000" y1="140.000000" x2="99.600000" y2="118.000000"  style="stroke:black; stroke-linecap:round; stroke-width:0.25;"/>
<line x1="99.600000" y1="140.000000" x2="99.600000" y2="140.000000"  style="stroke:black; stroke-linecap:round; stroke-width:0.25;"/>
<line x1="105.800000" y1="46.000000" x2="139.600000" y2="46.000000"  style="stroke:black; stroke-linecap:round; stroke-width:0.25;"/>
<line x1="107.600000" y1="98.000000" x2="107.600000" y2="110.000000"  style="stroke:black; stroke-linecap:round; stroke-width:0.25;"/>
<line x1="107.600000" y1="110.000000" x2="107.600000" y2="110.000000"  style="stroke:black; stroke-linecap:round; stroke-width:0.25;"/>
<line x1="107.600000" y1="110.000000" x2="111.600000" y2="110.000000"  style="stroke:black; stroke-linecap:round; stroke-width:0.25;"/>
<line x1="107.600000" y1="118.000000" x2="111.600000" y2="118.000000"  style="stroke:black; stroke-linecap:round; stroke-width:0.25;"/>
<line x1="111.800000" y1="172.000000" x2="115.800000" y2="172.000000"  style="stroke:black; stroke-linecap:round; stroke-width:0.25;"/>
<line x1="115.800000" y1="172.000000" x2="179.600000" y2="172.000000"  style="stroke:black; stroke-linecap:round; stroke-width:0.25;"/>
<line x1="135.600000" y1="114.000000" x2="139.600000" y2="114.000000"  style="stroke:black; stroke-linecap:round; stroke-width:0.25;"/>
<line x1="139.600000" y1="46.000000" x2="147.600000" y2="46.000000"  style="stroke:black; stroke-linecap:round; stroke-width:0.25;"/>
<line x1="139.600000" y1="92.000000" x2="147.600000" y2="92.000000"  style="stroke:black; stroke-linecap:round; stroke-width:0.25;"/>
<line x1="139.600000" y1="114.000000" x2="139.600000" y2="92.000000"  style="stroke:black; stroke-linecap:round; stroke-width:0.25;"/>
<line x1="139.600000" y1="114.000000" x2="139.600000" y2="114.000000"  style="stroke:black; stroke-linecap:round; stroke-width:0.25;"/>
<line x1="147.600000" y1="46.000000" x2="147.600000" y2="84.000000"  style="stroke:black; stroke-linecap:round; stroke-width:0.25;"/>
<line x1="147.600000" y1="84.000000" x2="147.600000" y2="84.000000"  style="stroke:black; stroke-linecap:round; stroke-width:0.25;"/>
<line x1="147.600000" y1="84.000000" x2="151.600000" y2="84.000000"  style="stroke:black; stroke-linecap:round; stroke-width:0.25;"/>
<line x1="147.600000" y1="92.000000" x2="151.600000" y2="92.000000"  style="stroke:black; stroke-linecap:round; stroke-width:0.25;"/>
<line x1="175.600000" y1="88.000000" x2="179.600000" y2="88.000000"  style="stroke:black; stroke-linecap:round; stroke-width:0.25;"/>
<line x1="179.600000" y1="88.000000" x2="187.600000" y2="88.000000"  style="stroke:black; stroke-linecap:round; stroke-width:0.25;"/>
<line x1="179.600000" y1="108.000000" x2="187.600000" y2="108.000000"  style="stroke:black; stroke-linecap:round; stroke-width:0.25;"/>
<line x1="179.600000" y1="172.000000" x2="179.600000" y2="108.000000"  style="stroke:black; stroke-linecap:round; stroke-width:0.25;"/>
<line x1="179.600000" y1="172.000000" x2="179.600000" y2="172.000000"  style="stroke:black; stroke-linecap:round; stroke-width:0.25;"/>
<line x1="187.600000" y1="88.000000" x2="187.600000" y2="100.000000"  style="stroke:black; stroke-linecap:round; stroke-width:0.25;"/>
<line x1="187.600000" y1="100.000000" x2="187.600000" y2="100.000000"  style="stroke:black; stroke-linecap:round; stroke-width:0.25;"/>
<line x1="187.600000" y1="100.000000" x2="191.600000" y2="100.000000"  style="stroke:black; stroke-linecap:round; stroke-width:0.25;"/>
<line x1="187.600000" y1="108.000000" x2="191.600000" y2="108.000000"  style="stroke:black; stroke-linecap:round; stroke-width:0.25;"/>
<line x1="215.600000" y1="104.000000" x2="219.600000" y2="104.000000"  style="stroke:black; stroke-linecap:round; stroke-width:0.25;"/>
<line x1="219.600000" y1="104.000000" x2="219.600000" y2="104.000000"  style="stroke:black; stroke-linecap:round; stroke-width:0.25;"/>
<line x1="219.600000" y1="104.000000" x2="223.600000" y2="104.000000"  style="stroke:black; stroke-linecap:round; stroke-width:0.25;"/>
<line x1="223.600000" y1="104.000000" x2="227.600000" y2="104.000000"  style="stroke:black; stroke-linecap:round; stroke-width:0.25;"/>
<line x1="227.600000" y1="104.000000" x2="237.600000" y2="104.000000"  style="stroke:black; stroke-linecap:round; stroke-width:0.25;"/>
</svg>
