<?xml version="1.0"?>
<svg xmlns="http://www.w3.org/2000/svg" xmlns:xlink="http://www.w3.org/1999/xlink" viewBox="0 0 392.500000 248.000000" width="196.250000mm" height="124.000000mm" version="1.1">
<a xlink:href="mono-24714.svg">
<rect x="1.000000" y="1.000000" width="391.500000" height="247.000000" rx="0" ry="0" style="stroke:none;fill:#cccccc;"/>
<rect x="0.000000" y="0.000000" width="391.500000" height="247.000000" rx="0" ry="0" style="stroke:none;fill:#ffffff;"/>
</a>
<text x="10.000000" y="7.000000" font-family="Arial" font-size="7"></text>
<rect x="49.000000" y="149.000000" width="24.000000" height="24.000000" rx="0" ry="0" style="stroke:none;fill:#cccccc;"/>
<rect x="48.000000" y="148.000000" width="24.000000" height="24.000000" rx="0" ry="0" style="stroke:none;fill:#4B71A1;"/>
<text x="60.000000" y="162.000000" font-family="Arial" font-size="7" text-anchor="middle" fill="#FFFFFF">+</text>
<circle cx="50.000000" cy="150.000000" r="1"/>
<line x1="45.000000" y1="155.000000" x2="48.000000" y2="156.000000"  transform="rotate(0.000000,48.000000,156.000000)" style="stroke: black; stroke-width:0.25;"/>
<line x1="45.000000" y1="157.000000" x2="48.000000" y2="156.000000"  transform="rotate(0.000000,48.000000,156.000000)" style="stroke: black; stroke-width:0.25;"/>
<line x1="45.000000" y1="163.000000" x2="48.000000" y2="164.000000"  transform="rotate(0.000000,48.000000,164.000000)" style="stroke: black; stroke-width:0.25;"/>
<line x1="45.000000" y1="165.000000" x2="48.000000" y2="164.000000"  transform="rotate(0.000000,48.000000,164.000000)" style="stroke: black; stroke-width:0.25;"/>
<rect x="149.250000" y="105.000000" width="24.000000" height="24.000000" rx="0" ry="0" style="stroke:none;fill:#cccccc;"/>
<rect x="148.250000" y="104.000000" width="24.000000" height="24.000000" rx="0" ry="0" style="stroke:none;fill:#f44800;"/>
<text x="160.250000" y="118.000000" font-family="Arial" font-size="7" text-anchor="middle" fill="#FFFFFF">0</text>
<circle cx="150.250000" cy="106.000000" r="1"/>
<a xlink:href="adaptSR-12181.svg">
<rect x="89.000000" y="137.000000" width="64.500000" height="24.000000" rx="0" ry="0" style="stroke:none;fill:#cccccc;"/>
<rect x="88.000000" y="136.000000" width="64.500000" height="24.000000" rx="0" ry="0" style="stroke:none;fill:#003366;"/>
</a>
<a xlink:href="adaptSR-12181.svg">
<text x="120.250000" y="150.000000" font-family="Arial" font-size="7" text-anchor="middle" fill="#FFFFFF">adaptSR(1277)</text>
</a>
<circle cx="90.000000" cy="138.000000" r="1"/>
<rect x="109.250000" y="169.000000" width="24.000000" height="24.000000" rx="0" ry="0" style="stroke:none;fill:#cccccc;"/>
<rect x="108.250000" y="168.000000" width="24.000000" height="24.000000" rx="0" ry="0" style="stroke:none;fill:#f44800;"/>
<text x="120.250000" y="182.000000" font-family="Arial" font-size="7" text-anchor="middle" fill="#FFFFFF">0</text>
<circle cx="110.250000" cy="170.000000" r="1"/>
<rect x="169.500000" y="153.000000" width="24.000000" height="24.000000" rx="0" ry="0" style="stroke:none;fill:#cccccc;"/>
<rect x="168.500000" y="152.000000" width="24.000000" height="24.000000" rx="0" ry="0" style="stroke:none;fill:#4B71A1;"/>
<text x="180.500000" y="166.000000" font-family="Arial" font-size="7" text-anchor="middle" fill="#FFFFFF">+</text>
<circle cx="170.500000" cy="154.000000" r="1"/>
<line x1="165.500000" y1="159.000000" x2="168.500000" y2="160.000000"  transform="rotate(0.000000,168.500000,160.000000)" style="stroke: black; stroke-width:0.25;"/>
<line x1="165.500000" y1="161.000000" x2="168.500000" y2="160.000000"  transform="rotate(0.000000,168.500000,160.000000)" style="stroke: black; stroke-width:0.25;"/>
<line x1="165.500000" y1="167.000000" x2="168.500000" y2="168.000000"  transform="rotate(0.000000,168.500000,168.000000)" style="stroke: black; stroke-width:0.25;"/>
<line x1="165.500000" y1="169.000000" x2="168.500000" y2="168.000000"  transform="rotate(0.000000,168.500000,168.000000)" style="stroke: black; stroke-width:0.25;"/>
<rect x="129.250000" y="201.000000" width="24.000000" height="24.000000" rx="0" ry="0" style="stroke:none;fill:#cccccc;"/>
<rect x="128.250000" y="200.000000" width="24.000000" height="24.000000" rx="0" ry="0" style="stroke:none;fill:#f44800;"/>
<text x="140.250000" y="214.000000" font-family="Arial" font-size="7" text-anchor="middle" fill="#FFFFFF">1</text>
<circle cx="130.250000" cy="202.000000" r="1"/>
<rect x="209.500000" y="169.000000" width="24.000000" height="24.000000" rx="0" ry="0" style="stroke:none;fill:#cccccc;"/>
<rect x="208.500000" y="168.000000" width="24.000000" height="24.000000" rx="0" ry="0" style="stroke:none;fill:#4B71A1;"/>
<text x="220.500000" y="182.000000" font-family="Arial" font-size="7" text-anchor="middle" fill="#FFFFFF">-</text>
<circle cx="210.500000" cy="170.000000" r="1"/>
<line x1="205.500000" y1="175.000000" x2="208.500000" y2="176.000000"  transform="rotate(0.000000,208.500000,176.000000)" style="stroke: black; stroke-width:0.25;"/>
<line x1="205.500000" y1="177.000000" x2="208.500000" y2="176.000000"  transform="rotate(0.000000,208.500000,176.000000)" style="stroke: black; stroke-width:0.25;"/>
<line x1="205.500000" y1="183.000000" x2="208.500000" y2="184.000000"  transform="rotate(0.000000,208.500000,184.000000)" style="stroke: black; stroke-width:0.25;"/>
<line x1="205.500000" y1="185.000000" x2="208.500000" y2="184.000000"  transform="rotate(0.000000,208.500000,184.000000)" style="stroke: black; stroke-width:0.25;"/>
<rect x="249.500000" y="153.000000" width="24.000000" height="24.000000" rx="0" ry="0" style="stroke:none;fill:#cccccc;"/>
<rect x="248.500000" y="152.000000" width="24.000000" height="24.000000" rx="0" ry="0" style="stroke:none;fill:#4B71A1;"/>
<text x="260.500000" y="166.000000" font-family="Arial" font-size="7" text-anchor="middle" fill="#FFFFFF">max</text>
<circle cx="250.500000" cy="154.000000" r="1"/>
<line x1="245.500000" y1="159.000000" x2="248.500000" y2="160.000000"  transform="rotate(0.000000,248.500000,160.000000)" style="stroke: black; stroke-width:0.25;"/>
<line x1="245.500000" y1="161.000000" x2="248.500000" y2="160.000000"  transform="rotate(0.000000,248.500000,160.000000)" style="stroke: black; stroke-width:0.25;"/>
<line x1="245.500000" y1="167.000000" x2="248.500000" y2="168.000000"  transform="rotate(0.000000,248.500000,168.000000)" style="stroke: black; stroke-width:0.25;"/>
<line x1="245.500000" y1="169.000000" x2="248.500000" y2="168.000000"  transform="rotate(0.000000,248.500000,168.000000)" style="stroke: black; stroke-width:0.25;"/>
<rect x="289.500000" y="149.000000" width="24.000000" height="24.000000" rx="0" ry="0" style="stroke:none;fill:#cccccc;"/>
<rect x="288.500000" y="148.000000" width="24.000000" height="24.000000" rx="0" ry="0" style="stroke:none;fill:#4B71A1;"/>
<text x="300.500000" y="162.000000" font-family="Arial" font-size="7" text-anchor="middle" fill="#FFFFFF">@</text>
<circle cx="290.500000" cy="150.000000" r="1"/>
<line x1="285.500000" y1="155.000000" x2="288.500000" y2="156.000000"  transform="rotate(0.000000,288.500000,156.000000)" style="stroke: black; stroke-width:0.25;"/>
<line x1="285.500000" y1="157.000000" x2="288.500000" y2="156.000000"  transform="rotate(0.000000,288.500000,156.000000)" style="stroke: black; stroke-width:0.25;"/>
<line x1="285.500000" y1="163.000000" x2="288.500000" y2="164.000000"  transform="rotate(0.000000,288.500000,164.000000)" style="stroke: black; stroke-width:0.25;"/>
<line x1="285.500000" y1="165.000000" x2="288.500000" y2="164.000000"  transform="rotate(0.000000,288.500000,164.000000)" style="stroke: black; stroke-width:0.25;"/>
<rect x="278.150000" y="41.000000" width="25.800000" height="24.000000" rx="0" ry="0" style="stroke:none;fill:#cccccc;"/>
<rect x="277.150000" y="40.000000" width="25.800000" height="24.000000" rx="0" ry="0" style="stroke:none;fill:#f44800;"/>
<text x="290.050000" y="54.000000" font-family="Arial" font-size="7" text-anchor="middle" fill="#FFFFFF">0.8f</text>
<circle cx="300.950000" cy="62.000000" r="1"/>
<rect x="238.150000" y="45.000000" width="24.000000" height="24.000000" rx="0" ry="0" style="stroke:none;fill:#cccccc;"/>
<rect x="237.150000" y="44.000000" width="24.000000" height="24.000000" rx="0" ry="0" style="stroke:none;fill:#4B71A1;"/>
<text x="249.150000" y="58.000000" font-family="Arial" font-size="7" text-anchor="middle" fill="#FFFFFF">*</text>
<circle cx="259.150000" cy="66.000000" r="1"/>
<line x1="264.150000" y1="59.000000" x2="261.150000" y2="60.000000"  transform="rotate(0.000000,261.150000,60.000000)" style="stroke: black; stroke-width:0.25;"/>
<line x1="264.150000" y1="61.000000" x2="261.150000" y2="60.000000"  transform="rotate(0.000000,261.150000,60.000000)" style="stroke: black; stroke-width:0.25;"/>
<line x1="264.150000" y1="51.000000" x2="261.150000" y2="52.000000"  transform="rotate(0.000000,261.150000,52.000000)" style="stroke: black; stroke-width:0.25;"/>
<line x1="264.150000" y1="53.000000" x2="261.150000" y2="52.000000"  transform="rotate(0.000000,261.150000,52.000000)" style="stroke: black; stroke-width:0.25;"/>
<rect x="169.250000" y="25.000000" width="24.000000" height="24.000000" rx="0" ry="0" style="stroke:none;fill:#cccccc;"/>
<rect x="168.250000" y="24.000000" width="24.000000" height="24.000000" rx="0" ry="0" style="stroke:none;fill:#4B71A1;"/>
<text x="180.250000" y="38.000000" font-family="Arial" font-size="7" text-anchor="middle" fill="#FFFFFF">+</text>
<circle cx="190.250000" cy="46.000000" r="1"/>
<line x1="195.250000" y1="39.000000" x2="192.250000" y2="40.000000"  transform="rotate(0.000000,192.250000,40.000000)" style="stroke: black; stroke-width:0.25;"/>
<line x1="195.250000" y1="41.000000" x2="192.250000" y2="40.000000"  transform="rotate(0.000000,192.250000,40.000000)" style="stroke: black; stroke-width:0.25;"/>
<line x1="195.250000" y1="31.000000" x2="192.250000" y2="32.000000"  transform="rotate(0.000000,192.250000,32.000000)" style="stroke: black; stroke-width:0.25;"/>
<line x1="195.250000" y1="33.000000" x2="192.250000" y2="32.000000"  transform="rotate(0.000000,192.250000,32.000000)" style="stroke: black; stroke-width:0.25;"/>
<rect x="148.350000" y="65.000000" width="25.800000" height="24.000000" rx="0" ry="0" style="stroke:none;fill:#cccccc;"/>
<rect x="147.350000" y="64.000000" width="25.800000" height="24.000000" rx="0" ry="0" style="stroke:none;fill:#f44800;"/>
<text x="160.250000" y="78.000000" font-family="Arial" font-size="7" text-anchor="middle" fill="#FFFFFF">0.2f</text>
<circle cx="149.350000" cy="66.000000" r="1"/>
<rect x="190.150000" y="61.000000" width="24.000000" height="24.000000" rx="0" ry="0" style="stroke:none;fill:#cccccc;"/>
<rect x="189.150000" y="60.000000" width="24.000000" height="24.000000" rx="0" ry="0" style="stroke:none;fill:#4B71A1;"/>
<text x="201.150000" y="74.000000" font-family="Arial" font-size="7" text-anchor="middle" fill="#FFFFFF">*</text>
<circle cx="191.150000" cy="62.000000" r="1"/>
<line x1="186.150000" y1="67.000000" x2="189.150000" y2="68.000000"  transform="rotate(0.000000,189.150000,68.000000)" style="stroke: black; stroke-width:0.25;"/>
<line x1="186.150000" y1="69.000000" x2="189.150000" y2="68.000000"  transform="rotate(0.000000,189.150000,68.000000)" style="stroke: black; stroke-width:0.25;"/>
<line x1="186.150000" y1="75.000000" x2="189.150000" y2="76.000000"  transform="rotate(0.000000,189.150000,76.000000)" style="stroke: black; stroke-width:0.25;"/>
<line x1="186.150000" y1="77.000000" x2="189.150000" y2="76.000000"  transform="rotate(0.000000,189.150000,76.000000)" style="stroke: black; stroke-width:0.25;"/>
<line x1="145.350000" y1="36.000000" x2="145.350000" y2="40.000000"  style="stroke:black; stroke-linecap:round; stroke-width:0.25;"/>
<line x1="145.350000" y1="40.000000" x2="141.350000" y2="40.000000"  style="stroke:black; stroke-linecap:round; stroke-width:0.25;"/>
<line x1="141.350000" y1="40.000000" x2="141.350000" y2="36.000000"  style="stroke:black; stroke-linecap:round; stroke-width:0.25;"/>
<rect x="98.550000" y="41.000000" width="25.800000" height="24.000000" rx="0" ry="0" style="stroke:none;fill:#cccccc;"/>
<rect x="97.550000" y="40.000000" width="25.800000" height="24.000000" rx="0" ry="0" style="stroke:none;fill:#f44800;"/>
<text x="110.450000" y="54.000000" font-family="Arial" font-size="7" text-anchor="middle" fill="#FFFFFF">0.84f</text>
<circle cx="121.350000" cy="62.000000" r="1"/>
<rect x="58.550000" y="45.000000" width="24.000000" height="24.000000" rx="0" ry="0" style="stroke:none;fill:#cccccc;"/>
<rect x="57.550000" y="44.000000" width="24.000000" height="24.000000" rx="0" ry="0" style="stroke:none;fill:#4B71A1;"/>
<text x="69.550000" y="58.000000" font-family="Arial" font-size="7" text-anchor="middle" fill="#FFFFFF">*</text>
<circle cx="79.550000" cy="66.000000" r="1"/>
<line x1="84.550000" y1="59.000000" x2="81.550000" y2="60.000000"  transform="rotate(0.000000,81.550000,60.000000)" style="stroke: black; stroke-width:0.25;"/>
<line x1="84.550000" y1="61.000000" x2="81.550000" y2="60.000000"  transform="rotate(0.000000,81.550000,60.000000)" style="stroke: black; stroke-width:0.25;"/>
<line x1="84.550000" y1="51.000000" x2="81.550000" y2="52.000000"  transform="rotate(0.000000,81.550000,52.000000)" style="stroke: black; stroke-width:0.25;"/>
<line x1="84.550000" y1="53.000000" x2="81.550000" y2="52.000000"  transform="rotate(0.000000,81.550000,52.000000)" style="stroke: black; stroke-width:0.25;"/>
<line x1="314.500000" y1="160.000000" x2="314.500000" y2="156.000000"  style="stroke:black; stroke-linecap:round; stroke-width:0.25;"/>
<line x1="314.500000" y1="156.000000" x2="318.500000" y2="156.000000"  style="stroke:black; stroke-linecap:round; stroke-width:0.25;"/>
<line x1="318.500000" y1="156.000000" x2="318.500000" y2="160.000000"  style="stroke:black; stroke-linecap:round; stroke-width:0.25;"/>
<rect x="337.500000" y="113.000000" width="24.000000" height="24.000000" rx="0" ry="0" style="stroke:none;fill:#cccccc;"/>
<rect x="336.500000" y="112.000000" width="24.000000" height="24.000000" rx="0" ry="0" style="stroke:none;fill:#4B71A1;"/>
<text x="348.500000" y="126.000000" font-family="Arial" font-size="7" text-anchor="middle" fill="#FFFFFF">mem</text>
<circle cx="338.500000" cy="114.000000" r="1"/>
<line x1="333.500000" y1="123.000000" x2="336.500000" y2="124.000000"  transform="rotate(0.000000,336.500000,124.000000)" style="stroke: black; stroke-width:0.25;"/>
<line x1="333.500000" y1="125.000000" x2="336.500000" y2="124.000000"  transform="rotate(0.000000,336.500000,124.000000)" style="stroke: black; stroke-width:0.25;"/>
<line x1="15.000000" y1="15.000000" x2="15.000000" y2="233.000000"  style="stroke: black; stroke-linecap:round; stroke-width:0.25; stroke-dasharray:3,3;"/>
<line x1="15.000000" y1="233.000000" x2="377.500000" y2="233.000000"  style="stroke: black; stroke-linecap:round; stroke-width:0.25; stroke-dasharray:3,3;"/>
<line x1="377.500000" y1="233.000000" x2="377.500000" y2="15.000000"  style="stroke: black; stroke-linecap:round; stroke-width:0.25; stroke-dasharray:3,3;"/>
<line x1="15.000000" y1="15.000000" x2="20.000000" y2="15.000000"  style="stroke: black; stroke-linecap:round; stroke-width:0.25; stroke-dasharray:3,3;"/>
<line x1="119.975000" y1="15.000000" x2="377.500000" y2="15.000000"  style="stroke: black; stroke-linecap:round; stroke-width:0.25; stroke-dasharray:3,3;"/>
<text x="20.000000" y="17.000000" font-family="Arial" font-size="7">lbcf(((1277,(...(0.84f)(0.2f)</text>
<line x1="379.500000" y1="123.000000" x2="382.500000" y2="124.000000"  transform="rotate(0.000000,382.500000,124.000000)" style="stroke: black; stroke-width:0.25;"/>
<line x1="379.500000" y1="125.000000" x2="382.500000" y2="124.000000"  transform="rotate(0.000000,382.500000,124.000000)" style="stroke: black; stroke-width:0.25;"/>
<line x1="10.000000" y1="124.000000" x2="20.000000" y2="124.000000"  style="stroke:black; stroke-linecap:round; stroke-width:0.25;"/>
<line x1="20.000000" y1="124.000000" x2="24.000000" y2="124.000000"  style="stroke:black; stroke-linecap:round; stroke-width:0.25;"/>
<line x1="24.000000" y1="124.000000" x2="28.000000" y2="124.000000"  style="stroke:black; stroke-linecap:round; stroke-width:0.25;"/>
<line x1="28.000000" y1="124.000000" x2="36.000000" y2="124.000000"  style="stroke:black; stroke-linecap:round; stroke-width:0.25;"/>
<line x1="36.000000" y1="124.000000" x2="36.000000" y2="164.000000"  style="stroke:black; stroke-linecap:round; stroke-width:0.25;"/>
<line x1="36.000000" y1="164.000000" x2="36.000000" y2="164.000000"  style="stroke:black; stroke-linecap:round; stroke-width:0.25;"/>
<line x1="36.000000" y1="164.000000" x2="44.000000" y2="164.000000"  style="stroke:black; stroke-linecap:round; stroke-width:0.25;"/>
<line x1="44.000000" y1="56.000000" x2="44.000000" y2="56.000000"  style="stroke:black; stroke-linecap:round; stroke-width:0.25;"/>
<line x1="44.000000" y1="56.000000" x2="44.000000" y2="156.000000"  style="stroke:black; stroke-linecap:round; stroke-width:0.25;"/>
<line x1="44.000000" y1="156.000000" x2="44.000000" y2="156.000000"  style="stroke:black; stroke-linecap:round; stroke-width:0.25;"/>
<line x1="44.000000" y1="156.000000" x2="48.000000" y2="156.000000"  style="stroke:black; stroke-linecap:round; stroke-width:0.25;"/>
<line x1="44.000000" y1="164.000000" x2="48.000000" y2="164.000000"  style="stroke:black; stroke-linecap:round; stroke-width:0.25;"/>
<line x1="53.550000" y1="56.000000" x2="44.000000" y2="56.000000"  style="stroke:black; stroke-linecap:round; stroke-width:0.25;"/>
<line x1="57.550000" y1="56.000000" x2="53.550000" y2="56.000000"  style="stroke:black; stroke-linecap:round; stroke-width:0.25;"/>
<line x1="72.000000" y1="160.000000" x2="76.000000" y2="160.000000"  style="stroke:black; stroke-linecap:round; stroke-width:0.25;"/>
<line x1="76.000000" y1="96.000000" x2="84.000000" y2="96.000000"  style="stroke:black; stroke-linecap:round; stroke-width:0.25;"/>
<line x1="76.000000" y1="160.000000" x2="76.000000" y2="96.000000"  style="stroke:black; stroke-linecap:round; stroke-width:0.25;"/>
<line x1="76.000000" y1="160.000000" x2="76.000000" y2="160.000000"  style="stroke:black; stroke-linecap:round; stroke-width:0.25;"/>
<line x1="84.000000" y1="96.000000" x2="180.250000" y2="96.000000"  style="stroke:black; stroke-linecap:round; stroke-width:0.25;"/>
<line x1="85.550000" y1="52.000000" x2="81.550000" y2="52.000000"  style="stroke:black; stroke-linecap:round; stroke-width:0.25;"/>
<line x1="85.550000" y1="60.000000" x2="81.550000" y2="60.000000"  style="stroke:black; stroke-linecap:round; stroke-width:0.25;"/>
<line x1="85.550000" y1="60.000000" x2="85.550000" y2="60.000000"  style="stroke:black; stroke-linecap:round; stroke-width:0.25;"/>
<line x1="85.550000" y1="72.000000" x2="85.550000" y2="60.000000"  style="stroke:black; stroke-linecap:round; stroke-width:0.25;"/>
<line x1="93.550000" y1="52.000000" x2="85.550000" y2="52.000000"  style="stroke:black; stroke-linecap:round; stroke-width:0.25;"/>
<line x1="93.550000" y1="72.000000" x2="85.550000" y2="72.000000"  style="stroke:black; stroke-linecap:round; stroke-width:0.25;"/>
<line x1="97.550000" y1="52.000000" x2="93.550000" y2="52.000000"  style="stroke:black; stroke-linecap:round; stroke-width:0.25;"/>
<line x1="110.450000" y1="72.000000" x2="93.550000" y2="72.000000"  style="stroke:black; stroke-linecap:round; stroke-width:0.25;"/>
<line x1="127.350000" y1="72.000000" x2="110.450000" y2="72.000000"  style="stroke:black; stroke-linecap:round; stroke-width:0.25;"/>
<line x1="132.250000" y1="180.000000" x2="136.250000" y2="180.000000"  style="stroke:black; stroke-linecap:round; stroke-width:0.25;"/>
<line x1="135.350000" y1="36.000000" x2="135.350000" y2="36.000000"  style="stroke:black; stroke-linecap:round; stroke-width:0.25;"/>
<line x1="135.350000" y1="36.000000" x2="135.350000" y2="72.000000"  style="stroke:black; stroke-linecap:round; stroke-width:0.25;"/>
<line x1="135.350000" y1="72.000000" x2="127.350000" y2="72.000000"  style="stroke:black; stroke-linecap:round; stroke-width:0.25;"/>
<line x1="136.250000" y1="180.000000" x2="156.500000" y2="180.000000"  style="stroke:black; stroke-linecap:round; stroke-width:0.25;"/>
<line x1="141.350000" y1="36.000000" x2="135.350000" y2="36.000000"  style="stroke:black; stroke-linecap:round; stroke-width:0.25;"/>
<line x1="143.350000" y1="36.000000" x2="141.350000" y2="36.000000"  style="stroke:black; stroke-linecap:round; stroke-width:0.25;"/>
<line x1="143.350000" y1="40.000000" x2="143.350000" y2="56.000000"  style="stroke:black; stroke-linecap:round; stroke-width:0.25;"/>
<line x1="143.350000" y1="56.000000" x2="143.350000" y2="56.000000"  style="stroke:black; stroke-linecap:round; stroke-width:0.25;"/>
<line x1="143.350000" y1="56.000000" x2="160.250000" y2="56.000000"  style="stroke:black; stroke-linecap:round; stroke-width:0.25;"/>
<line x1="152.250000" y1="212.000000" x2="156.250000" y2="212.000000"  style="stroke:black; stroke-linecap:round; stroke-width:0.25;"/>
<line x1="152.500000" y1="148.000000" x2="156.500000" y2="148.000000"  style="stroke:black; stroke-linecap:round; stroke-width:0.25;"/>
<line x1="156.250000" y1="212.000000" x2="196.500000" y2="212.000000"  style="stroke:black; stroke-linecap:round; stroke-width:0.25;"/>
<line x1="156.500000" y1="148.000000" x2="164.500000" y2="148.000000"  style="stroke:black; stroke-linecap:round; stroke-width:0.25;"/>
<line x1="156.500000" y1="168.000000" x2="164.500000" y2="168.000000"  style="stroke:black; stroke-linecap:round; stroke-width:0.25;"/>
<line x1="156.500000" y1="180.000000" x2="156.500000" y2="168.000000"  style="stroke:black; stroke-linecap:round; stroke-width:0.25;"/>
<line x1="156.500000" y1="180.000000" x2="156.500000" y2="180.000000"  style="stroke:black; stroke-linecap:round; stroke-width:0.25;"/>
<line x1="160.250000" y1="56.000000" x2="177.150000" y2="56.000000"  style="stroke:black; stroke-linecap:round; stroke-width:0.25;"/>
<line x1="164.250000" y1="36.000000" x2="143.350000" y2="36.000000"  style="stroke:black; stroke-linecap:round; stroke-width:0.25;"/>
<line x1="164.500000" y1="148.000000" x2="164.500000" y2="160.000000"  style="stroke:black; stroke-linecap:round; stroke-width:0.25;"/>
<line x1="164.500000" y1="160.000000" x2="164.500000" y2="160.000000"  style="stroke:black; stroke-linecap:round; stroke-width:0.25;"/>
<line x1="164.500000" y1="160.000000" x2="168.500000" y2="160.000000"  style="stroke:black; stroke-linecap:round; stroke-width:0.25;"/>
<line x1="164.500000" y1="168.000000" x2="168.500000" y2="168.000000"  style="stroke:black; stroke-linecap:round; stroke-width:0.25;"/>
<line x1="168.250000" y1="36.000000" x2="164.250000" y2="36.000000"  style="stroke:black; stroke-linecap:round; stroke-width:0.25;"/>
<line x1="172.250000" y1="116.000000" x2="176.250000" y2="116.000000"  style="stroke:black; stroke-linecap:round; stroke-width:0.25;"/>
<line x1="173.150000" y1="76.000000" x2="177.150000" y2="76.000000"  style="stroke:black; stroke-linecap:round; stroke-width:0.25;"/>
<line x1="176.250000" y1="116.000000" x2="236.500000" y2="116.000000"  style="stroke:black; stroke-linecap:round; stroke-width:0.25;"/>
<line x1="177.150000" y1="56.000000" x2="185.150000" y2="56.000000"  style="stroke:black; stroke-linecap:round; stroke-width:0.25;"/>
<line x1="177.150000" y1="76.000000" x2="185.150000" y2="76.000000"  style="stroke:black; stroke-linecap:round; stroke-width:0.25;"/>
<line x1="180.250000" y1="96.000000" x2="276.500000" y2="96.000000"  style="stroke:black; stroke-linecap:round; stroke-width:0.25;"/>
<line x1="185.150000" y1="56.000000" x2="185.150000" y2="68.000000"  style="stroke:black; stroke-linecap:round; stroke-width:0.25;"/>
<line x1="185.150000" y1="68.000000" x2="185.150000" y2="68.000000"  style="stroke:black; stroke-linecap:round; stroke-width:0.25;"/>
<line x1="185.150000" y1="68.000000" x2="189.150000" y2="68.000000"  style="stroke:black; stroke-linecap:round; stroke-width:0.25;"/>
<line x1="185.150000" y1="76.000000" x2="189.150000" y2="76.000000"  style="stroke:black; stroke-linecap:round; stroke-width:0.25;"/>
<line x1="192.500000" y1="164.000000" x2="196.500000" y2="164.000000"  style="stroke:black; stroke-linecap:round; stroke-width:0.25;"/>
<line x1="196.250000" y1="32.000000" x2="192.250000" y2="32.000000"  style="stroke:black; stroke-linecap:round; stroke-width:0.25;"/>
<line x1="196.250000" y1="40.000000" x2="192.250000" y2="40.000000"  style="stroke:black; stroke-linecap:round; stroke-width:0.25;"/>
<line x1="196.500000" y1="164.000000" x2="204.500000" y2="164.000000"  style="stroke:black; stroke-linecap:round; stroke-width:0.25;"/>
<line x1="196.500000" y1="184.000000" x2="204.500000" y2="184.000000"  style="stroke:black; stroke-linecap:round; stroke-width:0.25;"/>
<line x1="196.500000" y1="212.000000" x2="196.500000" y2="184.000000"  style="stroke:black; stroke-linecap:round; stroke-width:0.25;"/>
<line x1="196.500000" y1="212.000000" x2="196.500000" y2="212.000000"  style="stroke:black; stroke-linecap:round; stroke-width:0.25;"/>
<line x1="204.500000" y1="164.000000" x2="204.500000" y2="176.000000"  style="stroke:black; stroke-linecap:round; stroke-width:0.25;"/>
<line x1="204.500000" y1="176.000000" x2="204.500000" y2="176.000000"  style="stroke:black; stroke-linecap:round; stroke-width:0.25;"/>
<line x1="204.500000" y1="176.000000" x2="208.500000" y2="176.000000"  style="stroke:black; stroke-linecap:round; stroke-width:0.25;"/>
<line x1="204.500000" y1="184.000000" x2="208.500000" y2="184.000000"  style="stroke:black; stroke-linecap:round; stroke-width:0.25;"/>
<line x1="213.150000" y1="72.000000" x2="217.150000" y2="72.000000"  style="stroke:black; stroke-linecap:round; stroke-width:0.25;"/>
<line x1="217.150000" y1="32.000000" x2="196.250000" y2="32.000000"  style="stroke:black; stroke-linecap:round; stroke-width:0.25;"/>
<line x1="217.150000" y1="40.000000" x2="196.250000" y2="40.000000"  style="stroke:black; stroke-linecap:round; stroke-width:0.25;"/>
<line x1="217.150000" y1="40.000000" x2="217.150000" y2="40.000000"  style="stroke:black; stroke-linecap:round; stroke-width:0.25;"/>
<line x1="217.150000" y1="72.000000" x2="217.150000" y2="40.000000"  style="stroke:black; stroke-linecap:round; stroke-width:0.25;"/>
<line x1="217.150000" y1="72.000000" x2="217.150000" y2="72.000000"  style="stroke:black; stroke-linecap:round; stroke-width:0.25;"/>
<line x1="225.150000" y1="32.000000" x2="225.150000" y2="32.000000"  style="stroke:black; stroke-linecap:round; stroke-width:0.25;"/>
<line x1="225.150000" y1="56.000000" x2="225.150000" y2="32.000000"  style="stroke:black; stroke-linecap:round; stroke-width:0.25;"/>
<line x1="225.150000" y1="32.000000" x2="217.150000" y2="32.000000"  style="stroke:black; stroke-linecap:round; stroke-width:0.25;"/>
<line x1="232.500000" y1="180.000000" x2="236.500000" y2="180.000000"  style="stroke:black; stroke-linecap:round; stroke-width:0.25;"/>
<line x1="233.150000" y1="56.000000" x2="225.150000" y2="56.000000"  style="stroke:black; stroke-linecap:round; stroke-width:0.25;"/>
<line x1="236.500000" y1="116.000000" x2="244.500000" y2="116.000000"  style="stroke:black; stroke-linecap:round; stroke-width:0.25;"/>
<line x1="236.500000" y1="168.000000" x2="244.500000" y2="168.000000"  style="stroke:black; stroke-linecap:round; stroke-width:0.25;"/>
<line x1="236.500000" y1="180.000000" x2="236.500000" y2="168.000000"  style="stroke:black; stroke-linecap:round; stroke-width:0.25;"/>
<line x1="236.500000" y1="180.000000" x2="236.500000" y2="180.000000"  style="stroke:black; stroke-linecap:round; stroke-width:0.25;"/>
<line x1="237.150000" y1="56.000000" x2="233.150000" y2="56.000000"  style="stroke:black; stroke-linecap:round; stroke-width:0.25;"/>
<line x1="244.500000" y1="116.000000" x2="244.500000" y2="160.000000"  style="stroke:black; stroke-linecap:round; stroke-width:0.25;"/>
<line x1="244.500000" y1="160.000000" x2="244.500000" y2="160.000000"  style="stroke:black; stroke-linecap:round; stroke-width:0.25;"/>
<line x1="244.500000" y1="160.000000" x2="248.500000" y2="160.000000"  style="stroke:black; stroke-linecap:round; stroke-width:0.25;"/>
<line x1="244.500000" y1="168.000000" x2="248.500000" y2="168.000000"  style="stroke:black; stroke-linecap:round; stroke-width:0.25;"/>
<line x1="265.150000" y1="52.000000" x2="261.150000" y2="52.000000"  style="stroke:black; stroke-linecap:round; stroke-width:0.25;"/>
<line x1="265.150000" y1="60.000000" x2="261.150000" y2="60.000000"  style="stroke:black; stroke-linecap:round; stroke-width:0.25;"/>
<line x1="265.150000" y1="60.000000" x2="265.150000" y2="60.000000"  style="stroke:black; stroke-linecap:round; stroke-width:0.25;"/>
<line x1="265.150000" y1="72.000000" x2="265.150000" y2="60.000000"  style="stroke:black; stroke-linecap:round; stroke-width:0.25;"/>
<line x1="272.500000" y1="164.000000" x2="276.500000" y2="164.000000"  style="stroke:black; stroke-linecap:round; stroke-width:0.25;"/>
<line x1="273.150000" y1="52.000000" x2="265.150000" y2="52.000000"  style="stroke:black; stroke-linecap:round; stroke-width:0.25;"/>
<line x1="273.150000" y1="72.000000" x2="265.150000" y2="72.000000"  style="stroke:black; stroke-linecap:round; stroke-width:0.25;"/>
<line x1="276.500000" y1="96.000000" x2="284.500000" y2="96.000000"  style="stroke:black; stroke-linecap:round; stroke-width:0.25;"/>
<line x1="276.500000" y1="164.000000" x2="284.500000" y2="164.000000"  style="stroke:black; stroke-linecap:round; stroke-width:0.25;"/>
<line x1="277.150000" y1="52.000000" x2="273.150000" y2="52.000000"  style="stroke:black; stroke-linecap:round; stroke-width:0.25;"/>
<line x1="284.500000" y1="96.000000" x2="284.500000" y2="156.000000"  style="stroke:black; stroke-linecap:round; stroke-width:0.25;"/>
<line x1="284.500000" y1="156.000000" x2="284.500000" y2="156.000000"  style="stroke:black; stroke-linecap:round; stroke-width:0.25;"/>
<line x1="284.500000" y1="156.000000" x2="288.500000" y2="156.000000"  style="stroke:black; stroke-linecap:round; stroke-width:0.25;"/>
<line x1="284.500000" y1="164.000000" x2="288.500000" y2="164.000000"  style="stroke:black; stroke-linecap:round; stroke-width:0.25;"/>
<line x1="290.050000" y1="72.000000" x2="273.150000" y2="72.000000"  style="stroke:black; stroke-linecap:round; stroke-width:0.25;"/>
<line x1="306.950000" y1="72.000000" x2="290.050000" y2="72.000000"  style="stroke:black; stroke-linecap:round; stroke-width:0.25;"/>
<line x1="312.500000" y1="160.000000" x2="316.500000" y2="160.000000"  style="stroke:black; stroke-linecap:round; stroke-width:0.25;"/>
<line x1="316.500000" y1="72.000000" x2="306.950000" y2="72.000000"  style="stroke:black; stroke-linecap:round; stroke-width:0.25;"/>
<line x1="316.500000" y1="72.000000" x2="316.500000" y2="72.000000"  style="stroke:black; stroke-linecap:round; stroke-width:0.25;"/>
<line x1="316.500000" y1="156.000000" x2="316.500000" y2="72.000000"  style="stroke:black; stroke-linecap:round; stroke-width:0.25;"/>
<line x1="316.500000" y1="160.000000" x2="318.500000" y2="160.000000"  style="stroke:black; stroke-linecap:round; stroke-width:0.25;"/>
<line x1="318.500000" y1="160.000000" x2="324.500000" y2="160.000000"  style="stroke:black; stroke-linecap:round; stroke-width:0.25;"/>
<line x1="324.500000" y1="124.000000" x2="332.500000" y2="124.000000"  style="stroke:black; stroke-linecap:round; stroke-width:0.25;"/>
<line x1="324.500000" y1="160.000000" x2="324.500000" y2="124.000000"  style="stroke:black; stroke-linecap:round; stroke-width:0.25;"/>
<line x1="324.500000" y1="160.000000" x2="324.500000" y2="160.000000"  style="stroke:black; stroke-linecap:round; stroke-width:0.25;"/>
<line x1="332.500000" y1="124.000000" x2="336.500000" y2="124.000000"  style="stroke:black; stroke-linecap:round; stroke-width:0.25;"/>
<line x1="360.500000" y1="124.000000" x2="364.500000" y2="124.000000"  style="stroke:black; stroke-linecap:round; stroke-width:0.25;"/>
<line x1="364.500000" y1="124.000000" x2="364.500000" y2="124.000000"  style="stroke:black; stroke-linecap:round; stroke-width:0.25;"/>
<line x1="364.500000" y1="124.000000" x2="368.500000" y2="124.000000"  style="stroke:black; stroke-linecap:round; stroke-width:0.25;"/>
<line x1="368.500000" y1="124.000000" x2="372.500000" y2="124.000000"  style="stroke:black; stroke-linecap:round; stroke-width:0.25;"/>
<line x1="372.500000" y1="124.000000" x2="382.500000" y2="124.000000"  style="stroke:black; stroke-linecap:round; stroke-width:0.25;"/>
</svg>
