<?xml version="1.0"?>
<svg xmlns="http://www.w3.org/2000/svg" xmlns:xlink="http://www.w3.org/1999/xlink" viewBox="0 0 361.500000 136.000000" width="180.750000mm" height="68.000000mm" version="1.1">
<a xlink:href="delay-24516.svg">
<rect x="1.000000" y="1.000000" width="360.500000" height="135.000000" rx="0" ry="0" style="stroke:none;fill:#cccccc;"/>
<rect x="0.000000" y="0.000000" width="360.500000" height="135.000000" rx="0" ry="0" style="stroke:none;fill:#ffffff;"/>
</a>
<text x="10.000000" y="7.000000" font-family="Arial" font-size="7"></text>
<rect x="25.000000" y="25.000000" width="193.500000" height="24.000000" rx="0" ry="0" style="stroke:none;fill:#cccccc;"/>
<rect x="24.000000" y="24.000000" width="193.500000" height="24.000000" rx="0" ry="0" style="stroke:none;fill:#477881;"/>
<text x="120.750000" y="38.000000" font-family="Arial" font-size="7" text-anchor="middle" fill="#FFFFFF">hslider(predelay, 1e+01f, 0.0f, 1e+02f, 1.0f)</text>
<circle cx="26.000000" cy="26.000000" r="1"/>
<a xlink:href="SR-5963.svg">
<rect x="109.750000" y="57.000000" width="24.000000" height="24.000000" rx="0" ry="0" style="stroke:none;fill:#cccccc;"/>
<rect x="108.750000" y="56.000000" width="24.000000" height="24.000000" rx="0" ry="0" style="stroke:none;fill:#003366;"/>
</a>
<a xlink:href="SR-5963.svg">
<text x="120.750000" y="70.000000" font-family="Arial" font-size="7" text-anchor="middle" fill="#FFFFFF">SR</text>
</a>
<circle cx="110.750000" cy="58.000000" r="1"/>
<rect x="234.500000" y="41.000000" width="24.000000" height="24.000000" rx="0" ry="0" style="stroke:none;fill:#cccccc;"/>
<rect x="233.500000" y="40.000000" width="24.000000" height="24.000000" rx="0" ry="0" style="stroke:none;fill:#4B71A1;"/>
<text x="245.500000" y="54.000000" font-family="Arial" font-size="7" text-anchor="middle" fill="#FFFFFF">*</text>
<circle cx="235.500000" cy="42.000000" r="1"/>
<line x1="230.500000" y1="47.000000" x2="233.500000" y2="48.000000"  transform="rotate(0.000000,233.500000,48.000000)" style="stroke: black; stroke-width:0.25;"/>
<line x1="230.500000" y1="49.000000" x2="233.500000" y2="48.000000"  transform="rotate(0.000000,233.500000,48.000000)" style="stroke: black; stroke-width:0.25;"/>
<line x1="230.500000" y1="55.000000" x2="233.500000" y2="56.000000"  transform="rotate(0.000000,233.500000,56.000000)" style="stroke: black; stroke-width:0.25;"/>
<line x1="230.500000" y1="57.000000" x2="233.500000" y2="56.000000"  transform="rotate(0.000000,233.500000,56.000000)" style="stroke: black; stroke-width:0.25;"/>
<rect x="128.850000" y="89.000000" width="25.800000" height="24.000000" rx="0" ry="0" style="stroke:none;fill:#cccccc;"/>
<rect x="127.850000" y="88.000000" width="25.800000" height="24.000000" rx="0" ry="0" style="stroke:none;fill:#f44800;"/>
<text x="140.750000" y="102.000000" font-family="Arial" font-size="7" text-anchor="middle" fill="#FFFFFF">1000</text>
<circle cx="129.850000" cy="90.000000" r="1"/>
<rect x="274.500000" y="57.000000" width="24.000000" height="24.000000" rx="0" ry="0" style="stroke:none;fill:#cccccc;"/>
<rect x="273.500000" y="56.000000" width="24.000000" height="24.000000" rx="0" ry="0" style="stroke:none;fill:#4B71A1;"/>
<text x="285.500000" y="70.000000" font-family="Arial" font-size="7" text-anchor="middle" fill="#FFFFFF">/</text>
<circle cx="275.500000" cy="58.000000" r="1"/>
<line x1="270.500000" y1="63.000000" x2="273.500000" y2="64.000000"  transform="rotate(0.000000,273.500000,64.000000)" style="stroke: black; stroke-width:0.25;"/>
<line x1="270.500000" y1="65.000000" x2="273.500000" y2="64.000000"  transform="rotate(0.000000,273.500000,64.000000)" style="stroke: black; stroke-width:0.25;"/>
<line x1="270.500000" y1="71.000000" x2="273.500000" y2="72.000000"  transform="rotate(0.000000,273.500000,72.000000)" style="stroke: black; stroke-width:0.25;"/>
<line x1="270.500000" y1="73.000000" x2="273.500000" y2="72.000000"  transform="rotate(0.000000,273.500000,72.000000)" style="stroke: black; stroke-width:0.25;"/>
<rect x="306.500000" y="57.000000" width="24.000000" height="24.000000" rx="0" ry="0" style="stroke:none;fill:#cccccc;"/>
<rect x="305.500000" y="56.000000" width="24.000000" height="24.000000" rx="0" ry="0" style="stroke:none;fill:#4B71A1;"/>
<text x="317.500000" y="70.000000" font-family="Arial" font-size="7" text-anchor="middle" fill="#FFFFFF">int</text>
<circle cx="307.500000" cy="58.000000" r="1"/>
<line x1="302.500000" y1="67.000000" x2="305.500000" y2="68.000000"  transform="rotate(0.000000,305.500000,68.000000)" style="stroke: black; stroke-width:0.25;"/>
<line x1="302.500000" y1="69.000000" x2="305.500000" y2="68.000000"  transform="rotate(0.000000,305.500000,68.000000)" style="stroke: black; stroke-width:0.25;"/>
<line x1="15.000000" y1="15.000000" x2="15.000000" y2="121.000000"  style="stroke: black; stroke-linecap:round; stroke-width:0.25; stroke-dasharray:3,3;"/>
<line x1="15.000000" y1="121.000000" x2="346.500000" y2="121.000000"  style="stroke: black; stroke-linecap:round; stroke-width:0.25; stroke-dasharray:3,3;"/>
<line x1="346.500000" y1="121.000000" x2="346.500000" y2="15.000000"  style="stroke: black; stroke-linecap:round; stroke-width:0.25; stroke-dasharray:3,3;"/>
<line x1="15.000000" y1="15.000000" x2="20.000000" y2="15.000000"  style="stroke: black; stroke-linecap:round; stroke-width:0.25; stroke-dasharray:3,3;"/>
<line x1="52.250000" y1="15.000000" x2="346.500000" y2="15.000000"  style="stroke: black; stroke-linecap:round; stroke-width:0.25; stroke-dasharray:3,3;"/>
<text x="20.000000" y="17.000000" font-family="Arial" font-size="7">predelay</text>
<line x1="348.500000" y1="67.000000" x2="351.500000" y2="68.000000"  transform="rotate(0.000000,351.500000,68.000000)" style="stroke: black; stroke-width:0.25;"/>
<line x1="348.500000" y1="69.000000" x2="351.500000" y2="68.000000"  transform="rotate(0.000000,351.500000,68.000000)" style="stroke: black; stroke-width:0.25;"/>
<line x1="132.750000" y1="68.000000" x2="136.750000" y2="68.000000"  style="stroke:black; stroke-linecap:round; stroke-width:0.25;"/>
<line x1="136.750000" y1="68.000000" x2="221.500000" y2="68.000000"  style="stroke:black; stroke-linecap:round; stroke-width:0.25;"/>
<line x1="153.650000" y1="100.000000" x2="157.650000" y2="100.000000"  style="stroke:black; stroke-linecap:round; stroke-width:0.25;"/>
<line x1="157.650000" y1="100.000000" x2="261.500000" y2="100.000000"  style="stroke:black; stroke-linecap:round; stroke-width:0.25;"/>
<line x1="217.500000" y1="36.000000" x2="221.500000" y2="36.000000"  style="stroke:black; stroke-linecap:round; stroke-width:0.25;"/>
<line x1="221.500000" y1="36.000000" x2="229.500000" y2="36.000000"  style="stroke:black; stroke-linecap:round; stroke-width:0.25;"/>
<line x1="221.500000" y1="56.000000" x2="229.500000" y2="56.000000"  style="stroke:black; stroke-linecap:round; stroke-width:0.25;"/>
<line x1="221.500000" y1="68.000000" x2="221.500000" y2="56.000000"  style="stroke:black; stroke-linecap:round; stroke-width:0.25;"/>
<line x1="221.500000" y1="68.000000" x2="221.500000" y2="68.000000"  style="stroke:black; stroke-linecap:round; stroke-width:0.25;"/>
<line x1="229.500000" y1="36.000000" x2="229.500000" y2="48.000000"  style="stroke:black; stroke-linecap:round; stroke-width:0.25;"/>
<line x1="229.500000" y1="48.000000" x2="229.500000" y2="48.000000"  style="stroke:black; stroke-linecap:round; stroke-width:0.25;"/>
<line x1="229.500000" y1="48.000000" x2="233.500000" y2="48.000000"  style="stroke:black; stroke-linecap:round; stroke-width:0.25;"/>
<line x1="229.500000" y1="56.000000" x2="233.500000" y2="56.000000"  style="stroke:black; stroke-linecap:round; stroke-width:0.25;"/>
<line x1="257.500000" y1="52.000000" x2="261.500000" y2="52.000000"  style="stroke:black; stroke-linecap:round; stroke-width:0.25;"/>
<line x1="261.500000" y1="52.000000" x2="269.500000" y2="52.000000"  style="stroke:black; stroke-linecap:round; stroke-width:0.25;"/>
<line x1="261.500000" y1="72.000000" x2="269.500000" y2="72.000000"  style="stroke:black; stroke-linecap:round; stroke-width:0.25;"/>
<line x1="261.500000" y1="100.000000" x2="261.500000" y2="72.000000"  style="stroke:black; stroke-linecap:round; stroke-width:0.25;"/>
<line x1="261.500000" y1="100.000000" x2="261.500000" y2="100.000000"  style="stroke:black; stroke-linecap:round; stroke-width:0.25;"/>
<line x1="269.500000" y1="52.000000" x2="269.500000" y2="64.000000"  style="stroke:black; stroke-linecap:round; stroke-width:0.25;"/>
<line x1="269.500000" y1="64.000000" x2="269.500000" y2="64.000000"  style="stroke:black; stroke-linecap:round; stroke-width:0.25;"/>
<line x1="269.500000" y1="64.000000" x2="273.500000" y2="64.000000"  style="stroke:black; stroke-linecap:round; stroke-width:0.25;"/>
<line x1="269.500000" y1="72.000000" x2="273.500000" y2="72.000000"  style="stroke:black; stroke-linecap:round; stroke-width:0.25;"/>
<line x1="297.500000" y1="68.000000" x2="301.500000" y2="68.000000"  style="stroke:black; stroke-linecap:round; stroke-width:0.25;"/>
<line x1="301.500000" y1="68.000000" x2="301.500000" y2="68.000000"  style="stroke:black; stroke-linecap:round; stroke-width:0.25;"/>
<line x1="301.500000" y1="68.000000" x2="305.500000" y2="68.000000"  style="stroke:black; stroke-linecap:round; stroke-width:0.25;"/>
<line x1="329.500000" y1="68.000000" x2="333.500000" y2="68.000000"  style="stroke:black; stroke-linecap:round; stroke-width:0.25;"/>
<line x1="333.500000" y1="68.000000" x2="333.500000" y2="68.000000"  style="stroke:black; stroke-linecap:round; stroke-width:0.25;"/>
<line x1="333.500000" y1="68.000000" x2="337.500000" y2="68.000000"  style="stroke:black; stroke-linecap:round; stroke-width:0.25;"/>
<line x1="337.500000" y1="68.000000" x2="341.500000" y2="68.000000"  style="stroke:black; stroke-linecap:round; stroke-width:0.25;"/>
<line x1="341.500000" y1="68.000000" x2="351.500000" y2="68.000000"  style="stroke:black; stroke-linecap:round; stroke-width:0.25;"/>
</svg>
