<?xml version="1.0"?>
<svg xmlns="http://www.w3.org/2000/svg" xmlns:xlink="http://www.w3.org/1999/xlink" viewBox="0 0 294.700000 136.000000" width="147.350000mm" height="68.000000mm" version="1.1">
<a xlink:href="tick-8585.svg">
<rect x="1.000000" y="1.000000" width="293.700000" height="135.000000" rx="0" ry="0" style="stroke:none;fill:#cccccc;"/>
<rect x="0.000000" y="0.000000" width="293.700000" height="135.000000" rx="0" ry="0" style="stroke:none;fill:#ffffff;"/>
</a>
<text x="10.000000" y="7.000000" font-family="Arial" font-size="7"></text>
<a xlink:href="tmp-8511.svg">
<rect x="45.000000" y="25.000000" width="24.000000" height="24.000000" rx="0" ry="0" style="stroke:none;fill:#cccccc;"/>
<rect x="44.000000" y="24.000000" width="24.000000" height="24.000000" rx="0" ry="0" style="stroke:none;fill:#003366;"/>
</a>
<a xlink:href="tmp-8511.svg">
<text x="56.000000" y="38.000000" font-family="Arial" font-size="7" text-anchor="middle" fill="#FFFFFF">tmp</text>
</a>
<circle cx="46.000000" cy="26.000000" r="1"/>
<a xlink:href="k1-8496.svg">
<rect x="25.000000" y="57.000000" width="24.000000" height="24.000000" rx="0" ry="0" style="stroke:none;fill:#cccccc;"/>
<rect x="24.000000" y="56.000000" width="24.000000" height="24.000000" rx="0" ry="0" style="stroke:none;fill:#003366;"/>
</a>
<a xlink:href="k1-8496.svg">
<text x="36.000000" y="70.000000" font-family="Arial" font-size="7" text-anchor="middle" fill="#FFFFFF">k1</text>
</a>
<circle cx="26.000000" cy="58.000000" r="1"/>
<a xlink:href="v-8562.svg">
<rect x="25.000000" y="89.000000" width="24.000000" height="24.000000" rx="0" ry="0" style="stroke:none;fill:#cccccc;"/>
<rect x="24.000000" y="88.000000" width="24.000000" height="24.000000" rx="0" ry="0" style="stroke:none;fill:#003366;"/>
</a>
<a xlink:href="v-8562.svg">
<text x="36.000000" y="102.000000" font-family="Arial" font-size="7" text-anchor="middle" fill="#FFFFFF">v_1</text>
</a>
<circle cx="26.000000" cy="90.000000" r="1"/>
<rect x="65.000000" y="73.000000" width="24.000000" height="24.000000" rx="0" ry="0" style="stroke:none;fill:#cccccc;"/>
<rect x="64.000000" y="72.000000" width="24.000000" height="24.000000" rx="0" ry="0" style="stroke:none;fill:#4B71A1;"/>
<text x="76.000000" y="86.000000" font-family="Arial" font-size="7" text-anchor="middle" fill="#FFFFFF">*</text>
<circle cx="66.000000" cy="74.000000" r="1"/>
<line x1="61.000000" y1="79.000000" x2="64.000000" y2="80.000000"  transform="rotate(0.000000,64.000000,80.000000)" style="stroke: black; stroke-width:0.25;"/>
<line x1="61.000000" y1="81.000000" x2="64.000000" y2="80.000000"  transform="rotate(0.000000,64.000000,80.000000)" style="stroke: black; stroke-width:0.25;"/>
<line x1="61.000000" y1="87.000000" x2="64.000000" y2="88.000000"  transform="rotate(0.000000,64.000000,88.000000)" style="stroke: black; stroke-width:0.25;"/>
<line x1="61.000000" y1="89.000000" x2="64.000000" y2="88.000000"  transform="rotate(0.000000,64.000000,88.000000)" style="stroke: black; stroke-width:0.25;"/>
<rect x="105.000000" y="57.000000" width="24.000000" height="24.000000" rx="0" ry="0" style="stroke:none;fill:#cccccc;"/>
<rect x="104.000000" y="56.000000" width="24.000000" height="24.000000" rx="0" ry="0" style="stroke:none;fill:#4B71A1;"/>
<text x="116.000000" y="70.000000" font-family="Arial" font-size="7" text-anchor="middle" fill="#FFFFFF">-</text>
<circle cx="106.000000" cy="58.000000" r="1"/>
<line x1="101.000000" y1="63.000000" x2="104.000000" y2="64.000000"  transform="rotate(0.000000,104.000000,64.000000)" style="stroke: black; stroke-width:0.25;"/>
<line x1="101.000000" y1="65.000000" x2="104.000000" y2="64.000000"  transform="rotate(0.000000,104.000000,64.000000)" style="stroke: black; stroke-width:0.25;"/>
<line x1="101.000000" y1="71.000000" x2="104.000000" y2="72.000000"  transform="rotate(0.000000,104.000000,72.000000)" style="stroke: black; stroke-width:0.25;"/>
<line x1="101.000000" y1="73.000000" x2="104.000000" y2="72.000000"  transform="rotate(0.000000,104.000000,72.000000)" style="stroke: black; stroke-width:0.25;"/>
<rect x="145.000000" y="37.000000" width="24.000000" height="24.000000" rx="0" ry="0" style="stroke:none;fill:#cccccc;"/>
<rect x="144.000000" y="36.000000" width="24.000000" height="24.000000" rx="0" ry="0" style="stroke:none;fill:#f44800;"/>
<text x="156.000000" y="50.000000" font-family="Arial" font-size="7" text-anchor="middle" fill="#FFFFFF">1</text>
<circle cx="146.000000" cy="38.000000" r="1"/>
<rect x="177.000000" y="37.000000" width="24.000000" height="24.000000" rx="0" ry="0" style="stroke:none;fill:#cccccc;"/>
<rect x="176.000000" y="36.000000" width="24.000000" height="24.000000" rx="0" ry="0" style="stroke:none;fill:#4B71A1;"/>
<text x="188.000000" y="50.000000" font-family="Arial" font-size="7" text-anchor="middle" fill="#FFFFFF">mem</text>
<circle cx="178.000000" cy="38.000000" r="1"/>
<line x1="173.000000" y1="47.000000" x2="176.000000" y2="48.000000"  transform="rotate(0.000000,176.000000,48.000000)" style="stroke: black; stroke-width:0.25;"/>
<line x1="173.000000" y1="49.000000" x2="176.000000" y2="48.000000"  transform="rotate(0.000000,176.000000,48.000000)" style="stroke: black; stroke-width:0.25;"/>
<rect x="161.000000" y="69.000000" width="24.000000" height="24.000000" rx="0" ry="0" style="stroke:none;fill:#cccccc;"/>
<rect x="160.000000" y="68.000000" width="24.000000" height="24.000000" rx="0" ry="0" style="stroke:none;fill:#f44800;"/>
<text x="172.000000" y="82.000000" font-family="Arial" font-size="7" text-anchor="middle" fill="#FFFFFF">1</text>
<circle cx="162.000000" cy="70.000000" r="1"/>
<rect x="225.000000" y="57.000000" width="38.700000" height="24.000000" rx="0" ry="0" style="stroke:none;fill:#cccccc;"/>
<rect x="224.000000" y="56.000000" width="38.700000" height="24.000000" rx="0" ry="0" style="stroke:none;fill:#4B71A1;"/>
<text x="243.350000" y="70.000000" font-family="Arial" font-size="7" text-anchor="middle" fill="#FFFFFF">select2</text>
<circle cx="226.000000" cy="58.000000" r="1"/>
<line x1="221.000000" y1="59.000000" x2="224.000000" y2="60.000000"  transform="rotate(0.000000,224.000000,60.000000)" style="stroke: black; stroke-width:0.25;"/>
<line x1="221.000000" y1="61.000000" x2="224.000000" y2="60.000000"  transform="rotate(0.000000,224.000000,60.000000)" style="stroke: black; stroke-width:0.25;"/>
<line x1="221.000000" y1="67.000000" x2="224.000000" y2="68.000000"  transform="rotate(0.000000,224.000000,68.000000)" style="stroke: black; stroke-width:0.25;"/>
<line x1="221.000000" y1="69.000000" x2="224.000000" y2="68.000000"  transform="rotate(0.000000,224.000000,68.000000)" style="stroke: black; stroke-width:0.25;"/>
<line x1="221.000000" y1="75.000000" x2="224.000000" y2="76.000000"  transform="rotate(0.000000,224.000000,76.000000)" style="stroke: black; stroke-width:0.25;"/>
<line x1="221.000000" y1="77.000000" x2="224.000000" y2="76.000000"  transform="rotate(0.000000,224.000000,76.000000)" style="stroke: black; stroke-width:0.25;"/>
<line x1="15.000000" y1="15.000000" x2="15.000000" y2="121.000000"  style="stroke: black; stroke-linecap:round; stroke-width:0.25; stroke-dasharray:3,3;"/>
<line x1="15.000000" y1="121.000000" x2="279.700000" y2="121.000000"  style="stroke: black; stroke-linecap:round; stroke-width:0.25; stroke-dasharray:3,3;"/>
<line x1="279.700000" y1="121.000000" x2="279.700000" y2="15.000000"  style="stroke: black; stroke-linecap:round; stroke-width:0.25; stroke-dasharray:3,3;"/>
<line x1="15.000000" y1="15.000000" x2="20.000000" y2="15.000000"  style="stroke: black; stroke-linecap:round; stroke-width:0.25; stroke-dasharray:3,3;"/>
<line x1="36.125000" y1="15.000000" x2="279.700000" y2="15.000000"  style="stroke: black; stroke-linecap:round; stroke-width:0.25; stroke-dasharray:3,3;"/>
<text x="20.000000" y="17.000000" font-family="Arial" font-size="7">u_1</text>
<line x1="281.700000" y1="67.000000" x2="284.700000" y2="68.000000"  transform="rotate(0.000000,284.700000,68.000000)" style="stroke: black; stroke-width:0.25;"/>
<line x1="281.700000" y1="69.000000" x2="284.700000" y2="68.000000"  transform="rotate(0.000000,284.700000,68.000000)" style="stroke: black; stroke-width:0.25;"/>
<line x1="48.000000" y1="68.000000" x2="52.000000" y2="68.000000"  style="stroke:black; stroke-linecap:round; stroke-width:0.25;"/>
<line x1="48.000000" y1="100.000000" x2="52.000000" y2="100.000000"  style="stroke:black; stroke-linecap:round; stroke-width:0.25;"/>
<line x1="52.000000" y1="68.000000" x2="60.000000" y2="68.000000"  style="stroke:black; stroke-linecap:round; stroke-width:0.25;"/>
<line x1="52.000000" y1="88.000000" x2="60.000000" y2="88.000000"  style="stroke:black; stroke-linecap:round; stroke-width:0.25;"/>
<line x1="52.000000" y1="100.000000" x2="52.000000" y2="88.000000"  style="stroke:black; stroke-linecap:round; stroke-width:0.25;"/>
<line x1="52.000000" y1="100.000000" x2="52.000000" y2="100.000000"  style="stroke:black; stroke-linecap:round; stroke-width:0.25;"/>
<line x1="60.000000" y1="68.000000" x2="60.000000" y2="80.000000"  style="stroke:black; stroke-linecap:round; stroke-width:0.25;"/>
<line x1="60.000000" y1="80.000000" x2="60.000000" y2="80.000000"  style="stroke:black; stroke-linecap:round; stroke-width:0.25;"/>
<line x1="60.000000" y1="80.000000" x2="64.000000" y2="80.000000"  style="stroke:black; stroke-linecap:round; stroke-width:0.25;"/>
<line x1="60.000000" y1="88.000000" x2="64.000000" y2="88.000000"  style="stroke:black; stroke-linecap:round; stroke-width:0.25;"/>
<line x1="68.000000" y1="36.000000" x2="72.000000" y2="36.000000"  style="stroke:black; stroke-linecap:round; stroke-width:0.25;"/>
<line x1="72.000000" y1="36.000000" x2="92.000000" y2="36.000000"  style="stroke:black; stroke-linecap:round; stroke-width:0.25;"/>
<line x1="88.000000" y1="84.000000" x2="92.000000" y2="84.000000"  style="stroke:black; stroke-linecap:round; stroke-width:0.25;"/>
<line x1="92.000000" y1="36.000000" x2="100.000000" y2="36.000000"  style="stroke:black; stroke-linecap:round; stroke-width:0.25;"/>
<line x1="92.000000" y1="72.000000" x2="100.000000" y2="72.000000"  style="stroke:black; stroke-linecap:round; stroke-width:0.25;"/>
<line x1="92.000000" y1="84.000000" x2="92.000000" y2="72.000000"  style="stroke:black; stroke-linecap:round; stroke-width:0.25;"/>
<line x1="92.000000" y1="84.000000" x2="92.000000" y2="84.000000"  style="stroke:black; stroke-linecap:round; stroke-width:0.25;"/>
<line x1="100.000000" y1="36.000000" x2="100.000000" y2="64.000000"  style="stroke:black; stroke-linecap:round; stroke-width:0.25;"/>
<line x1="100.000000" y1="64.000000" x2="100.000000" y2="64.000000"  style="stroke:black; stroke-linecap:round; stroke-width:0.25;"/>
<line x1="100.000000" y1="64.000000" x2="104.000000" y2="64.000000"  style="stroke:black; stroke-linecap:round; stroke-width:0.25;"/>
<line x1="100.000000" y1="72.000000" x2="104.000000" y2="72.000000"  style="stroke:black; stroke-linecap:round; stroke-width:0.25;"/>
<line x1="128.000000" y1="68.000000" x2="132.000000" y2="68.000000"  style="stroke:black; stroke-linecap:round; stroke-width:0.25;"/>
<line x1="132.000000" y1="68.000000" x2="140.000000" y2="68.000000"  style="stroke:black; stroke-linecap:round; stroke-width:0.25;"/>
<line x1="140.000000" y1="68.000000" x2="140.000000" y2="100.000000"  style="stroke:black; stroke-linecap:round; stroke-width:0.25;"/>
<line x1="140.000000" y1="100.000000" x2="140.000000" y2="100.000000"  style="stroke:black; stroke-linecap:round; stroke-width:0.25;"/>
<line x1="140.000000" y1="100.000000" x2="156.000000" y2="100.000000"  style="stroke:black; stroke-linecap:round; stroke-width:0.25;"/>
<line x1="156.000000" y1="100.000000" x2="172.000000" y2="100.000000"  style="stroke:black; stroke-linecap:round; stroke-width:0.25;"/>
<line x1="168.000000" y1="48.000000" x2="172.000000" y2="48.000000"  style="stroke:black; stroke-linecap:round; stroke-width:0.25;"/>
<line x1="172.000000" y1="48.000000" x2="172.000000" y2="48.000000"  style="stroke:black; stroke-linecap:round; stroke-width:0.25;"/>
<line x1="172.000000" y1="48.000000" x2="176.000000" y2="48.000000"  style="stroke:black; stroke-linecap:round; stroke-width:0.25;"/>
<line x1="172.000000" y1="100.000000" x2="188.000000" y2="100.000000"  style="stroke:black; stroke-linecap:round; stroke-width:0.25;"/>
<line x1="184.000000" y1="80.000000" x2="188.000000" y2="80.000000"  style="stroke:black; stroke-linecap:round; stroke-width:0.25;"/>
<line x1="188.000000" y1="80.000000" x2="204.000000" y2="80.000000"  style="stroke:black; stroke-linecap:round; stroke-width:0.25;"/>
<line x1="188.000000" y1="100.000000" x2="204.000000" y2="100.000000"  style="stroke:black; stroke-linecap:round; stroke-width:0.25;"/>
<line x1="200.000000" y1="48.000000" x2="204.000000" y2="48.000000"  style="stroke:black; stroke-linecap:round; stroke-width:0.25;"/>
<line x1="204.000000" y1="48.000000" x2="220.000000" y2="48.000000"  style="stroke:black; stroke-linecap:round; stroke-width:0.25;"/>
<line x1="204.000000" y1="68.000000" x2="220.000000" y2="68.000000"  style="stroke:black; stroke-linecap:round; stroke-width:0.25;"/>
<line x1="204.000000" y1="80.000000" x2="204.000000" y2="68.000000"  style="stroke:black; stroke-linecap:round; stroke-width:0.25;"/>
<line x1="204.000000" y1="80.000000" x2="204.000000" y2="80.000000"  style="stroke:black; stroke-linecap:round; stroke-width:0.25;"/>
<line x1="204.000000" y1="100.000000" x2="212.000000" y2="100.000000"  style="stroke:black; stroke-linecap:round; stroke-width:0.25;"/>
<line x1="212.000000" y1="76.000000" x2="220.000000" y2="76.000000"  style="stroke:black; stroke-linecap:round; stroke-width:0.25;"/>
<line x1="212.000000" y1="100.000000" x2="212.000000" y2="76.000000"  style="stroke:black; stroke-linecap:round; stroke-width:0.25;"/>
<line x1="220.000000" y1="48.000000" x2="220.000000" y2="60.000000"  style="stroke:black; stroke-linecap:round; stroke-width:0.25;"/>
<line x1="220.000000" y1="60.000000" x2="220.000000" y2="60.000000"  style="stroke:black; stroke-linecap:round; stroke-width:0.25;"/>
<line x1="220.000000" y1="60.000000" x2="224.000000" y2="60.000000"  style="stroke:black; stroke-linecap:round; stroke-width:0.25;"/>
<line x1="220.000000" y1="68.000000" x2="224.000000" y2="68.000000"  style="stroke:black; stroke-linecap:round; stroke-width:0.25;"/>
<line x1="220.000000" y1="76.000000" x2="224.000000" y2="76.000000"  style="stroke:black; stroke-linecap:round; stroke-width:0.25;"/>
<line x1="262.700000" y1="68.000000" x2="266.700000" y2="68.000000"  style="stroke:black; stroke-linecap:round; stroke-width:0.25;"/>
<line x1="266.700000" y1="68.000000" x2="266.700000" y2="68.000000"  style="stroke:black; stroke-linecap:round; stroke-width:0.25;"/>
<line x1="266.700000" y1="68.000000" x2="270.700000" y2="68.000000"  style="stroke:black; stroke-linecap:round; stroke-width:0.25;"/>
<line x1="270.700000" y1="68.000000" x2="274.700000" y2="68.000000"  style="stroke:black; stroke-linecap:round; stroke-width:0.25;"/>
<line x1="274.700000" y1="68.000000" x2="284.700000" y2="68.000000"  style="stroke:black; stroke-linecap:round; stroke-width:0.25;"/>
</svg>
