<?xml version="1.0"?>
<svg xmlns="http://www.w3.org/2000/svg" xmlns:xlink="http://www.w3.org/1999/xlink" viewBox="0 0 509.300000 460.000000" width="254.650000mm" height="230.000000mm" version="1.1">
<rect x="1.000000" y="1.000000" width="508.300000" height="459.000000" rx="0" ry="0" style="stroke:none;fill:#cccccc;"/>
<rect x="0.000000" y="0.000000" width="508.300000" height="459.000000" rx="0" ry="0" style="stroke:none;fill:#ffffff;"/>
<text x="10.000000" y="7.000000" font-family="Arial" font-size="7"></text>
<rect x="158.000000" y="199.000000" width="25.800000" height="24.000000" rx="0" ry="0" style="stroke:none;fill:#cccccc;"/>
<rect x="157.000000" y="198.000000" width="25.800000" height="24.000000" rx="0" ry="0" style="stroke:none;fill:#47945E;"/>
<text x="169.900000" y="212.000000" font-family="Arial" font-size="7" text-anchor="middle" fill="#FFFFFF">[1] x</text>
<circle cx="159.000000" cy="200.000000" r="1"/>
<line x1="154.000000" y1="209.000000" x2="157.000000" y2="210.000000"  transform="rotate(0.000000,157.000000,210.000000)" style="stroke: black; stroke-width:0.25;"/>
<line x1="154.000000" y1="211.000000" x2="157.000000" y2="210.000000"  transform="rotate(0.000000,157.000000,210.000000)" style="stroke: black; stroke-width:0.25;"/>
<rect x="273.800000" y="35.000000" width="25.800000" height="24.000000" rx="0" ry="0" style="stroke:none;fill:#cccccc;"/>
<rect x="272.800000" y="34.000000" width="25.800000" height="24.000000" rx="0" ry="0" style="stroke:none;fill:#f44800;"/>
<text x="285.700000" y="48.000000" font-family="Arial" font-size="7" text-anchor="middle" fill="#FFFFFF">1024</text>
<circle cx="274.800000" cy="36.000000" r="1"/>
<rect x="273.800000" y="67.000000" width="25.800000" height="24.000000" rx="0" ry="0" style="stroke:none;fill:#cccccc;"/>
<rect x="272.800000" y="66.000000" width="25.800000" height="24.000000" rx="0" ry="0" style="stroke:none;fill:#f44800;"/>
<text x="285.700000" y="80.000000" font-family="Arial" font-size="7" text-anchor="middle" fill="#FFFFFF">0.0f</text>
<circle cx="274.800000" cy="68.000000" r="1"/>
<rect x="253.800000" y="157.000000" width="25.800000" height="24.000000" rx="0" ry="0" style="stroke:none;fill:#cccccc;"/>
<rect x="252.800000" y="156.000000" width="25.800000" height="24.000000" rx="0" ry="0" style="stroke:none;fill:#f44800;"/>
<text x="265.700000" y="170.000000" font-family="Arial" font-size="7" text-anchor="middle" fill="#FFFFFF">1023</text>
<circle cx="254.800000" cy="158.000000" r="1"/>
<rect x="295.600000" y="153.000000" width="24.000000" height="24.000000" rx="0" ry="0" style="stroke:none;fill:#cccccc;"/>
<rect x="294.600000" y="152.000000" width="24.000000" height="24.000000" rx="0" ry="0" style="stroke:none;fill:#4B71A1;"/>
<text x="306.600000" y="166.000000" font-family="Arial" font-size="7" text-anchor="middle" fill="#FFFFFF">&amp;</text>
<circle cx="296.600000" cy="154.000000" r="1"/>
<line x1="291.600000" y1="159.000000" x2="294.600000" y2="160.000000"  transform="rotate(0.000000,294.600000,160.000000)" style="stroke: black; stroke-width:0.25;"/>
<line x1="291.600000" y1="161.000000" x2="294.600000" y2="160.000000"  transform="rotate(0.000000,294.600000,160.000000)" style="stroke: black; stroke-width:0.25;"/>
<line x1="291.600000" y1="167.000000" x2="294.600000" y2="168.000000"  transform="rotate(0.000000,294.600000,168.000000)" style="stroke: black; stroke-width:0.25;"/>
<line x1="291.600000" y1="169.000000" x2="294.600000" y2="168.000000"  transform="rotate(0.000000,294.600000,168.000000)" style="stroke: black; stroke-width:0.25;"/>
<rect x="294.700000" y="109.000000" width="24.000000" height="24.000000" rx="0" ry="0" style="stroke:none;fill:#cccccc;"/>
<rect x="293.700000" y="108.000000" width="24.000000" height="24.000000" rx="0" ry="0" style="stroke:none;fill:#f44800;"/>
<text x="305.700000" y="122.000000" font-family="Arial" font-size="7" text-anchor="middle" fill="#FFFFFF">1</text>
<circle cx="315.700000" cy="130.000000" r="1"/>
<rect x="254.700000" y="113.000000" width="24.000000" height="24.000000" rx="0" ry="0" style="stroke:none;fill:#cccccc;"/>
<rect x="253.700000" y="112.000000" width="24.000000" height="24.000000" rx="0" ry="0" style="stroke:none;fill:#4B71A1;"/>
<text x="265.700000" y="126.000000" font-family="Arial" font-size="7" text-anchor="middle" fill="#FFFFFF">+</text>
<circle cx="275.700000" cy="134.000000" r="1"/>
<line x1="280.700000" y1="127.000000" x2="277.700000" y2="128.000000"  transform="rotate(0.000000,277.700000,128.000000)" style="stroke: black; stroke-width:0.25;"/>
<line x1="280.700000" y1="129.000000" x2="277.700000" y2="128.000000"  transform="rotate(0.000000,277.700000,128.000000)" style="stroke: black; stroke-width:0.25;"/>
<line x1="280.700000" y1="119.000000" x2="277.700000" y2="120.000000"  transform="rotate(0.000000,277.700000,120.000000)" style="stroke: black; stroke-width:0.25;"/>
<line x1="280.700000" y1="121.000000" x2="277.700000" y2="120.000000"  transform="rotate(0.000000,277.700000,120.000000)" style="stroke: black; stroke-width:0.25;"/>
<line x1="320.600000" y1="164.000000" x2="320.600000" y2="160.000000"  style="stroke:black; stroke-linecap:round; stroke-width:0.25;"/>
<line x1="320.600000" y1="160.000000" x2="324.600000" y2="160.000000"  style="stroke:black; stroke-linecap:round; stroke-width:0.25;"/>
<line x1="324.600000" y1="160.000000" x2="324.600000" y2="164.000000"  style="stroke:black; stroke-linecap:round; stroke-width:0.25;"/>
<line x1="235.800000" y1="99.000000" x2="235.800000" y2="189.000000"  style="stroke: black; stroke-linecap:round; stroke-width:0.25; stroke-dasharray:3,3;"/>
<line x1="235.800000" y1="189.000000" x2="335.600000" y2="189.000000"  style="stroke: black; stroke-linecap:round; stroke-width:0.25; stroke-dasharray:3,3;"/>
<line x1="335.600000" y1="189.000000" x2="335.600000" y2="99.000000"  style="stroke: black; stroke-linecap:round; stroke-width:0.25; stroke-dasharray:3,3;"/>
<line x1="235.800000" y1="99.000000" x2="240.800000" y2="99.000000"  style="stroke: black; stroke-linecap:round; stroke-width:0.25; stroke-dasharray:3,3;"/>
<line x1="282.725000" y1="99.000000" x2="335.600000" y2="99.000000"  style="stroke: black; stroke-linecap:round; stroke-width:0.25; stroke-dasharray:3,3;"/>
<text x="240.800000" y="101.000000" font-family="Arial" font-size="7">index(1024)</text>
<rect x="273.800000" y="199.000000" width="25.800000" height="24.000000" rx="0" ry="0" style="stroke:none;fill:#cccccc;"/>
<rect x="272.800000" y="198.000000" width="25.800000" height="24.000000" rx="0" ry="0" style="stroke:none;fill:#47945E;"/>
<text x="285.700000" y="212.000000" font-family="Arial" font-size="7" text-anchor="middle" fill="#FFFFFF">[1] x</text>
<circle cx="274.800000" cy="200.000000" r="1"/>
<rect x="209.800000" y="289.000000" width="25.800000" height="24.000000" rx="0" ry="0" style="stroke:none;fill:#cccccc;"/>
<rect x="208.800000" y="288.000000" width="25.800000" height="24.000000" rx="0" ry="0" style="stroke:none;fill:#f44800;"/>
<text x="221.700000" y="302.000000" font-family="Arial" font-size="7" text-anchor="middle" fill="#FFFFFF">1023</text>
<circle cx="210.800000" cy="290.000000" r="1"/>
<rect x="251.600000" y="285.000000" width="24.000000" height="24.000000" rx="0" ry="0" style="stroke:none;fill:#cccccc;"/>
<rect x="250.600000" y="284.000000" width="24.000000" height="24.000000" rx="0" ry="0" style="stroke:none;fill:#4B71A1;"/>
<text x="262.600000" y="298.000000" font-family="Arial" font-size="7" text-anchor="middle" fill="#FFFFFF">&amp;</text>
<circle cx="252.600000" cy="286.000000" r="1"/>
<line x1="247.600000" y1="291.000000" x2="250.600000" y2="292.000000"  transform="rotate(0.000000,250.600000,292.000000)" style="stroke: black; stroke-width:0.25;"/>
<line x1="247.600000" y1="293.000000" x2="250.600000" y2="292.000000"  transform="rotate(0.000000,250.600000,292.000000)" style="stroke: black; stroke-width:0.25;"/>
<line x1="247.600000" y1="299.000000" x2="250.600000" y2="300.000000"  transform="rotate(0.000000,250.600000,300.000000)" style="stroke: black; stroke-width:0.25;"/>
<line x1="247.600000" y1="301.000000" x2="250.600000" y2="300.000000"  transform="rotate(0.000000,250.600000,300.000000)" style="stroke: black; stroke-width:0.25;"/>
<rect x="250.700000" y="241.000000" width="24.000000" height="24.000000" rx="0" ry="0" style="stroke:none;fill:#cccccc;"/>
<rect x="249.700000" y="240.000000" width="24.000000" height="24.000000" rx="0" ry="0" style="stroke:none;fill:#f44800;"/>
<text x="261.700000" y="254.000000" font-family="Arial" font-size="7" text-anchor="middle" fill="#FFFFFF">1</text>
<circle cx="271.700000" cy="262.000000" r="1"/>
<rect x="210.700000" y="245.000000" width="24.000000" height="24.000000" rx="0" ry="0" style="stroke:none;fill:#cccccc;"/>
<rect x="209.700000" y="244.000000" width="24.000000" height="24.000000" rx="0" ry="0" style="stroke:none;fill:#4B71A1;"/>
<text x="221.700000" y="258.000000" font-family="Arial" font-size="7" text-anchor="middle" fill="#FFFFFF">+</text>
<circle cx="231.700000" cy="266.000000" r="1"/>
<line x1="236.700000" y1="259.000000" x2="233.700000" y2="260.000000"  transform="rotate(0.000000,233.700000,260.000000)" style="stroke: black; stroke-width:0.25;"/>
<line x1="236.700000" y1="261.000000" x2="233.700000" y2="260.000000"  transform="rotate(0.000000,233.700000,260.000000)" style="stroke: black; stroke-width:0.25;"/>
<line x1="236.700000" y1="251.000000" x2="233.700000" y2="252.000000"  transform="rotate(0.000000,233.700000,252.000000)" style="stroke: black; stroke-width:0.25;"/>
<line x1="236.700000" y1="253.000000" x2="233.700000" y2="252.000000"  transform="rotate(0.000000,233.700000,252.000000)" style="stroke: black; stroke-width:0.25;"/>
<line x1="276.600000" y1="296.000000" x2="276.600000" y2="292.000000"  style="stroke:black; stroke-linecap:round; stroke-width:0.25;"/>
<line x1="276.600000" y1="292.000000" x2="280.600000" y2="292.000000"  style="stroke:black; stroke-linecap:round; stroke-width:0.25;"/>
<line x1="280.600000" y1="292.000000" x2="280.600000" y2="296.000000"  style="stroke:black; stroke-linecap:round; stroke-width:0.25;"/>
<line x1="191.800000" y1="231.000000" x2="191.800000" y2="321.000000"  style="stroke: black; stroke-linecap:round; stroke-width:0.25; stroke-dasharray:3,3;"/>
<line x1="191.800000" y1="321.000000" x2="291.600000" y2="321.000000"  style="stroke: black; stroke-linecap:round; stroke-width:0.25; stroke-dasharray:3,3;"/>
<line x1="291.600000" y1="321.000000" x2="291.600000" y2="231.000000"  style="stroke: black; stroke-linecap:round; stroke-width:0.25; stroke-dasharray:3,3;"/>
<line x1="191.800000" y1="231.000000" x2="196.800000" y2="231.000000"  style="stroke: black; stroke-linecap:round; stroke-width:0.25; stroke-dasharray:3,3;"/>
<line x1="238.725000" y1="231.000000" x2="291.600000" y2="231.000000"  style="stroke: black; stroke-linecap:round; stroke-width:0.25; stroke-dasharray:3,3;"/>
<text x="196.800000" y="233.000000" font-family="Arial" font-size="7">index(1024)</text>
<rect x="214.700000" y="331.000000" width="24.000000" height="24.000000" rx="0" ry="0" style="stroke:none;fill:#cccccc;"/>
<rect x="213.700000" y="330.000000" width="24.000000" height="24.000000" rx="0" ry="0" style="stroke:none;fill:#f44800;"/>
<text x="225.700000" y="344.000000" font-family="Arial" font-size="7" text-anchor="middle" fill="#FFFFFF">100</text>
<circle cx="215.700000" cy="332.000000" r="1"/>
<rect x="246.700000" y="331.000000" width="24.000000" height="24.000000" rx="0" ry="0" style="stroke:none;fill:#cccccc;"/>
<rect x="245.700000" y="330.000000" width="24.000000" height="24.000000" rx="0" ry="0" style="stroke:none;fill:#4B71A1;"/>
<text x="257.700000" y="344.000000" font-family="Arial" font-size="7" text-anchor="middle" fill="#FFFFFF">int</text>
<circle cx="247.700000" cy="332.000000" r="1"/>
<line x1="242.700000" y1="341.000000" x2="245.700000" y2="342.000000"  transform="rotate(0.000000,245.700000,342.000000)" style="stroke: black; stroke-width:0.25;"/>
<line x1="242.700000" y1="343.000000" x2="245.700000" y2="342.000000"  transform="rotate(0.000000,245.700000,342.000000)" style="stroke: black; stroke-width:0.25;"/>
<rect x="317.600000" y="281.000000" width="24.000000" height="24.000000" rx="0" ry="0" style="stroke:none;fill:#cccccc;"/>
<rect x="316.600000" y="280.000000" width="24.000000" height="24.000000" rx="0" ry="0" style="stroke:none;fill:#4B71A1;"/>
<text x="328.600000" y="294.000000" font-family="Arial" font-size="7" text-anchor="middle" fill="#FFFFFF">-</text>
<circle cx="318.600000" cy="282.000000" r="1"/>
<line x1="313.600000" y1="287.000000" x2="316.600000" y2="288.000000"  transform="rotate(0.000000,316.600000,288.000000)" style="stroke: black; stroke-width:0.25;"/>
<line x1="313.600000" y1="289.000000" x2="316.600000" y2="288.000000"  transform="rotate(0.000000,316.600000,288.000000)" style="stroke: black; stroke-width:0.25;"/>
<line x1="313.600000" y1="295.000000" x2="316.600000" y2="296.000000"  transform="rotate(0.000000,316.600000,296.000000)" style="stroke: black; stroke-width:0.25;"/>
<line x1="313.600000" y1="297.000000" x2="316.600000" y2="296.000000"  transform="rotate(0.000000,316.600000,296.000000)" style="stroke: black; stroke-width:0.25;"/>
<rect x="253.800000" y="363.000000" width="25.800000" height="24.000000" rx="0" ry="0" style="stroke:none;fill:#cccccc;"/>
<rect x="252.800000" y="362.000000" width="25.800000" height="24.000000" rx="0" ry="0" style="stroke:none;fill:#f44800;"/>
<text x="265.700000" y="376.000000" font-family="Arial" font-size="7" text-anchor="middle" fill="#FFFFFF">1023</text>
<circle cx="254.800000" cy="364.000000" r="1"/>
<rect x="357.600000" y="297.000000" width="24.000000" height="24.000000" rx="0" ry="0" style="stroke:none;fill:#cccccc;"/>
<rect x="356.600000" y="296.000000" width="24.000000" height="24.000000" rx="0" ry="0" style="stroke:none;fill:#4B71A1;"/>
<text x="368.600000" y="310.000000" font-family="Arial" font-size="7" text-anchor="middle" fill="#FFFFFF">&amp;</text>
<circle cx="358.600000" cy="298.000000" r="1"/>
<line x1="353.600000" y1="303.000000" x2="356.600000" y2="304.000000"  transform="rotate(0.000000,356.600000,304.000000)" style="stroke: black; stroke-width:0.25;"/>
<line x1="353.600000" y1="305.000000" x2="356.600000" y2="304.000000"  transform="rotate(0.000000,356.600000,304.000000)" style="stroke: black; stroke-width:0.25;"/>
<line x1="353.600000" y1="311.000000" x2="356.600000" y2="312.000000"  transform="rotate(0.000000,356.600000,312.000000)" style="stroke: black; stroke-width:0.25;"/>
<line x1="353.600000" y1="313.000000" x2="356.600000" y2="312.000000"  transform="rotate(0.000000,356.600000,312.000000)" style="stroke: black; stroke-width:0.25;"/>
<rect x="421.600000" y="191.000000" width="38.700000" height="40.000000" rx="0" ry="0" style="stroke:none;fill:#cccccc;"/>
<rect x="420.600000" y="190.000000" width="38.700000" height="40.000000" rx="0" ry="0" style="stroke:none;fill:#4B71A1;"/>
<text x="439.950000" y="212.000000" font-family="Arial" font-size="7" text-anchor="middle" fill="#FFFFFF">rwtable</text>
<circle cx="422.600000" cy="192.000000" r="1"/>
<line x1="417.600000" y1="193.000000" x2="420.600000" y2="194.000000"  transform="rotate(0.000000,420.600000,194.000000)" style="stroke: black; stroke-width:0.25;"/>
<line x1="417.600000" y1="195.000000" x2="420.600000" y2="194.000000"  transform="rotate(0.000000,420.600000,194.000000)" style="stroke: black; stroke-width:0.25;"/>
<line x1="417.600000" y1="201.000000" x2="420.600000" y2="202.000000"  transform="rotate(0.000000,420.600000,202.000000)" style="stroke: black; stroke-width:0.25;"/>
<line x1="417.600000" y1="203.000000" x2="420.600000" y2="202.000000"  transform="rotate(0.000000,420.600000,202.000000)" style="stroke: black; stroke-width:0.25;"/>
<line x1="417.600000" y1="209.000000" x2="420.600000" y2="210.000000"  transform="rotate(0.000000,420.600000,210.000000)" style="stroke: black; stroke-width:0.25;"/>
<line x1="417.600000" y1="211.000000" x2="420.600000" y2="210.000000"  transform="rotate(0.000000,420.600000,210.000000)" style="stroke: black; stroke-width:0.25;"/>
<line x1="417.600000" y1="217.000000" x2="420.600000" y2="218.000000"  transform="rotate(0.000000,420.600000,218.000000)" style="stroke: black; stroke-width:0.25;"/>
<line x1="417.600000" y1="219.000000" x2="420.600000" y2="218.000000"  transform="rotate(0.000000,420.600000,218.000000)" style="stroke: black; stroke-width:0.25;"/>
<line x1="417.600000" y1="225.000000" x2="420.600000" y2="226.000000"  transform="rotate(0.000000,420.600000,226.000000)" style="stroke: black; stroke-width:0.25;"/>
<line x1="417.600000" y1="227.000000" x2="420.600000" y2="226.000000"  transform="rotate(0.000000,420.600000,226.000000)" style="stroke: black; stroke-width:0.25;"/>
<line x1="148.000000" y1="25.000000" x2="148.000000" y2="395.000000"  style="stroke: black; stroke-linecap:round; stroke-width:0.25; stroke-dasharray:3,3;"/>
<line x1="148.000000" y1="395.000000" x2="468.300000" y2="395.000000"  style="stroke: black; stroke-linecap:round; stroke-width:0.25; stroke-dasharray:3,3;"/>
<line x1="468.300000" y1="395.000000" x2="468.300000" y2="25.000000"  style="stroke: black; stroke-linecap:round; stroke-width:0.25; stroke-dasharray:3,3;"/>
<line x1="148.000000" y1="25.000000" x2="153.000000" y2="25.000000"  style="stroke: black; stroke-linecap:round; stroke-width:0.25; stroke-dasharray:3,3;"/>
<line x1="211.050000" y1="25.000000" x2="468.300000" y2="25.000000"  style="stroke: black; stroke-linecap:round; stroke-width:0.25; stroke-dasharray:3,3;"/>
<text x="153.000000" y="27.000000" font-family="Arial" font-size="7">delay(1024)(100)</text>
<rect x="277.150000" y="413.000000" width="24.000000" height="24.000000" rx="0" ry="0" style="stroke:none;fill:#cccccc;"/>
<rect x="276.150000" y="412.000000" width="24.000000" height="24.000000" rx="0" ry="0" style="stroke:none;fill:#f44800;"/>
<text x="288.150000" y="426.000000" font-family="Arial" font-size="7" text-anchor="middle" fill="#FFFFFF">100</text>
<circle cx="278.150000" cy="414.000000" r="1"/>
<rect x="317.150000" y="409.000000" width="24.000000" height="24.000000" rx="0" ry="0" style="stroke:none;fill:#cccccc;"/>
<rect x="316.150000" y="408.000000" width="24.000000" height="24.000000" rx="0" ry="0" style="stroke:none;fill:#4B71A1;"/>
<text x="328.150000" y="422.000000" font-family="Arial" font-size="7" text-anchor="middle" fill="#FFFFFF">@</text>
<circle cx="318.150000" cy="410.000000" r="1"/>
<line x1="313.150000" y1="415.000000" x2="316.150000" y2="416.000000"  transform="rotate(0.000000,316.150000,416.000000)" style="stroke: black; stroke-width:0.25;"/>
<line x1="313.150000" y1="417.000000" x2="316.150000" y2="416.000000"  transform="rotate(0.000000,316.150000,416.000000)" style="stroke: black; stroke-width:0.25;"/>
<line x1="313.150000" y1="423.000000" x2="316.150000" y2="424.000000"  transform="rotate(0.000000,316.150000,424.000000)" style="stroke: black; stroke-width:0.25;"/>
<line x1="313.150000" y1="425.000000" x2="316.150000" y2="424.000000"  transform="rotate(0.000000,316.150000,424.000000)" style="stroke: black; stroke-width:0.25;"/>
<line x1="15.000000" y1="15.000000" x2="15.000000" y2="445.000000"  style="stroke: black; stroke-linecap:round; stroke-width:0.25; stroke-dasharray:3,3;"/>
<line x1="15.000000" y1="445.000000" x2="494.300000" y2="445.000000"  style="stroke: black; stroke-linecap:round; stroke-width:0.25; stroke-dasharray:3,3;"/>
<line x1="494.300000" y1="445.000000" x2="494.300000" y2="15.000000"  style="stroke: black; stroke-linecap:round; stroke-width:0.25; stroke-dasharray:3,3;"/>
<line x1="15.000000" y1="15.000000" x2="20.000000" y2="15.000000"  style="stroke: black; stroke-linecap:round; stroke-width:0.25; stroke-dasharray:3,3;"/>
<line x1="49.025000" y1="15.000000" x2="494.300000" y2="15.000000"  style="stroke: black; stroke-linecap:round; stroke-width:0.25; stroke-dasharray:3,3;"/>
<text x="20.000000" y="17.000000" font-family="Arial" font-size="7">process</text>
<line x1="496.300000" y1="225.000000" x2="499.300000" y2="226.000000"  transform="rotate(0.000000,499.300000,226.000000)" style="stroke: black; stroke-width:0.25;"/>
<line x1="496.300000" y1="227.000000" x2="499.300000" y2="226.000000"  transform="rotate(0.000000,499.300000,226.000000)" style="stroke: black; stroke-width:0.25;"/>
<line x1="496.300000" y1="233.000000" x2="499.300000" y2="234.000000"  transform="rotate(0.000000,499.300000,234.000000)" style="stroke: black; stroke-width:0.25;"/>
<line x1="496.300000" y1="235.000000" x2="499.300000" y2="234.000000"  transform="rotate(0.000000,499.300000,234.000000)" style="stroke: black; stroke-width:0.25;"/>
<line x1="10.000000" y1="230.000000" x2="20.000000" y2="230.000000"  style="stroke:black; stroke-linecap:round; stroke-width:0.25;"/>
<line x1="20.000000" y1="230.000000" x2="24.000000" y2="230.000000"  style="stroke:black; stroke-linecap:round; stroke-width:0.25;"/>
<line x1="24.000000" y1="230.000000" x2="28.000000" y2="230.000000"  style="stroke:black; stroke-linecap:round; stroke-width:0.25;"/>
<line x1="28.000000" y1="230.000000" x2="28.000000" y2="230.000000"  style="stroke:black; stroke-linecap:round; stroke-width:0.25;"/>
<line x1="28.000000" y1="230.000000" x2="32.000000" y2="230.000000"  style="stroke:black; stroke-linecap:round; stroke-width:0.25;"/>
<line x1="32.000000" y1="230.000000" x2="36.000000" y2="230.000000"  style="stroke:black; stroke-linecap:round; stroke-width:0.25;"/>
<line x1="36.000000" y1="230.000000" x2="143.000000" y2="404.000000"  style="stroke:black; stroke-linecap:round; stroke-width:0.25;"/>
<line x1="36.000000" y1="230.000000" x2="143.000000" y2="210.000000"  style="stroke:black; stroke-linecap:round; stroke-width:0.25;"/>
<line x1="143.000000" y1="404.000000" x2="272.150000" y2="404.000000"  style="stroke:black; stroke-linecap:round; stroke-width:0.25;"/>
<line x1="143.000000" y1="210.000000" x2="153.000000" y2="210.000000"  style="stroke:black; stroke-linecap:round; stroke-width:0.25;"/>
<line x1="153.000000" y1="210.000000" x2="157.000000" y2="210.000000"  style="stroke:black; stroke-linecap:round; stroke-width:0.25;"/>
<line x1="204.800000" y1="256.000000" x2="204.800000" y2="256.000000"  style="stroke:black; stroke-linecap:round; stroke-width:0.25;"/>
<line x1="204.800000" y1="256.000000" x2="204.800000" y2="280.000000"  style="stroke:black; stroke-linecap:round; stroke-width:0.25;"/>
<line x1="204.800000" y1="280.000000" x2="204.800000" y2="280.000000"  style="stroke:black; stroke-linecap:round; stroke-width:0.25;"/>
<line x1="204.800000" y1="280.000000" x2="221.700000" y2="280.000000"  style="stroke:black; stroke-linecap:round; stroke-width:0.25;"/>
<line x1="205.700000" y1="256.000000" x2="204.800000" y2="256.000000"  style="stroke:black; stroke-linecap:round; stroke-width:0.25;"/>
<line x1="209.700000" y1="256.000000" x2="205.700000" y2="256.000000"  style="stroke:black; stroke-linecap:round; stroke-width:0.25;"/>
<line x1="221.700000" y1="280.000000" x2="238.600000" y2="280.000000"  style="stroke:black; stroke-linecap:round; stroke-width:0.25;"/>
<line x1="234.600000" y1="300.000000" x2="238.600000" y2="300.000000"  style="stroke:black; stroke-linecap:round; stroke-width:0.25;"/>
<line x1="237.700000" y1="252.000000" x2="233.700000" y2="252.000000"  style="stroke:black; stroke-linecap:round; stroke-width:0.25;"/>
<line x1="237.700000" y1="260.000000" x2="233.700000" y2="260.000000"  style="stroke:black; stroke-linecap:round; stroke-width:0.25;"/>
<line x1="237.700000" y1="342.000000" x2="241.700000" y2="342.000000"  style="stroke:black; stroke-linecap:round; stroke-width:0.25;"/>
<line x1="237.700000" y1="260.000000" x2="237.700000" y2="260.000000"  style="stroke:black; stroke-linecap:round; stroke-width:0.25;"/>
<line x1="237.700000" y1="272.000000" x2="237.700000" y2="260.000000"  style="stroke:black; stroke-linecap:round; stroke-width:0.25;"/>
<line x1="238.600000" y1="280.000000" x2="246.600000" y2="280.000000"  style="stroke:black; stroke-linecap:round; stroke-width:0.25;"/>
<line x1="238.600000" y1="300.000000" x2="246.600000" y2="300.000000"  style="stroke:black; stroke-linecap:round; stroke-width:0.25;"/>
<line x1="241.700000" y1="342.000000" x2="241.700000" y2="342.000000"  style="stroke:black; stroke-linecap:round; stroke-width:0.25;"/>
<line x1="241.700000" y1="342.000000" x2="245.700000" y2="342.000000"  style="stroke:black; stroke-linecap:round; stroke-width:0.25;"/>
<line x1="245.700000" y1="252.000000" x2="237.700000" y2="252.000000"  style="stroke:black; stroke-linecap:round; stroke-width:0.25;"/>
<line x1="245.700000" y1="272.000000" x2="237.700000" y2="272.000000"  style="stroke:black; stroke-linecap:round; stroke-width:0.25;"/>
<line x1="246.600000" y1="280.000000" x2="246.600000" y2="292.000000"  style="stroke:black; stroke-linecap:round; stroke-width:0.25;"/>
<line x1="246.600000" y1="292.000000" x2="246.600000" y2="292.000000"  style="stroke:black; stroke-linecap:round; stroke-width:0.25;"/>
<line x1="246.600000" y1="292.000000" x2="250.600000" y2="292.000000"  style="stroke:black; stroke-linecap:round; stroke-width:0.25;"/>
<line x1="246.600000" y1="300.000000" x2="250.600000" y2="300.000000"  style="stroke:black; stroke-linecap:round; stroke-width:0.25;"/>
<line x1="248.800000" y1="148.000000" x2="265.700000" y2="148.000000"  style="stroke:black; stroke-linecap:round; stroke-width:0.25;"/>
<line x1="248.800000" y1="124.000000" x2="248.800000" y2="124.000000"  style="stroke:black; stroke-linecap:round; stroke-width:0.25;"/>
<line x1="248.800000" y1="124.000000" x2="248.800000" y2="148.000000"  style="stroke:black; stroke-linecap:round; stroke-width:0.25;"/>
<line x1="248.800000" y1="148.000000" x2="248.800000" y2="148.000000"  style="stroke:black; stroke-linecap:round; stroke-width:0.25;"/>
<line x1="249.700000" y1="124.000000" x2="248.800000" y2="124.000000"  style="stroke:black; stroke-linecap:round; stroke-width:0.25;"/>
<line x1="249.700000" y1="252.000000" x2="245.700000" y2="252.000000"  style="stroke:black; stroke-linecap:round; stroke-width:0.25;"/>
<line x1="253.700000" y1="124.000000" x2="249.700000" y2="124.000000"  style="stroke:black; stroke-linecap:round; stroke-width:0.25;"/>
<line x1="261.700000" y1="272.000000" x2="245.700000" y2="272.000000"  style="stroke:black; stroke-linecap:round; stroke-width:0.25;"/>
<line x1="265.700000" y1="148.000000" x2="282.600000" y2="148.000000"  style="stroke:black; stroke-linecap:round; stroke-width:0.25;"/>
<line x1="269.700000" y1="342.000000" x2="273.700000" y2="342.000000"  style="stroke:black; stroke-linecap:round; stroke-width:0.25;"/>
<line x1="272.150000" y1="404.000000" x2="288.150000" y2="404.000000"  style="stroke:black; stroke-linecap:round; stroke-width:0.25;"/>
<line x1="273.700000" y1="342.000000" x2="296.600000" y2="342.000000"  style="stroke:black; stroke-linecap:round; stroke-width:0.25;"/>
<line x1="274.600000" y1="296.000000" x2="278.600000" y2="296.000000"  style="stroke:black; stroke-linecap:round; stroke-width:0.25;"/>
<line x1="277.700000" y1="272.000000" x2="261.700000" y2="272.000000"  style="stroke:black; stroke-linecap:round; stroke-width:0.25;"/>
<line x1="278.600000" y1="168.000000" x2="282.600000" y2="168.000000"  style="stroke:black; stroke-linecap:round; stroke-width:0.25;"/>
<line x1="278.600000" y1="272.000000" x2="277.700000" y2="272.000000"  style="stroke:black; stroke-linecap:round; stroke-width:0.25;"/>
<line x1="278.600000" y1="272.000000" x2="278.600000" y2="272.000000"  style="stroke:black; stroke-linecap:round; stroke-width:0.25;"/>
<line x1="278.600000" y1="292.000000" x2="278.600000" y2="272.000000"  style="stroke:black; stroke-linecap:round; stroke-width:0.25;"/>
<line x1="278.600000" y1="296.000000" x2="280.600000" y2="296.000000"  style="stroke:black; stroke-linecap:round; stroke-width:0.25;"/>
<line x1="278.600000" y1="374.000000" x2="282.600000" y2="374.000000"  style="stroke:black; stroke-linecap:round; stroke-width:0.25;"/>
<line x1="280.600000" y1="296.000000" x2="286.600000" y2="296.000000"  style="stroke:black; stroke-linecap:round; stroke-width:0.25;"/>
<line x1="281.700000" y1="120.000000" x2="277.700000" y2="120.000000"  style="stroke:black; stroke-linecap:round; stroke-width:0.25;"/>
<line x1="281.700000" y1="128.000000" x2="277.700000" y2="128.000000"  style="stroke:black; stroke-linecap:round; stroke-width:0.25;"/>
<line x1="281.700000" y1="128.000000" x2="281.700000" y2="128.000000"  style="stroke:black; stroke-linecap:round; stroke-width:0.25;"/>
<line x1="281.700000" y1="140.000000" x2="281.700000" y2="128.000000"  style="stroke:black; stroke-linecap:round; stroke-width:0.25;"/>
<line x1="282.600000" y1="148.000000" x2="290.600000" y2="148.000000"  style="stroke:black; stroke-linecap:round; stroke-width:0.25;"/>
<line x1="282.600000" y1="168.000000" x2="290.600000" y2="168.000000"  style="stroke:black; stroke-linecap:round; stroke-width:0.25;"/>
<line x1="282.600000" y1="374.000000" x2="344.600000" y2="374.000000"  style="stroke:black; stroke-linecap:round; stroke-width:0.25;"/>
<line x1="286.600000" y1="296.000000" x2="296.600000" y2="296.000000"  style="stroke:black; stroke-linecap:round; stroke-width:0.25;"/>
<line x1="288.150000" y1="404.000000" x2="304.150000" y2="404.000000"  style="stroke:black; stroke-linecap:round; stroke-width:0.25;"/>
<line x1="289.700000" y1="120.000000" x2="281.700000" y2="120.000000"  style="stroke:black; stroke-linecap:round; stroke-width:0.25;"/>
<line x1="289.700000" y1="140.000000" x2="281.700000" y2="140.000000"  style="stroke:black; stroke-linecap:round; stroke-width:0.25;"/>
<line x1="290.600000" y1="148.000000" x2="290.600000" y2="160.000000"  style="stroke:black; stroke-linecap:round; stroke-width:0.25;"/>
<line x1="290.600000" y1="160.000000" x2="290.600000" y2="160.000000"  style="stroke:black; stroke-linecap:round; stroke-width:0.25;"/>
<line x1="290.600000" y1="160.000000" x2="294.600000" y2="160.000000"  style="stroke:black; stroke-linecap:round; stroke-width:0.25;"/>
<line x1="290.600000" y1="168.000000" x2="294.600000" y2="168.000000"  style="stroke:black; stroke-linecap:round; stroke-width:0.25;"/>
<line x1="293.700000" y1="120.000000" x2="289.700000" y2="120.000000"  style="stroke:black; stroke-linecap:round; stroke-width:0.25;"/>
<line x1="296.600000" y1="288.000000" x2="312.600000" y2="288.000000"  style="stroke:black; stroke-linecap:round; stroke-width:0.25;"/>
<line x1="296.600000" y1="296.000000" x2="296.600000" y2="288.000000"  style="stroke:black; stroke-linecap:round; stroke-width:0.25;"/>
<line x1="296.600000" y1="296.000000" x2="296.600000" y2="296.000000"  style="stroke:black; stroke-linecap:round; stroke-width:0.25;"/>
<line x1="296.600000" y1="342.000000" x2="304.600000" y2="342.000000"  style="stroke:black; stroke-linecap:round; stroke-width:0.25;"/>
<line x1="298.600000" y1="46.000000" x2="302.600000" y2="46.000000"  style="stroke:black; stroke-linecap:round; stroke-width:0.25;"/>
<line x1="298.600000" y1="78.000000" x2="302.600000" y2="78.000000"  style="stroke:black; stroke-linecap:round; stroke-width:0.25;"/>
<line x1="298.600000" y1="210.000000" x2="302.600000" y2="210.000000"  style="stroke:black; stroke-linecap:round; stroke-width:0.25;"/>
<line x1="300.150000" y1="424.000000" x2="304.150000" y2="424.000000"  style="stroke:black; stroke-linecap:round; stroke-width:0.25;"/>
<line x1="302.600000" y1="46.000000" x2="384.600000" y2="46.000000"  style="stroke:black; stroke-linecap:round; stroke-width:0.25;"/>
<line x1="302.600000" y1="78.000000" x2="384.600000" y2="78.000000"  style="stroke:black; stroke-linecap:round; stroke-width:0.25;"/>
<line x1="302.600000" y1="210.000000" x2="384.600000" y2="210.000000"  style="stroke:black; stroke-linecap:round; stroke-width:0.25;"/>
<line x1="304.150000" y1="404.000000" x2="312.150000" y2="404.000000"  style="stroke:black; stroke-linecap:round; stroke-width:0.25;"/>
<line x1="304.150000" y1="424.000000" x2="312.150000" y2="424.000000"  style="stroke:black; stroke-linecap:round; stroke-width:0.25;"/>
<line x1="304.600000" y1="296.000000" x2="312.600000" y2="296.000000"  style="stroke:black; stroke-linecap:round; stroke-width:0.25;"/>
<line x1="304.600000" y1="342.000000" x2="304.600000" y2="296.000000"  style="stroke:black; stroke-linecap:round; stroke-width:0.25;"/>
<line x1="305.700000" y1="140.000000" x2="289.700000" y2="140.000000"  style="stroke:black; stroke-linecap:round; stroke-width:0.25;"/>
<line x1="312.150000" y1="404.000000" x2="312.150000" y2="416.000000"  style="stroke:black; stroke-linecap:round; stroke-width:0.25;"/>
<line x1="312.150000" y1="416.000000" x2="312.150000" y2="416.000000"  style="stroke:black; stroke-linecap:round; stroke-width:0.25;"/>
<line x1="312.150000" y1="416.000000" x2="316.150000" y2="416.000000"  style="stroke:black; stroke-linecap:round; stroke-width:0.25;"/>
<line x1="312.150000" y1="424.000000" x2="316.150000" y2="424.000000"  style="stroke:black; stroke-linecap:round; stroke-width:0.25;"/>
<line x1="312.600000" y1="288.000000" x2="316.600000" y2="288.000000"  style="stroke:black; stroke-linecap:round; stroke-width:0.25;"/>
<line x1="312.600000" y1="296.000000" x2="316.600000" y2="296.000000"  style="stroke:black; stroke-linecap:round; stroke-width:0.25;"/>
<line x1="318.600000" y1="164.000000" x2="322.600000" y2="164.000000"  style="stroke:black; stroke-linecap:round; stroke-width:0.25;"/>
<line x1="321.700000" y1="140.000000" x2="305.700000" y2="140.000000"  style="stroke:black; stroke-linecap:round; stroke-width:0.25;"/>
<line x1="322.600000" y1="140.000000" x2="321.700000" y2="140.000000"  style="stroke:black; stroke-linecap:round; stroke-width:0.25;"/>
<line x1="322.600000" y1="140.000000" x2="322.600000" y2="140.000000"  style="stroke:black; stroke-linecap:round; stroke-width:0.25;"/>
<line x1="322.600000" y1="160.000000" x2="322.600000" y2="140.000000"  style="stroke:black; stroke-linecap:round; stroke-width:0.25;"/>
<line x1="322.600000" y1="164.000000" x2="324.600000" y2="164.000000"  style="stroke:black; stroke-linecap:round; stroke-width:0.25;"/>
<line x1="324.600000" y1="164.000000" x2="330.600000" y2="164.000000"  style="stroke:black; stroke-linecap:round; stroke-width:0.25;"/>
<line x1="330.600000" y1="164.000000" x2="340.600000" y2="164.000000"  style="stroke:black; stroke-linecap:round; stroke-width:0.25;"/>
<line x1="340.150000" y1="420.000000" x2="344.150000" y2="420.000000"  style="stroke:black; stroke-linecap:round; stroke-width:0.25;"/>
<line x1="340.600000" y1="164.000000" x2="384.600000" y2="164.000000"  style="stroke:black; stroke-linecap:round; stroke-width:0.25;"/>
<line x1="340.600000" y1="292.000000" x2="344.600000" y2="292.000000"  style="stroke:black; stroke-linecap:round; stroke-width:0.25;"/>
<line x1="344.150000" y1="420.000000" x2="473.300000" y2="420.000000"  style="stroke:black; stroke-linecap:round; stroke-width:0.25;"/>
<line x1="344.600000" y1="292.000000" x2="352.600000" y2="292.000000"  style="stroke:black; stroke-linecap:round; stroke-width:0.25;"/>
<line x1="344.600000" y1="312.000000" x2="352.600000" y2="312.000000"  style="stroke:black; stroke-linecap:round; stroke-width:0.25;"/>
<line x1="344.600000" y1="374.000000" x2="344.600000" y2="312.000000"  style="stroke:black; stroke-linecap:round; stroke-width:0.25;"/>
<line x1="344.600000" y1="374.000000" x2="344.600000" y2="374.000000"  style="stroke:black; stroke-linecap:round; stroke-width:0.25;"/>
<line x1="352.600000" y1="292.000000" x2="352.600000" y2="304.000000"  style="stroke:black; stroke-linecap:round; stroke-width:0.25;"/>
<line x1="352.600000" y1="304.000000" x2="352.600000" y2="304.000000"  style="stroke:black; stroke-linecap:round; stroke-width:0.25;"/>
<line x1="352.600000" y1="304.000000" x2="356.600000" y2="304.000000"  style="stroke:black; stroke-linecap:round; stroke-width:0.25;"/>
<line x1="352.600000" y1="312.000000" x2="356.600000" y2="312.000000"  style="stroke:black; stroke-linecap:round; stroke-width:0.25;"/>
<line x1="380.600000" y1="308.000000" x2="384.600000" y2="308.000000"  style="stroke:black; stroke-linecap:round; stroke-width:0.25;"/>
<line x1="384.600000" y1="46.000000" x2="416.600000" y2="46.000000"  style="stroke:black; stroke-linecap:round; stroke-width:0.25;"/>
<line x1="384.600000" y1="78.000000" x2="408.600000" y2="78.000000"  style="stroke:black; stroke-linecap:round; stroke-width:0.25;"/>
<line x1="384.600000" y1="164.000000" x2="400.600000" y2="164.000000"  style="stroke:black; stroke-linecap:round; stroke-width:0.25;"/>
<line x1="384.600000" y1="210.000000" x2="392.600000" y2="210.000000"  style="stroke:black; stroke-linecap:round; stroke-width:0.25;"/>
<line x1="384.600000" y1="226.000000" x2="416.600000" y2="226.000000"  style="stroke:black; stroke-linecap:round; stroke-width:0.25;"/>
<line x1="384.600000" y1="308.000000" x2="384.600000" y2="226.000000"  style="stroke:black; stroke-linecap:round; stroke-width:0.25;"/>
<line x1="384.600000" y1="308.000000" x2="384.600000" y2="308.000000"  style="stroke:black; stroke-linecap:round; stroke-width:0.25;"/>
<line x1="392.600000" y1="210.000000" x2="392.600000" y2="218.000000"  style="stroke:black; stroke-linecap:round; stroke-width:0.25;"/>
<line x1="392.600000" y1="218.000000" x2="416.600000" y2="218.000000"  style="stroke:black; stroke-linecap:round; stroke-width:0.25;"/>
<line x1="400.600000" y1="164.000000" x2="400.600000" y2="210.000000"  style="stroke:black; stroke-linecap:round; stroke-width:0.25;"/>
<line x1="400.600000" y1="210.000000" x2="416.600000" y2="210.000000"  style="stroke:black; stroke-linecap:round; stroke-width:0.25;"/>
<line x1="408.600000" y1="78.000000" x2="408.600000" y2="202.000000"  style="stroke:black; stroke-linecap:round; stroke-width:0.25;"/>
<line x1="408.600000" y1="202.000000" x2="416.600000" y2="202.000000"  style="stroke:black; stroke-linecap:round; stroke-width:0.25;"/>
<line x1="416.600000" y1="46.000000" x2="416.600000" y2="194.000000"  style="stroke:black; stroke-linecap:round; stroke-width:0.25;"/>
<line x1="416.600000" y1="194.000000" x2="416.600000" y2="194.000000"  style="stroke:black; stroke-linecap:round; stroke-width:0.25;"/>
<line x1="416.600000" y1="194.000000" x2="420.600000" y2="194.000000"  style="stroke:black; stroke-linecap:round; stroke-width:0.25;"/>
<line x1="416.600000" y1="202.000000" x2="420.600000" y2="202.000000"  style="stroke:black; stroke-linecap:round; stroke-width:0.25;"/>
<line x1="416.600000" y1="210.000000" x2="420.600000" y2="210.000000"  style="stroke:black; stroke-linecap:round; stroke-width:0.25;"/>
<line x1="416.600000" y1="218.000000" x2="420.600000" y2="218.000000"  style="stroke:black; stroke-linecap:round; stroke-width:0.25;"/>
<line x1="416.600000" y1="226.000000" x2="420.600000" y2="226.000000"  style="stroke:black; stroke-linecap:round; stroke-width:0.25;"/>
<line x1="459.300000" y1="210.000000" x2="463.300000" y2="210.000000"  style="stroke:black; stroke-linecap:round; stroke-width:0.25;"/>
<line x1="463.300000" y1="210.000000" x2="473.300000" y2="210.000000"  style="stroke:black; stroke-linecap:round; stroke-width:0.25;"/>
<line x1="473.300000" y1="234.000000" x2="481.300000" y2="234.000000"  style="stroke:black; stroke-linecap:round; stroke-width:0.25;"/>
<line x1="473.300000" y1="420.000000" x2="473.300000" y2="234.000000"  style="stroke:black; stroke-linecap:round; stroke-width:0.25;"/>
<line x1="473.300000" y1="420.000000" x2="473.300000" y2="420.000000"  style="stroke:black; stroke-linecap:round; stroke-width:0.25;"/>
<line x1="473.300000" y1="210.000000" x2="481.300000" y2="210.000000"  style="stroke:black; stroke-linecap:round; stroke-width:0.25;"/>
<line x1="481.300000" y1="210.000000" x2="481.300000" y2="226.000000"  style="stroke:black; stroke-linecap:round; stroke-width:0.25;"/>
<line x1="481.300000" y1="226.000000" x2="481.300000" y2="226.000000"  style="stroke:black; stroke-linecap:round; stroke-width:0.25;"/>
<line x1="481.300000" y1="226.000000" x2="485.300000" y2="226.000000"  style="stroke:black; stroke-linecap:round; stroke-width:0.25;"/>
<line x1="481.300000" y1="234.000000" x2="485.300000" y2="234.000000"  style="stroke:black; stroke-linecap:round; stroke-width:0.25;"/>
<line x1="485.300000" y1="226.000000" x2="489.300000" y2="226.000000"  style="stroke:black; stroke-linecap:round; stroke-width:0.25;"/>
<line x1="485.300000" y1="234.000000" x2="489.300000" y2="234.000000"  style="stroke:black; stroke-linecap:round; stroke-width:0.25;"/>
<line x1="489.300000" y1="226.000000" x2="499.300000" y2="226.000000"  style="stroke:black; stroke-linecap:round; stroke-width:0.25;"/>
<line x1="489.300000" y1="234.000000" x2="499.300000" y2="234.000000"  style="stroke:black; stroke-linecap:round; stroke-width:0.25;"/>
</svg>
