<?xml version="1.0"?>
<svg xmlns="http://www.w3.org/2000/svg" xmlns:xlink="http://www.w3.org/1999/xlink" viewBox="0 0 287.600000 316.000000" width="143.800000mm" height="158.000000mm" version="1.1">
<a xlink:href="tick-7021.svg">
<rect x="1.000000" y="1.000000" width="286.600000" height="315.000000" rx="0" ry="0" style="stroke:none;fill:#cccccc;"/>
<rect x="0.000000" y="0.000000" width="286.600000" height="315.000000" rx="0" ry="0" style="stroke:none;fill:#ffffff;"/>
</a>
<text x="10.000000" y="7.000000" font-family="Arial" font-size="7"></text>
<rect x="81.450000" y="25.000000" width="38.700000" height="24.000000" rx="0" ry="0" style="stroke:none;fill:#cccccc;"/>
<rect x="80.450000" y="24.000000" width="38.700000" height="24.000000" rx="0" ry="0" style="stroke:none;fill:#47945E;"/>
<text x="99.800000" y="38.000000" font-family="Arial" font-size="7" text-anchor="middle" fill="#FFFFFF">[8] ic1</text>
<circle cx="82.450000" cy="26.000000" r="1"/>
<a xlink:href="g-6710.svg">
<rect x="68.800000" y="57.000000" width="24.000000" height="24.000000" rx="0" ry="0" style="stroke:none;fill:#cccccc;"/>
<rect x="67.800000" y="56.000000" width="24.000000" height="24.000000" rx="0" ry="0" style="stroke:none;fill:#003366;"/>
</a>
<a xlink:href="g-6710.svg">
<text x="79.800000" y="70.000000" font-family="Arial" font-size="7" text-anchor="middle" fill="#FFFFFF">g</text>
</a>
<circle cx="69.800000" cy="58.000000" r="1"/>
<rect x="41.450000" y="89.000000" width="38.700000" height="24.000000" rx="0" ry="0" style="stroke:none;fill:#cccccc;"/>
<rect x="40.450000" y="88.000000" width="38.700000" height="24.000000" rx="0" ry="0" style="stroke:none;fill:#47945E;"/>
<text x="59.800000" y="102.000000" font-family="Arial" font-size="7" text-anchor="middle" fill="#FFFFFF">[10] v0</text>
<circle cx="42.450000" cy="90.000000" r="1"/>
<rect x="41.450000" y="121.000000" width="38.700000" height="24.000000" rx="0" ry="0" style="stroke:none;fill:#cccccc;"/>
<rect x="40.450000" y="120.000000" width="38.700000" height="24.000000" rx="0" ry="0" style="stroke:none;fill:#47945E;"/>
<text x="59.800000" y="134.000000" font-family="Arial" font-size="7" text-anchor="middle" fill="#FFFFFF">[9] ic2</text>
<circle cx="42.450000" cy="122.000000" r="1"/>
<rect x="96.150000" y="105.000000" width="24.000000" height="24.000000" rx="0" ry="0" style="stroke:none;fill:#cccccc;"/>
<rect x="95.150000" y="104.000000" width="24.000000" height="24.000000" rx="0" ry="0" style="stroke:none;fill:#4B71A1;"/>
<text x="107.150000" y="118.000000" font-family="Arial" font-size="7" text-anchor="middle" fill="#FFFFFF">-</text>
<circle cx="97.150000" cy="106.000000" r="1"/>
<line x1="92.150000" y1="111.000000" x2="95.150000" y2="112.000000"  transform="rotate(0.000000,95.150000,112.000000)" style="stroke: black; stroke-width:0.25;"/>
<line x1="92.150000" y1="113.000000" x2="95.150000" y2="112.000000"  transform="rotate(0.000000,95.150000,112.000000)" style="stroke: black; stroke-width:0.25;"/>
<line x1="92.150000" y1="119.000000" x2="95.150000" y2="120.000000"  transform="rotate(0.000000,95.150000,120.000000)" style="stroke: black; stroke-width:0.25;"/>
<line x1="92.150000" y1="121.000000" x2="95.150000" y2="120.000000"  transform="rotate(0.000000,95.150000,120.000000)" style="stroke: black; stroke-width:0.25;"/>
<rect x="136.150000" y="89.000000" width="24.000000" height="24.000000" rx="0" ry="0" style="stroke:none;fill:#cccccc;"/>
<rect x="135.150000" y="88.000000" width="24.000000" height="24.000000" rx="0" ry="0" style="stroke:none;fill:#4B71A1;"/>
<text x="147.150000" y="102.000000" font-family="Arial" font-size="7" text-anchor="middle" fill="#FFFFFF">*</text>
<circle cx="137.150000" cy="90.000000" r="1"/>
<line x1="132.150000" y1="95.000000" x2="135.150000" y2="96.000000"  transform="rotate(0.000000,135.150000,96.000000)" style="stroke: black; stroke-width:0.25;"/>
<line x1="132.150000" y1="97.000000" x2="135.150000" y2="96.000000"  transform="rotate(0.000000,135.150000,96.000000)" style="stroke: black; stroke-width:0.25;"/>
<line x1="132.150000" y1="103.000000" x2="135.150000" y2="104.000000"  transform="rotate(0.000000,135.150000,104.000000)" style="stroke: black; stroke-width:0.25;"/>
<line x1="132.150000" y1="105.000000" x2="135.150000" y2="104.000000"  transform="rotate(0.000000,135.150000,104.000000)" style="stroke: black; stroke-width:0.25;"/>
<rect x="176.150000" y="73.000000" width="24.000000" height="24.000000" rx="0" ry="0" style="stroke:none;fill:#cccccc;"/>
<rect x="175.150000" y="72.000000" width="24.000000" height="24.000000" rx="0" ry="0" style="stroke:none;fill:#4B71A1;"/>
<text x="187.150000" y="86.000000" font-family="Arial" font-size="7" text-anchor="middle" fill="#FFFFFF">+</text>
<circle cx="177.150000" cy="74.000000" r="1"/>
<line x1="172.150000" y1="79.000000" x2="175.150000" y2="80.000000"  transform="rotate(0.000000,175.150000,80.000000)" style="stroke: black; stroke-width:0.25;"/>
<line x1="172.150000" y1="81.000000" x2="175.150000" y2="80.000000"  transform="rotate(0.000000,175.150000,80.000000)" style="stroke: black; stroke-width:0.25;"/>
<line x1="172.150000" y1="87.000000" x2="175.150000" y2="88.000000"  transform="rotate(0.000000,175.150000,88.000000)" style="stroke: black; stroke-width:0.25;"/>
<line x1="172.150000" y1="89.000000" x2="175.150000" y2="88.000000"  transform="rotate(0.000000,175.150000,88.000000)" style="stroke: black; stroke-width:0.25;"/>
<rect x="88.800000" y="153.000000" width="24.000000" height="24.000000" rx="0" ry="0" style="stroke:none;fill:#cccccc;"/>
<rect x="87.800000" y="152.000000" width="24.000000" height="24.000000" rx="0" ry="0" style="stroke:none;fill:#f44800;"/>
<text x="99.800000" y="166.000000" font-family="Arial" font-size="7" text-anchor="middle" fill="#FFFFFF">1</text>
<circle cx="89.800000" cy="154.000000" r="1"/>
<a xlink:href="g-6710.svg">
<rect x="68.800000" y="185.000000" width="24.000000" height="24.000000" rx="0" ry="0" style="stroke:none;fill:#cccccc;"/>
<rect x="67.800000" y="184.000000" width="24.000000" height="24.000000" rx="0" ry="0" style="stroke:none;fill:#003366;"/>
</a>
<a xlink:href="g-6710.svg">
<text x="79.800000" y="198.000000" font-family="Arial" font-size="7" text-anchor="middle" fill="#FFFFFF">g</text>
</a>
<circle cx="69.800000" cy="186.000000" r="1"/>
<a xlink:href="g-6710.svg">
<rect x="48.800000" y="217.000000" width="24.000000" height="24.000000" rx="0" ry="0" style="stroke:none;fill:#cccccc;"/>
<rect x="47.800000" y="216.000000" width="24.000000" height="24.000000" rx="0" ry="0" style="stroke:none;fill:#003366;"/>
</a>
<a xlink:href="g-6710.svg">
<text x="59.800000" y="230.000000" font-family="Arial" font-size="7" text-anchor="middle" fill="#FFFFFF">g</text>
</a>
<circle cx="49.800000" cy="218.000000" r="1"/>
<rect x="35.000000" y="259.000000" width="51.600000" height="24.000000" rx="0" ry="0" style="stroke:none;fill:#cccccc;"/>
<rect x="34.000000" y="258.000000" width="51.600000" height="24.000000" rx="0" ry="0" style="stroke:none;fill:#f44800;"/>
<text x="59.800000" y="272.000000" font-family="Arial" font-size="7" text-anchor="middle" fill="#FFFFFF">1.4144272f</text>
<circle cx="36.000000" cy="260.000000" r="1"/>
<line x1="25.000000" y1="249.000000" x2="25.000000" y2="291.000000"  style="stroke: black; stroke-linecap:round; stroke-width:0.25; stroke-dasharray:3,3;"/>
<line x1="25.000000" y1="291.000000" x2="94.600000" y2="291.000000"  style="stroke: black; stroke-linecap:round; stroke-width:0.25; stroke-dasharray:3,3;"/>
<line x1="94.600000" y1="291.000000" x2="94.600000" y2="249.000000"  style="stroke: black; stroke-linecap:round; stroke-width:0.25; stroke-dasharray:3,3;"/>
<line x1="25.000000" y1="249.000000" x2="30.000000" y2="249.000000"  style="stroke: black; stroke-linecap:round; stroke-width:0.25; stroke-dasharray:3,3;"/>
<line x1="39.675000" y1="249.000000" x2="94.600000" y2="249.000000"  style="stroke: black; stroke-linecap:round; stroke-width:0.25; stroke-dasharray:3,3;"/>
<text x="30.000000" y="251.000000" font-family="Arial" font-size="7">k</text>
<rect x="112.600000" y="243.000000" width="24.000000" height="24.000000" rx="0" ry="0" style="stroke:none;fill:#cccccc;"/>
<rect x="111.600000" y="242.000000" width="24.000000" height="24.000000" rx="0" ry="0" style="stroke:none;fill:#4B71A1;"/>
<text x="123.600000" y="256.000000" font-family="Arial" font-size="7" text-anchor="middle" fill="#FFFFFF">+</text>
<circle cx="113.600000" cy="244.000000" r="1"/>
<line x1="108.600000" y1="249.000000" x2="111.600000" y2="250.000000"  transform="rotate(0.000000,111.600000,250.000000)" style="stroke: black; stroke-width:0.25;"/>
<line x1="108.600000" y1="251.000000" x2="111.600000" y2="250.000000"  transform="rotate(0.000000,111.600000,250.000000)" style="stroke: black; stroke-width:0.25;"/>
<line x1="108.600000" y1="257.000000" x2="111.600000" y2="258.000000"  transform="rotate(0.000000,111.600000,258.000000)" style="stroke: black; stroke-width:0.25;"/>
<line x1="108.600000" y1="259.000000" x2="111.600000" y2="258.000000"  transform="rotate(0.000000,111.600000,258.000000)" style="stroke: black; stroke-width:0.25;"/>
<rect x="152.600000" y="227.000000" width="24.000000" height="24.000000" rx="0" ry="0" style="stroke:none;fill:#cccccc;"/>
<rect x="151.600000" y="226.000000" width="24.000000" height="24.000000" rx="0" ry="0" style="stroke:none;fill:#4B71A1;"/>
<text x="163.600000" y="240.000000" font-family="Arial" font-size="7" text-anchor="middle" fill="#FFFFFF">*</text>
<circle cx="153.600000" cy="228.000000" r="1"/>
<line x1="148.600000" y1="233.000000" x2="151.600000" y2="234.000000"  transform="rotate(0.000000,151.600000,234.000000)" style="stroke: black; stroke-width:0.25;"/>
<line x1="148.600000" y1="235.000000" x2="151.600000" y2="234.000000"  transform="rotate(0.000000,151.600000,234.000000)" style="stroke: black; stroke-width:0.25;"/>
<line x1="148.600000" y1="241.000000" x2="151.600000" y2="242.000000"  transform="rotate(0.000000,151.600000,242.000000)" style="stroke: black; stroke-width:0.25;"/>
<line x1="148.600000" y1="243.000000" x2="151.600000" y2="242.000000"  transform="rotate(0.000000,151.600000,242.000000)" style="stroke: black; stroke-width:0.25;"/>
<rect x="192.600000" y="211.000000" width="24.000000" height="24.000000" rx="0" ry="0" style="stroke:none;fill:#cccccc;"/>
<rect x="191.600000" y="210.000000" width="24.000000" height="24.000000" rx="0" ry="0" style="stroke:none;fill:#4B71A1;"/>
<text x="203.600000" y="224.000000" font-family="Arial" font-size="7" text-anchor="middle" fill="#FFFFFF">+</text>
<circle cx="193.600000" cy="212.000000" r="1"/>
<line x1="188.600000" y1="217.000000" x2="191.600000" y2="218.000000"  transform="rotate(0.000000,191.600000,218.000000)" style="stroke: black; stroke-width:0.25;"/>
<line x1="188.600000" y1="219.000000" x2="191.600000" y2="218.000000"  transform="rotate(0.000000,191.600000,218.000000)" style="stroke: black; stroke-width:0.25;"/>
<line x1="188.600000" y1="225.000000" x2="191.600000" y2="226.000000"  transform="rotate(0.000000,191.600000,226.000000)" style="stroke: black; stroke-width:0.25;"/>
<line x1="188.600000" y1="227.000000" x2="191.600000" y2="226.000000"  transform="rotate(0.000000,191.600000,226.000000)" style="stroke: black; stroke-width:0.25;"/>
<rect x="232.600000" y="147.000000" width="24.000000" height="24.000000" rx="0" ry="0" style="stroke:none;fill:#cccccc;"/>
<rect x="231.600000" y="146.000000" width="24.000000" height="24.000000" rx="0" ry="0" style="stroke:none;fill:#4B71A1;"/>
<text x="243.600000" y="160.000000" font-family="Arial" font-size="7" text-anchor="middle" fill="#FFFFFF">/</text>
<circle cx="233.600000" cy="148.000000" r="1"/>
<line x1="228.600000" y1="153.000000" x2="231.600000" y2="154.000000"  transform="rotate(0.000000,231.600000,154.000000)" style="stroke: black; stroke-width:0.25;"/>
<line x1="228.600000" y1="155.000000" x2="231.600000" y2="154.000000"  transform="rotate(0.000000,231.600000,154.000000)" style="stroke: black; stroke-width:0.25;"/>
<line x1="228.600000" y1="161.000000" x2="231.600000" y2="162.000000"  transform="rotate(0.000000,231.600000,162.000000)" style="stroke: black; stroke-width:0.25;"/>
<line x1="228.600000" y1="163.000000" x2="231.600000" y2="162.000000"  transform="rotate(0.000000,231.600000,162.000000)" style="stroke: black; stroke-width:0.25;"/>
<line x1="15.000000" y1="15.000000" x2="15.000000" y2="301.000000"  style="stroke: black; stroke-linecap:round; stroke-width:0.25; stroke-dasharray:3,3;"/>
<line x1="15.000000" y1="301.000000" x2="272.600000" y2="301.000000"  style="stroke: black; stroke-linecap:round; stroke-width:0.25; stroke-dasharray:3,3;"/>
<line x1="272.600000" y1="301.000000" x2="272.600000" y2="15.000000"  style="stroke: black; stroke-linecap:round; stroke-width:0.25; stroke-dasharray:3,3;"/>
<line x1="15.000000" y1="15.000000" x2="20.000000" y2="15.000000"  style="stroke: black; stroke-linecap:round; stroke-width:0.25; stroke-dasharray:3,3;"/>
<line x1="32.900000" y1="15.000000" x2="272.600000" y2="15.000000"  style="stroke: black; stroke-linecap:round; stroke-width:0.25; stroke-dasharray:3,3;"/>
<text x="20.000000" y="17.000000" font-family="Arial" font-size="7">v1</text>
<line x1="274.600000" y1="157.000000" x2="277.600000" y2="158.000000"  transform="rotate(0.000000,277.600000,158.000000)" style="stroke: black; stroke-width:0.25;"/>
<line x1="274.600000" y1="159.000000" x2="277.600000" y2="158.000000"  transform="rotate(0.000000,277.600000,158.000000)" style="stroke: black; stroke-width:0.25;"/>
<line x1="71.800000" y1="228.000000" x2="75.800000" y2="228.000000"  style="stroke:black; stroke-linecap:round; stroke-width:0.25;"/>
<line x1="75.800000" y1="228.000000" x2="99.600000" y2="228.000000"  style="stroke:black; stroke-linecap:round; stroke-width:0.25;"/>
<line x1="79.150000" y1="100.000000" x2="83.150000" y2="100.000000"  style="stroke:black; stroke-linecap:round; stroke-width:0.25;"/>
<line x1="79.150000" y1="132.000000" x2="83.150000" y2="132.000000"  style="stroke:black; stroke-linecap:round; stroke-width:0.25;"/>
<line x1="83.150000" y1="100.000000" x2="91.150000" y2="100.000000"  style="stroke:black; stroke-linecap:round; stroke-width:0.25;"/>
<line x1="83.150000" y1="120.000000" x2="91.150000" y2="120.000000"  style="stroke:black; stroke-linecap:round; stroke-width:0.25;"/>
<line x1="83.150000" y1="132.000000" x2="83.150000" y2="120.000000"  style="stroke:black; stroke-linecap:round; stroke-width:0.25;"/>
<line x1="83.150000" y1="132.000000" x2="83.150000" y2="132.000000"  style="stroke:black; stroke-linecap:round; stroke-width:0.25;"/>
<line x1="85.600000" y1="270.000000" x2="89.600000" y2="270.000000"  style="stroke:black; stroke-linecap:round; stroke-width:0.25;"/>
<line x1="89.600000" y1="270.000000" x2="99.600000" y2="270.000000"  style="stroke:black; stroke-linecap:round; stroke-width:0.25;"/>
<line x1="91.150000" y1="100.000000" x2="91.150000" y2="112.000000"  style="stroke:black; stroke-linecap:round; stroke-width:0.25;"/>
<line x1="91.150000" y1="112.000000" x2="91.150000" y2="112.000000"  style="stroke:black; stroke-linecap:round; stroke-width:0.25;"/>
<line x1="91.150000" y1="112.000000" x2="95.150000" y2="112.000000"  style="stroke:black; stroke-linecap:round; stroke-width:0.25;"/>
<line x1="91.150000" y1="120.000000" x2="95.150000" y2="120.000000"  style="stroke:black; stroke-linecap:round; stroke-width:0.25;"/>
<line x1="91.800000" y1="68.000000" x2="95.800000" y2="68.000000"  style="stroke:black; stroke-linecap:round; stroke-width:0.25;"/>
<line x1="91.800000" y1="196.000000" x2="95.800000" y2="196.000000"  style="stroke:black; stroke-linecap:round; stroke-width:0.25;"/>
<line x1="95.800000" y1="68.000000" x2="123.150000" y2="68.000000"  style="stroke:black; stroke-linecap:round; stroke-width:0.25;"/>
<line x1="95.800000" y1="196.000000" x2="139.600000" y2="196.000000"  style="stroke:black; stroke-linecap:round; stroke-width:0.25;"/>
<line x1="99.600000" y1="228.000000" x2="107.600000" y2="228.000000"  style="stroke:black; stroke-linecap:round; stroke-width:0.25;"/>
<line x1="99.600000" y1="258.000000" x2="107.600000" y2="258.000000"  style="stroke:black; stroke-linecap:round; stroke-width:0.25;"/>
<line x1="99.600000" y1="270.000000" x2="99.600000" y2="258.000000"  style="stroke:black; stroke-linecap:round; stroke-width:0.25;"/>
<line x1="99.600000" y1="270.000000" x2="99.600000" y2="270.000000"  style="stroke:black; stroke-linecap:round; stroke-width:0.25;"/>
<line x1="107.600000" y1="228.000000" x2="107.600000" y2="250.000000"  style="stroke:black; stroke-linecap:round; stroke-width:0.25;"/>
<line x1="107.600000" y1="250.000000" x2="107.600000" y2="250.000000"  style="stroke:black; stroke-linecap:round; stroke-width:0.25;"/>
<line x1="107.600000" y1="250.000000" x2="111.600000" y2="250.000000"  style="stroke:black; stroke-linecap:round; stroke-width:0.25;"/>
<line x1="107.600000" y1="258.000000" x2="111.600000" y2="258.000000"  style="stroke:black; stroke-linecap:round; stroke-width:0.25;"/>
<line x1="111.800000" y1="164.000000" x2="115.800000" y2="164.000000"  style="stroke:black; stroke-linecap:round; stroke-width:0.25;"/>
<line x1="115.800000" y1="164.000000" x2="179.600000" y2="164.000000"  style="stroke:black; stroke-linecap:round; stroke-width:0.25;"/>
<line x1="119.150000" y1="36.000000" x2="123.150000" y2="36.000000"  style="stroke:black; stroke-linecap:round; stroke-width:0.25;"/>
<line x1="119.150000" y1="116.000000" x2="123.150000" y2="116.000000"  style="stroke:black; stroke-linecap:round; stroke-width:0.25;"/>
<line x1="123.150000" y1="68.000000" x2="131.150000" y2="68.000000"  style="stroke:black; stroke-linecap:round; stroke-width:0.25;"/>
<line x1="123.150000" y1="36.000000" x2="163.150000" y2="36.000000"  style="stroke:black; stroke-linecap:round; stroke-width:0.25;"/>
<line x1="123.150000" y1="104.000000" x2="131.150000" y2="104.000000"  style="stroke:black; stroke-linecap:round; stroke-width:0.25;"/>
<line x1="123.150000" y1="116.000000" x2="123.150000" y2="104.000000"  style="stroke:black; stroke-linecap:round; stroke-width:0.25;"/>
<line x1="123.150000" y1="116.000000" x2="123.150000" y2="116.000000"  style="stroke:black; stroke-linecap:round; stroke-width:0.25;"/>
<line x1="131.150000" y1="68.000000" x2="131.150000" y2="96.000000"  style="stroke:black; stroke-linecap:round; stroke-width:0.25;"/>
<line x1="131.150000" y1="96.000000" x2="131.150000" y2="96.000000"  style="stroke:black; stroke-linecap:round; stroke-width:0.25;"/>
<line x1="131.150000" y1="96.000000" x2="135.150000" y2="96.000000"  style="stroke:black; stroke-linecap:round; stroke-width:0.25;"/>
<line x1="131.150000" y1="104.000000" x2="135.150000" y2="104.000000"  style="stroke:black; stroke-linecap:round; stroke-width:0.25;"/>
<line x1="135.600000" y1="254.000000" x2="139.600000" y2="254.000000"  style="stroke:black; stroke-linecap:round; stroke-width:0.25;"/>
<line x1="139.600000" y1="196.000000" x2="147.600000" y2="196.000000"  style="stroke:black; stroke-linecap:round; stroke-width:0.25;"/>
<line x1="139.600000" y1="242.000000" x2="147.600000" y2="242.000000"  style="stroke:black; stroke-linecap:round; stroke-width:0.25;"/>
<line x1="139.600000" y1="254.000000" x2="139.600000" y2="242.000000"  style="stroke:black; stroke-linecap:round; stroke-width:0.25;"/>
<line x1="139.600000" y1="254.000000" x2="139.600000" y2="254.000000"  style="stroke:black; stroke-linecap:round; stroke-width:0.25;"/>
<line x1="147.600000" y1="196.000000" x2="147.600000" y2="234.000000"  style="stroke:black; stroke-linecap:round; stroke-width:0.25;"/>
<line x1="147.600000" y1="234.000000" x2="147.600000" y2="234.000000"  style="stroke:black; stroke-linecap:round; stroke-width:0.25;"/>
<line x1="147.600000" y1="234.000000" x2="151.600000" y2="234.000000"  style="stroke:black; stroke-linecap:round; stroke-width:0.25;"/>
<line x1="147.600000" y1="242.000000" x2="151.600000" y2="242.000000"  style="stroke:black; stroke-linecap:round; stroke-width:0.25;"/>
<line x1="159.150000" y1="100.000000" x2="163.150000" y2="100.000000"  style="stroke:black; stroke-linecap:round; stroke-width:0.25;"/>
<line x1="163.150000" y1="88.000000" x2="171.150000" y2="88.000000"  style="stroke:black; stroke-linecap:round; stroke-width:0.25;"/>
<line x1="163.150000" y1="100.000000" x2="163.150000" y2="88.000000"  style="stroke:black; stroke-linecap:round; stroke-width:0.25;"/>
<line x1="163.150000" y1="100.000000" x2="163.150000" y2="100.000000"  style="stroke:black; stroke-linecap:round; stroke-width:0.25;"/>
<line x1="163.150000" y1="36.000000" x2="171.150000" y2="36.000000"  style="stroke:black; stroke-linecap:round; stroke-width:0.25;"/>
<line x1="171.150000" y1="80.000000" x2="175.150000" y2="80.000000"  style="stroke:black; stroke-linecap:round; stroke-width:0.25;"/>
<line x1="171.150000" y1="88.000000" x2="175.150000" y2="88.000000"  style="stroke:black; stroke-linecap:round; stroke-width:0.25;"/>
<line x1="171.150000" y1="36.000000" x2="171.150000" y2="80.000000"  style="stroke:black; stroke-linecap:round; stroke-width:0.25;"/>
<line x1="171.150000" y1="80.000000" x2="171.150000" y2="80.000000"  style="stroke:black; stroke-linecap:round; stroke-width:0.25;"/>
<line x1="175.600000" y1="238.000000" x2="179.600000" y2="238.000000"  style="stroke:black; stroke-linecap:round; stroke-width:0.25;"/>
<line x1="179.600000" y1="164.000000" x2="187.600000" y2="164.000000"  style="stroke:black; stroke-linecap:round; stroke-width:0.25;"/>
<line x1="179.600000" y1="226.000000" x2="187.600000" y2="226.000000"  style="stroke:black; stroke-linecap:round; stroke-width:0.25;"/>
<line x1="179.600000" y1="238.000000" x2="179.600000" y2="226.000000"  style="stroke:black; stroke-linecap:round; stroke-width:0.25;"/>
<line x1="179.600000" y1="238.000000" x2="179.600000" y2="238.000000"  style="stroke:black; stroke-linecap:round; stroke-width:0.25;"/>
<line x1="187.600000" y1="164.000000" x2="187.600000" y2="218.000000"  style="stroke:black; stroke-linecap:round; stroke-width:0.25;"/>
<line x1="187.600000" y1="218.000000" x2="187.600000" y2="218.000000"  style="stroke:black; stroke-linecap:round; stroke-width:0.25;"/>
<line x1="187.600000" y1="218.000000" x2="191.600000" y2="218.000000"  style="stroke:black; stroke-linecap:round; stroke-width:0.25;"/>
<line x1="187.600000" y1="226.000000" x2="191.600000" y2="226.000000"  style="stroke:black; stroke-linecap:round; stroke-width:0.25;"/>
<line x1="199.150000" y1="84.000000" x2="203.150000" y2="84.000000"  style="stroke:black; stroke-linecap:round; stroke-width:0.25;"/>
<line x1="203.150000" y1="84.000000" x2="219.600000" y2="84.000000"  style="stroke:black; stroke-linecap:round; stroke-width:0.25;"/>
<line x1="215.600000" y1="222.000000" x2="219.600000" y2="222.000000"  style="stroke:black; stroke-linecap:round; stroke-width:0.25;"/>
<line x1="219.600000" y1="84.000000" x2="227.600000" y2="84.000000"  style="stroke:black; stroke-linecap:round; stroke-width:0.25;"/>
<line x1="219.600000" y1="162.000000" x2="227.600000" y2="162.000000"  style="stroke:black; stroke-linecap:round; stroke-width:0.25;"/>
<line x1="219.600000" y1="222.000000" x2="219.600000" y2="162.000000"  style="stroke:black; stroke-linecap:round; stroke-width:0.25;"/>
<line x1="219.600000" y1="222.000000" x2="219.600000" y2="222.000000"  style="stroke:black; stroke-linecap:round; stroke-width:0.25;"/>
<line x1="227.600000" y1="84.000000" x2="227.600000" y2="154.000000"  style="stroke:black; stroke-linecap:round; stroke-width:0.25;"/>
<line x1="227.600000" y1="154.000000" x2="227.600000" y2="154.000000"  style="stroke:black; stroke-linecap:round; stroke-width:0.25;"/>
<line x1="227.600000" y1="154.000000" x2="231.600000" y2="154.000000"  style="stroke:black; stroke-linecap:round; stroke-width:0.25;"/>
<line x1="227.600000" y1="162.000000" x2="231.600000" y2="162.000000"  style="stroke:black; stroke-linecap:round; stroke-width:0.25;"/>
<line x1="255.600000" y1="158.000000" x2="259.600000" y2="158.000000"  style="stroke:black; stroke-linecap:round; stroke-width:0.25;"/>
<line x1="259.600000" y1="158.000000" x2="259.600000" y2="158.000000"  style="stroke:black; stroke-linecap:round; stroke-width:0.25;"/>
<line x1="259.600000" y1="158.000000" x2="263.600000" y2="158.000000"  style="stroke:black; stroke-linecap:round; stroke-width:0.25;"/>
<line x1="263.600000" y1="158.000000" x2="267.600000" y2="158.000000"  style="stroke:black; stroke-linecap:round; stroke-width:0.25;"/>
<line x1="267.600000" y1="158.000000" x2="277.600000" y2="158.000000"  style="stroke:black; stroke-linecap:round; stroke-width:0.25;"/>
</svg>
