<?xml version="1.0"?>
<svg xmlns="http://www.w3.org/2000/svg" xmlns:xlink="http://www.w3.org/1999/xlink" viewBox="0 0 233.800000 168.000000" width="116.900000mm" height="84.000000mm" version="1.1">
<a xlink:href="process.svg">
<rect x="1.000000" y="1.000000" width="232.800000" height="167.000000" rx="0" ry="0" style="stroke:none;fill:#cccccc;"/>
<rect x="0.000000" y="0.000000" width="232.800000" height="167.000000" rx="0" ry="0" style="stroke:none;fill:#ffffff;"/>
</a>
<text x="10.000000" y="7.000000" font-family="Arial" font-size="7"></text>
<rect x="61.900000" y="25.000000" width="24.000000" height="24.000000" rx="0" ry="0" style="stroke:none;fill:#cccccc;"/>
<rect x="60.900000" y="24.000000" width="24.000000" height="24.000000" rx="0" ry="0" style="stroke:none;fill:#f44800;"/>
<text x="72.900000" y="38.000000" font-family="Arial" font-size="7" text-anchor="middle" fill="#FFFFFF">4</text>
<circle cx="62.900000" cy="26.000000" r="1"/>
<a xlink:href="p-8829.svg">
<rect x="25.900000" y="57.000000" width="24.000000" height="24.000000" rx="0" ry="0" style="stroke:none;fill:#cccccc;"/>
<rect x="24.900000" y="56.000000" width="24.000000" height="24.000000" rx="0" ry="0" style="stroke:none;fill:#003366;"/>
</a>
<a xlink:href="p-8829.svg">
<text x="36.900000" y="70.000000" font-family="Arial" font-size="7" text-anchor="middle" fill="#FFFFFF">p</text>
</a>
<circle cx="26.900000" cy="58.000000" r="1"/>
<rect x="25.000000" y="89.000000" width="25.800000" height="24.000000" rx="0" ry="0" style="stroke:none;fill:#cccccc;"/>
<rect x="24.000000" y="88.000000" width="25.800000" height="24.000000" rx="0" ry="0" style="stroke:none;fill:#f44800;"/>
<text x="36.900000" y="102.000000" font-family="Arial" font-size="7" text-anchor="middle" fill="#FFFFFF">0.5f</text>
<circle cx="26.000000" cy="90.000000" r="1"/>
<rect x="66.800000" y="73.000000" width="24.000000" height="24.000000" rx="0" ry="0" style="stroke:none;fill:#cccccc;"/>
<rect x="65.800000" y="72.000000" width="24.000000" height="24.000000" rx="0" ry="0" style="stroke:none;fill:#4B71A1;"/>
<text x="77.800000" y="86.000000" font-family="Arial" font-size="7" text-anchor="middle" fill="#FFFFFF">-</text>
<circle cx="67.800000" cy="74.000000" r="1"/>
<line x1="62.800000" y1="79.000000" x2="65.800000" y2="80.000000"  transform="rotate(0.000000,65.800000,80.000000)" style="stroke: black; stroke-width:0.25;"/>
<line x1="62.800000" y1="81.000000" x2="65.800000" y2="80.000000"  transform="rotate(0.000000,65.800000,80.000000)" style="stroke: black; stroke-width:0.25;"/>
<line x1="62.800000" y1="87.000000" x2="65.800000" y2="88.000000"  transform="rotate(0.000000,65.800000,88.000000)" style="stroke: black; stroke-width:0.25;"/>
<line x1="62.800000" y1="89.000000" x2="65.800000" y2="88.000000"  transform="rotate(0.000000,65.800000,88.000000)" style="stroke: black; stroke-width:0.25;"/>
<rect x="98.800000" y="73.000000" width="24.000000" height="24.000000" rx="0" ry="0" style="stroke:none;fill:#cccccc;"/>
<rect x="97.800000" y="72.000000" width="24.000000" height="24.000000" rx="0" ry="0" style="stroke:none;fill:#4B71A1;"/>
<text x="109.800000" y="86.000000" font-family="Arial" font-size="7" text-anchor="middle" fill="#FFFFFF">abs</text>
<circle cx="99.800000" cy="74.000000" r="1"/>
<line x1="94.800000" y1="83.000000" x2="97.800000" y2="84.000000"  transform="rotate(0.000000,97.800000,84.000000)" style="stroke: black; stroke-width:0.25;"/>
<line x1="94.800000" y1="85.000000" x2="97.800000" y2="84.000000"  transform="rotate(0.000000,97.800000,84.000000)" style="stroke: black; stroke-width:0.25;"/>
<rect x="138.800000" y="57.000000" width="24.000000" height="24.000000" rx="0" ry="0" style="stroke:none;fill:#cccccc;"/>
<rect x="137.800000" y="56.000000" width="24.000000" height="24.000000" rx="0" ry="0" style="stroke:none;fill:#4B71A1;"/>
<text x="149.800000" y="70.000000" font-family="Arial" font-size="7" text-anchor="middle" fill="#FFFFFF">*</text>
<circle cx="139.800000" cy="58.000000" r="1"/>
<line x1="134.800000" y1="63.000000" x2="137.800000" y2="64.000000"  transform="rotate(0.000000,137.800000,64.000000)" style="stroke: black; stroke-width:0.25;"/>
<line x1="134.800000" y1="65.000000" x2="137.800000" y2="64.000000"  transform="rotate(0.000000,137.800000,64.000000)" style="stroke: black; stroke-width:0.25;"/>
<line x1="134.800000" y1="71.000000" x2="137.800000" y2="72.000000"  transform="rotate(0.000000,137.800000,72.000000)" style="stroke: black; stroke-width:0.25;"/>
<line x1="134.800000" y1="73.000000" x2="137.800000" y2="72.000000"  transform="rotate(0.000000,137.800000,72.000000)" style="stroke: black; stroke-width:0.25;"/>
<rect x="81.900000" y="121.000000" width="24.000000" height="24.000000" rx="0" ry="0" style="stroke:none;fill:#cccccc;"/>
<rect x="80.900000" y="120.000000" width="24.000000" height="24.000000" rx="0" ry="0" style="stroke:none;fill:#f44800;"/>
<text x="92.900000" y="134.000000" font-family="Arial" font-size="7" text-anchor="middle" fill="#FFFFFF">1</text>
<circle cx="82.900000" cy="122.000000" r="1"/>
<rect x="178.800000" y="73.000000" width="24.000000" height="24.000000" rx="0" ry="0" style="stroke:none;fill:#cccccc;"/>
<rect x="177.800000" y="72.000000" width="24.000000" height="24.000000" rx="0" ry="0" style="stroke:none;fill:#4B71A1;"/>
<text x="189.800000" y="86.000000" font-family="Arial" font-size="7" text-anchor="middle" fill="#FFFFFF">-</text>
<circle cx="179.800000" cy="74.000000" r="1"/>
<line x1="174.800000" y1="79.000000" x2="177.800000" y2="80.000000"  transform="rotate(0.000000,177.800000,80.000000)" style="stroke: black; stroke-width:0.25;"/>
<line x1="174.800000" y1="81.000000" x2="177.800000" y2="80.000000"  transform="rotate(0.000000,177.800000,80.000000)" style="stroke: black; stroke-width:0.25;"/>
<line x1="174.800000" y1="87.000000" x2="177.800000" y2="88.000000"  transform="rotate(0.000000,177.800000,88.000000)" style="stroke: black; stroke-width:0.25;"/>
<line x1="174.800000" y1="89.000000" x2="177.800000" y2="88.000000"  transform="rotate(0.000000,177.800000,88.000000)" style="stroke: black; stroke-width:0.25;"/>
<line x1="15.000000" y1="15.000000" x2="15.000000" y2="153.000000"  style="stroke: black; stroke-linecap:round; stroke-width:0.25; stroke-dasharray:3,3;"/>
<line x1="15.000000" y1="153.000000" x2="218.800000" y2="153.000000"  style="stroke: black; stroke-linecap:round; stroke-width:0.25; stroke-dasharray:3,3;"/>
<line x1="218.800000" y1="153.000000" x2="218.800000" y2="15.000000"  style="stroke: black; stroke-linecap:round; stroke-width:0.25; stroke-dasharray:3,3;"/>
<line x1="15.000000" y1="15.000000" x2="20.000000" y2="15.000000"  style="stroke: black; stroke-linecap:round; stroke-width:0.25; stroke-dasharray:3,3;"/>
<line x1="52.250000" y1="15.000000" x2="218.800000" y2="15.000000"  style="stroke: black; stroke-linecap:round; stroke-width:0.25; stroke-dasharray:3,3;"/>
<text x="20.000000" y="17.000000" font-family="Arial" font-size="7">triangle</text>
<line x1="220.800000" y1="83.000000" x2="223.800000" y2="84.000000"  transform="rotate(0.000000,223.800000,84.000000)" style="stroke: black; stroke-width:0.25;"/>
<line x1="220.800000" y1="85.000000" x2="223.800000" y2="84.000000"  transform="rotate(0.000000,223.800000,84.000000)" style="stroke: black; stroke-width:0.25;"/>
<line x1="48.900000" y1="68.000000" x2="52.900000" y2="68.000000"  style="stroke:black; stroke-linecap:round; stroke-width:0.25;"/>
<line x1="49.800000" y1="100.000000" x2="53.800000" y2="100.000000"  style="stroke:black; stroke-linecap:round; stroke-width:0.25;"/>
<line x1="52.900000" y1="68.000000" x2="53.800000" y2="68.000000"  style="stroke:black; stroke-linecap:round; stroke-width:0.25;"/>
<line x1="53.800000" y1="68.000000" x2="61.800000" y2="68.000000"  style="stroke:black; stroke-linecap:round; stroke-width:0.25;"/>
<line x1="53.800000" y1="88.000000" x2="61.800000" y2="88.000000"  style="stroke:black; stroke-linecap:round; stroke-width:0.25;"/>
<line x1="53.800000" y1="100.000000" x2="53.800000" y2="88.000000"  style="stroke:black; stroke-linecap:round; stroke-width:0.25;"/>
<line x1="53.800000" y1="100.000000" x2="53.800000" y2="100.000000"  style="stroke:black; stroke-linecap:round; stroke-width:0.25;"/>
<line x1="61.800000" y1="68.000000" x2="61.800000" y2="80.000000"  style="stroke:black; stroke-linecap:round; stroke-width:0.25;"/>
<line x1="61.800000" y1="80.000000" x2="61.800000" y2="80.000000"  style="stroke:black; stroke-linecap:round; stroke-width:0.25;"/>
<line x1="61.800000" y1="80.000000" x2="65.800000" y2="80.000000"  style="stroke:black; stroke-linecap:round; stroke-width:0.25;"/>
<line x1="61.800000" y1="88.000000" x2="65.800000" y2="88.000000"  style="stroke:black; stroke-linecap:round; stroke-width:0.25;"/>
<line x1="84.900000" y1="36.000000" x2="88.900000" y2="36.000000"  style="stroke:black; stroke-linecap:round; stroke-width:0.25;"/>
<line x1="88.900000" y1="36.000000" x2="125.800000" y2="36.000000"  style="stroke:black; stroke-linecap:round; stroke-width:0.25;"/>
<line x1="89.800000" y1="84.000000" x2="93.800000" y2="84.000000"  style="stroke:black; stroke-linecap:round; stroke-width:0.25;"/>
<line x1="93.800000" y1="84.000000" x2="93.800000" y2="84.000000"  style="stroke:black; stroke-linecap:round; stroke-width:0.25;"/>
<line x1="93.800000" y1="84.000000" x2="97.800000" y2="84.000000"  style="stroke:black; stroke-linecap:round; stroke-width:0.25;"/>
<line x1="104.900000" y1="132.000000" x2="108.900000" y2="132.000000"  style="stroke:black; stroke-linecap:round; stroke-width:0.25;"/>
<line x1="108.900000" y1="132.000000" x2="165.800000" y2="132.000000"  style="stroke:black; stroke-linecap:round; stroke-width:0.25;"/>
<line x1="121.800000" y1="84.000000" x2="125.800000" y2="84.000000"  style="stroke:black; stroke-linecap:round; stroke-width:0.25;"/>
<line x1="125.800000" y1="72.000000" x2="133.800000" y2="72.000000"  style="stroke:black; stroke-linecap:round; stroke-width:0.25;"/>
<line x1="125.800000" y1="84.000000" x2="125.800000" y2="72.000000"  style="stroke:black; stroke-linecap:round; stroke-width:0.25;"/>
<line x1="125.800000" y1="84.000000" x2="125.800000" y2="84.000000"  style="stroke:black; stroke-linecap:round; stroke-width:0.25;"/>
<line x1="125.800000" y1="36.000000" x2="133.800000" y2="36.000000"  style="stroke:black; stroke-linecap:round; stroke-width:0.25;"/>
<line x1="133.800000" y1="36.000000" x2="133.800000" y2="64.000000"  style="stroke:black; stroke-linecap:round; stroke-width:0.25;"/>
<line x1="133.800000" y1="64.000000" x2="133.800000" y2="64.000000"  style="stroke:black; stroke-linecap:round; stroke-width:0.25;"/>
<line x1="133.800000" y1="64.000000" x2="137.800000" y2="64.000000"  style="stroke:black; stroke-linecap:round; stroke-width:0.25;"/>
<line x1="133.800000" y1="72.000000" x2="137.800000" y2="72.000000"  style="stroke:black; stroke-linecap:round; stroke-width:0.25;"/>
<line x1="161.800000" y1="68.000000" x2="165.800000" y2="68.000000"  style="stroke:black; stroke-linecap:round; stroke-width:0.25;"/>
<line x1="165.800000" y1="68.000000" x2="173.800000" y2="68.000000"  style="stroke:black; stroke-linecap:round; stroke-width:0.25;"/>
<line x1="165.800000" y1="88.000000" x2="173.800000" y2="88.000000"  style="stroke:black; stroke-linecap:round; stroke-width:0.25;"/>
<line x1="165.800000" y1="132.000000" x2="165.800000" y2="88.000000"  style="stroke:black; stroke-linecap:round; stroke-width:0.25;"/>
<line x1="165.800000" y1="132.000000" x2="165.800000" y2="132.000000"  style="stroke:black; stroke-linecap:round; stroke-width:0.25;"/>
<line x1="173.800000" y1="68.000000" x2="173.800000" y2="80.000000"  style="stroke:black; stroke-linecap:round; stroke-width:0.25;"/>
<line x1="173.800000" y1="80.000000" x2="173.800000" y2="80.000000"  style="stroke:black; stroke-linecap:round; stroke-width:0.25;"/>
<line x1="173.800000" y1="80.000000" x2="177.800000" y2="80.000000"  style="stroke:black; stroke-linecap:round; stroke-width:0.25;"/>
<line x1="173.800000" y1="88.000000" x2="177.800000" y2="88.000000"  style="stroke:black; stroke-linecap:round; stroke-width:0.25;"/>
<line x1="201.800000" y1="84.000000" x2="205.800000" y2="84.000000"  style="stroke:black; stroke-linecap:round; stroke-width:0.25;"/>
<line x1="205.800000" y1="84.000000" x2="205.800000" y2="84.000000"  style="stroke:black; stroke-linecap:round; stroke-width:0.25;"/>
<line x1="205.800000" y1="84.000000" x2="209.800000" y2="84.000000"  style="stroke:black; stroke-linecap:round; stroke-width:0.25;"/>
<line x1="209.800000" y1="84.000000" x2="213.800000" y2="84.000000"  style="stroke:black; stroke-linecap:round; stroke-width:0.25;"/>
<line x1="213.800000" y1="84.000000" x2="223.800000" y2="84.000000"  style="stroke:black; stroke-linecap:round; stroke-width:0.25;"/>
</svg>
