<?xml version="1.0"?>
<svg xmlns="http://www.w3.org/2000/svg" xmlns:xlink="http://www.w3.org/1999/xlink" viewBox="0 0 375.300000 188.000000" width="187.650000mm" height="94.000000mm" version="1.1">
<a xlink:href="-20737.svg">
<rect x="1.000000" y="1.000000" width="374.300000" height="187.000000" rx="0" ry="0" style="stroke:none;fill:#cccccc;"/>
<rect x="0.000000" y="0.000000" width="374.300000" height="187.000000" rx="0" ry="0" style="stroke:none;fill:#ffffff;"/>
</a>
<text x="10.000000" y="7.000000" font-family="Arial" font-size="7"></text>
<rect x="35.000000" y="35.000000" width="219.300000" height="24.000000" rx="0" ry="0" style="stroke:none;fill:#cccccc;"/>
<rect x="34.000000" y="34.000000" width="219.300000" height="24.000000" rx="0" ry="0" style="stroke:none;fill:#477881;"/>
<text x="143.650000" y="48.000000" font-family="Arial" font-size="7" text-anchor="middle" fill="#FFFFFF">hslider(freq_node_3, 4.4e+02f, 1.0f, 1e+03f, 1.0f)</text>
<circle cx="36.000000" cy="36.000000" r="1"/>
<line x1="25.000000" y1="25.000000" x2="25.000000" y2="67.000000"  style="stroke: black; stroke-linecap:round; stroke-width:0.25; stroke-dasharray:3,3;"/>
<line x1="25.000000" y1="67.000000" x2="262.300000" y2="67.000000"  style="stroke: black; stroke-linecap:round; stroke-width:0.25; stroke-dasharray:3,3;"/>
<line x1="262.300000" y1="67.000000" x2="262.300000" y2="25.000000"  style="stroke: black; stroke-linecap:round; stroke-width:0.25; stroke-dasharray:3,3;"/>
<line x1="25.000000" y1="25.000000" x2="30.000000" y2="25.000000"  style="stroke: black; stroke-linecap:round; stroke-width:0.25; stroke-dasharray:3,3;"/>
<line x1="49.350000" y1="25.000000" x2="262.300000" y2="25.000000"  style="stroke: black; stroke-linecap:round; stroke-width:0.25; stroke-dasharray:3,3;"/>
<text x="30.000000" y="27.000000" font-family="Arial" font-size="7">freq</text>
<rect x="112.650000" y="77.000000" width="24.000000" height="24.000000" rx="0" ry="0" style="stroke:none;fill:#cccccc;"/>
<rect x="111.650000" y="76.000000" width="24.000000" height="24.000000" rx="0" ry="0" style="stroke:none;fill:#f44800;"/>
<text x="123.650000" y="90.000000" font-family="Arial" font-size="7" text-anchor="middle" fill="#FFFFFF">10</text>
<circle cx="113.650000" cy="78.000000" r="1"/>
<a xlink:href="node-20683.svg">
<rect x="105.300000" y="109.000000" width="38.700000" height="24.000000" rx="0" ry="0" style="stroke:none;fill:#cccccc;"/>
<rect x="104.300000" y="108.000000" width="38.700000" height="24.000000" rx="0" ry="0" style="stroke:none;fill:#003366;"/>
</a>
<a xlink:href="node-20683.svg">
<text x="123.650000" y="122.000000" font-family="Arial" font-size="7" text-anchor="middle" fill="#FFFFFF">node_4(0)</text>
</a>
<circle cx="106.300000" cy="110.000000" r="1"/>
<rect x="160.000000" y="93.000000" width="24.000000" height="24.000000" rx="0" ry="0" style="stroke:none;fill:#cccccc;"/>
<rect x="159.000000" y="92.000000" width="24.000000" height="24.000000" rx="0" ry="0" style="stroke:none;fill:#4B71A1;"/>
<text x="171.000000" y="106.000000" font-family="Arial" font-size="7" text-anchor="middle" fill="#FFFFFF">*</text>
<circle cx="161.000000" cy="94.000000" r="1"/>
<line x1="156.000000" y1="99.000000" x2="159.000000" y2="100.000000"  transform="rotate(0.000000,159.000000,100.000000)" style="stroke: black; stroke-width:0.25;"/>
<line x1="156.000000" y1="101.000000" x2="159.000000" y2="100.000000"  transform="rotate(0.000000,159.000000,100.000000)" style="stroke: black; stroke-width:0.25;"/>
<line x1="156.000000" y1="107.000000" x2="159.000000" y2="108.000000"  transform="rotate(0.000000,159.000000,108.000000)" style="stroke: black; stroke-width:0.25;"/>
<line x1="156.000000" y1="109.000000" x2="159.000000" y2="108.000000"  transform="rotate(0.000000,159.000000,108.000000)" style="stroke: black; stroke-width:0.25;"/>
<rect x="280.300000" y="67.000000" width="24.000000" height="24.000000" rx="0" ry="0" style="stroke:none;fill:#cccccc;"/>
<rect x="279.300000" y="66.000000" width="24.000000" height="24.000000" rx="0" ry="0" style="stroke:none;fill:#4B71A1;"/>
<text x="291.300000" y="80.000000" font-family="Arial" font-size="7" text-anchor="middle" fill="#FFFFFF">+</text>
<circle cx="281.300000" cy="68.000000" r="1"/>
<line x1="276.300000" y1="73.000000" x2="279.300000" y2="74.000000"  transform="rotate(0.000000,279.300000,74.000000)" style="stroke: black; stroke-width:0.25;"/>
<line x1="276.300000" y1="75.000000" x2="279.300000" y2="74.000000"  transform="rotate(0.000000,279.300000,74.000000)" style="stroke: black; stroke-width:0.25;"/>
<line x1="276.300000" y1="81.000000" x2="279.300000" y2="82.000000"  transform="rotate(0.000000,279.300000,82.000000)" style="stroke: black; stroke-width:0.25;"/>
<line x1="276.300000" y1="83.000000" x2="279.300000" y2="82.000000"  transform="rotate(0.000000,279.300000,82.000000)" style="stroke: black; stroke-width:0.25;"/>
<a xlink:href="SR-9141.svg">
<rect x="152.650000" y="141.000000" width="24.000000" height="24.000000" rx="0" ry="0" style="stroke:none;fill:#cccccc;"/>
<rect x="151.650000" y="140.000000" width="24.000000" height="24.000000" rx="0" ry="0" style="stroke:none;fill:#003366;"/>
</a>
<a xlink:href="SR-9141.svg">
<text x="163.650000" y="154.000000" font-family="Arial" font-size="7" text-anchor="middle" fill="#FFFFFF">SR</text>
</a>
<circle cx="153.650000" cy="142.000000" r="1"/>
<rect x="320.300000" y="83.000000" width="24.000000" height="24.000000" rx="0" ry="0" style="stroke:none;fill:#cccccc;"/>
<rect x="319.300000" y="82.000000" width="24.000000" height="24.000000" rx="0" ry="0" style="stroke:none;fill:#4B71A1;"/>
<text x="331.300000" y="96.000000" font-family="Arial" font-size="7" text-anchor="middle" fill="#FFFFFF">/</text>
<circle cx="321.300000" cy="84.000000" r="1"/>
<line x1="316.300000" y1="89.000000" x2="319.300000" y2="90.000000"  transform="rotate(0.000000,319.300000,90.000000)" style="stroke: black; stroke-width:0.25;"/>
<line x1="316.300000" y1="91.000000" x2="319.300000" y2="90.000000"  transform="rotate(0.000000,319.300000,90.000000)" style="stroke: black; stroke-width:0.25;"/>
<line x1="316.300000" y1="97.000000" x2="319.300000" y2="98.000000"  transform="rotate(0.000000,319.300000,98.000000)" style="stroke: black; stroke-width:0.25;"/>
<line x1="316.300000" y1="99.000000" x2="319.300000" y2="98.000000"  transform="rotate(0.000000,319.300000,98.000000)" style="stroke: black; stroke-width:0.25;"/>
<line x1="15.000000" y1="15.000000" x2="15.000000" y2="173.000000"  style="stroke: black; stroke-linecap:round; stroke-width:0.25; stroke-dasharray:3,3;"/>
<line x1="15.000000" y1="173.000000" x2="360.300000" y2="173.000000"  style="stroke: black; stroke-linecap:round; stroke-width:0.25; stroke-dasharray:3,3;"/>
<line x1="360.300000" y1="173.000000" x2="360.300000" y2="15.000000"  style="stroke: black; stroke-linecap:round; stroke-width:0.25; stroke-dasharray:3,3;"/>
<line x1="15.000000" y1="15.000000" x2="20.000000" y2="15.000000"  style="stroke: black; stroke-linecap:round; stroke-width:0.25; stroke-dasharray:3,3;"/>
<line x1="52.250000" y1="15.000000" x2="360.300000" y2="15.000000"  style="stroke: black; stroke-linecap:round; stroke-width:0.25; stroke-dasharray:3,3;"/>
<text x="20.000000" y="17.000000" font-family="Arial" font-size="7">incr_aux</text>
<line x1="362.300000" y1="93.000000" x2="365.300000" y2="94.000000"  transform="rotate(0.000000,365.300000,94.000000)" style="stroke: black; stroke-width:0.25;"/>
<line x1="362.300000" y1="95.000000" x2="365.300000" y2="94.000000"  transform="rotate(0.000000,365.300000,94.000000)" style="stroke: black; stroke-width:0.25;"/>
<line x1="135.650000" y1="88.000000" x2="139.650000" y2="88.000000"  style="stroke:black; stroke-linecap:round; stroke-width:0.25;"/>
<line x1="139.650000" y1="88.000000" x2="147.000000" y2="88.000000"  style="stroke:black; stroke-linecap:round; stroke-width:0.25;"/>
<line x1="143.000000" y1="120.000000" x2="147.000000" y2="120.000000"  style="stroke:black; stroke-linecap:round; stroke-width:0.25;"/>
<line x1="147.000000" y1="88.000000" x2="155.000000" y2="88.000000"  style="stroke:black; stroke-linecap:round; stroke-width:0.25;"/>
<line x1="147.000000" y1="108.000000" x2="155.000000" y2="108.000000"  style="stroke:black; stroke-linecap:round; stroke-width:0.25;"/>
<line x1="147.000000" y1="120.000000" x2="147.000000" y2="108.000000"  style="stroke:black; stroke-linecap:round; stroke-width:0.25;"/>
<line x1="147.000000" y1="120.000000" x2="147.000000" y2="120.000000"  style="stroke:black; stroke-linecap:round; stroke-width:0.25;"/>
<line x1="155.000000" y1="88.000000" x2="155.000000" y2="100.000000"  style="stroke:black; stroke-linecap:round; stroke-width:0.25;"/>
<line x1="155.000000" y1="100.000000" x2="155.000000" y2="100.000000"  style="stroke:black; stroke-linecap:round; stroke-width:0.25;"/>
<line x1="155.000000" y1="100.000000" x2="159.000000" y2="100.000000"  style="stroke:black; stroke-linecap:round; stroke-width:0.25;"/>
<line x1="155.000000" y1="108.000000" x2="159.000000" y2="108.000000"  style="stroke:black; stroke-linecap:round; stroke-width:0.25;"/>
<line x1="175.650000" y1="152.000000" x2="179.650000" y2="152.000000"  style="stroke:black; stroke-linecap:round; stroke-width:0.25;"/>
<line x1="179.650000" y1="152.000000" x2="307.300000" y2="152.000000"  style="stroke:black; stroke-linecap:round; stroke-width:0.25;"/>
<line x1="183.000000" y1="104.000000" x2="187.000000" y2="104.000000"  style="stroke:black; stroke-linecap:round; stroke-width:0.25;"/>
<line x1="187.000000" y1="104.000000" x2="267.300000" y2="104.000000"  style="stroke:black; stroke-linecap:round; stroke-width:0.25;"/>
<line x1="253.300000" y1="46.000000" x2="257.300000" y2="46.000000"  style="stroke:black; stroke-linecap:round; stroke-width:0.25;"/>
<line x1="257.300000" y1="46.000000" x2="267.300000" y2="46.000000"  style="stroke:black; stroke-linecap:round; stroke-width:0.25;"/>
<line x1="267.300000" y1="46.000000" x2="275.300000" y2="46.000000"  style="stroke:black; stroke-linecap:round; stroke-width:0.25;"/>
<line x1="267.300000" y1="82.000000" x2="275.300000" y2="82.000000"  style="stroke:black; stroke-linecap:round; stroke-width:0.25;"/>
<line x1="267.300000" y1="104.000000" x2="267.300000" y2="82.000000"  style="stroke:black; stroke-linecap:round; stroke-width:0.25;"/>
<line x1="267.300000" y1="104.000000" x2="267.300000" y2="104.000000"  style="stroke:black; stroke-linecap:round; stroke-width:0.25;"/>
<line x1="275.300000" y1="46.000000" x2="275.300000" y2="74.000000"  style="stroke:black; stroke-linecap:round; stroke-width:0.25;"/>
<line x1="275.300000" y1="74.000000" x2="275.300000" y2="74.000000"  style="stroke:black; stroke-linecap:round; stroke-width:0.25;"/>
<line x1="275.300000" y1="74.000000" x2="279.300000" y2="74.000000"  style="stroke:black; stroke-linecap:round; stroke-width:0.25;"/>
<line x1="275.300000" y1="82.000000" x2="279.300000" y2="82.000000"  style="stroke:black; stroke-linecap:round; stroke-width:0.25;"/>
<line x1="303.300000" y1="78.000000" x2="307.300000" y2="78.000000"  style="stroke:black; stroke-linecap:round; stroke-width:0.25;"/>
<line x1="307.300000" y1="78.000000" x2="315.300000" y2="78.000000"  style="stroke:black; stroke-linecap:round; stroke-width:0.25;"/>
<line x1="307.300000" y1="98.000000" x2="315.300000" y2="98.000000"  style="stroke:black; stroke-linecap:round; stroke-width:0.25;"/>
<line x1="307.300000" y1="152.000000" x2="307.300000" y2="98.000000"  style="stroke:black; stroke-linecap:round; stroke-width:0.25;"/>
<line x1="307.300000" y1="152.000000" x2="307.300000" y2="152.000000"  style="stroke:black; stroke-linecap:round; stroke-width:0.25;"/>
<line x1="315.300000" y1="78.000000" x2="315.300000" y2="90.000000"  style="stroke:black; stroke-linecap:round; stroke-width:0.25;"/>
<line x1="315.300000" y1="90.000000" x2="315.300000" y2="90.000000"  style="stroke:black; stroke-linecap:round; stroke-width:0.25;"/>
<line x1="315.300000" y1="90.000000" x2="319.300000" y2="90.000000"  style="stroke:black; stroke-linecap:round; stroke-width:0.25;"/>
<line x1="315.300000" y1="98.000000" x2="319.300000" y2="98.000000"  style="stroke:black; stroke-linecap:round; stroke-width:0.25;"/>
<line x1="343.300000" y1="94.000000" x2="347.300000" y2="94.000000"  style="stroke:black; stroke-linecap:round; stroke-width:0.25;"/>
<line x1="347.300000" y1="94.000000" x2="347.300000" y2="94.000000"  style="stroke:black; stroke-linecap:round; stroke-width:0.25;"/>
<line x1="347.300000" y1="94.000000" x2="351.300000" y2="94.000000"  style="stroke:black; stroke-linecap:round; stroke-width:0.25;"/>
<line x1="351.300000" y1="94.000000" x2="355.300000" y2="94.000000"  style="stroke:black; stroke-linecap:round; stroke-width:0.25;"/>
<line x1="355.300000" y1="94.000000" x2="365.300000" y2="94.000000"  style="stroke:black; stroke-linecap:round; stroke-width:0.25;"/>
</svg>
