<?xml version="1.0"?>
<svg xmlns="http://www.w3.org/2000/svg" xmlns:xlink="http://www.w3.org/1999/xlink" viewBox="0 0 243.200000 156.000000" width="121.600000mm" height="78.000000mm" version="1.1">
<rect x="1.000000" y="1.000000" width="242.200000" height="155.000000" rx="0" ry="0" style="stroke:none;fill:#cccccc;"/>
<rect x="0.000000" y="0.000000" width="242.200000" height="155.000000" rx="0" ry="0" style="stroke:none;fill:#ffffff;"/>
<text x="10.000000" y="7.000000" font-family="Arial" font-size="7"></text>
<a xlink:href="tick-10187.svg">
<rect x="85.700000" y="25.000000" width="25.800000" height="24.000000" rx="0" ry="0" style="stroke:none;fill:#cccccc;"/>
<rect x="84.700000" y="24.000000" width="25.800000" height="24.000000" rx="0" ry="0" style="stroke:none;fill:#003366;"/>
</a>
<a xlink:href="tick-10187.svg">
<text x="97.600000" y="38.000000" font-family="Arial" font-size="7" text-anchor="middle" fill="#FFFFFF">tick</text>
</a>
<circle cx="86.700000" cy="26.000000" r="1"/>
<rect x="35.000000" y="67.000000" width="64.500000" height="24.000000" rx="0" ry="0" style="stroke:none;fill:#cccccc;"/>
<rect x="34.000000" y="66.000000" width="64.500000" height="24.000000" rx="0" ry="0" style="stroke:none;fill:#4B71A1;"/>
<text x="66.250000" y="80.000000" font-family="Arial" font-size="7" text-anchor="middle" fill="#FFFFFF">waveform{...}</text>
<circle cx="36.000000" cy="68.000000" r="1"/>
<line x1="25.000000" y1="57.000000" x2="25.000000" y2="99.000000"  style="stroke: black; stroke-linecap:round; stroke-width:0.25; stroke-dasharray:3,3;"/>
<line x1="25.000000" y1="99.000000" x2="107.500000" y2="99.000000"  style="stroke: black; stroke-linecap:round; stroke-width:0.25; stroke-dasharray:3,3;"/>
<line x1="107.500000" y1="99.000000" x2="107.500000" y2="57.000000"  style="stroke: black; stroke-linecap:round; stroke-width:0.25; stroke-dasharray:3,3;"/>
<line x1="25.000000" y1="57.000000" x2="30.000000" y2="57.000000"  style="stroke: black; stroke-linecap:round; stroke-width:0.25; stroke-dasharray:3,3;"/>
<line x1="59.025000" y1="57.000000" x2="107.500000" y2="57.000000"  style="stroke: black; stroke-linecap:round; stroke-width:0.25; stroke-dasharray:3,3;"/>
<text x="30.000000" y="59.000000" font-family="Arial" font-size="7">pattern</text>
<a xlink:href="step-10188.svg">
<rect x="54.350000" y="109.000000" width="25.800000" height="24.000000" rx="0" ry="0" style="stroke:none;fill:#cccccc;"/>
<rect x="53.350000" y="108.000000" width="25.800000" height="24.000000" rx="0" ry="0" style="stroke:none;fill:#003366;"/>
</a>
<a xlink:href="step-10188.svg">
<text x="66.250000" y="122.000000" font-family="Arial" font-size="7" text-anchor="middle" fill="#FFFFFF">step</text>
</a>
<circle cx="55.350000" cy="110.000000" r="1"/>
<rect x="133.500000" y="83.000000" width="38.700000" height="24.000000" rx="0" ry="0" style="stroke:none;fill:#cccccc;"/>
<rect x="132.500000" y="82.000000" width="38.700000" height="24.000000" rx="0" ry="0" style="stroke:none;fill:#4B71A1;"/>
<text x="151.850000" y="96.000000" font-family="Arial" font-size="7" text-anchor="middle" fill="#FFFFFF">rdtable</text>
<circle cx="134.500000" cy="84.000000" r="1"/>
<line x1="129.500000" y1="85.000000" x2="132.500000" y2="86.000000"  transform="rotate(0.000000,132.500000,86.000000)" style="stroke: black; stroke-width:0.25;"/>
<line x1="129.500000" y1="87.000000" x2="132.500000" y2="86.000000"  transform="rotate(0.000000,132.500000,86.000000)" style="stroke: black; stroke-width:0.25;"/>
<line x1="129.500000" y1="93.000000" x2="132.500000" y2="94.000000"  transform="rotate(0.000000,132.500000,94.000000)" style="stroke: black; stroke-width:0.25;"/>
<line x1="129.500000" y1="95.000000" x2="132.500000" y2="94.000000"  transform="rotate(0.000000,132.500000,94.000000)" style="stroke: black; stroke-width:0.25;"/>
<line x1="129.500000" y1="101.000000" x2="132.500000" y2="102.000000"  transform="rotate(0.000000,132.500000,102.000000)" style="stroke: black; stroke-width:0.25;"/>
<line x1="129.500000" y1="103.000000" x2="132.500000" y2="102.000000"  transform="rotate(0.000000,132.500000,102.000000)" style="stroke: black; stroke-width:0.25;"/>
<rect x="188.200000" y="67.000000" width="24.000000" height="24.000000" rx="0" ry="0" style="stroke:none;fill:#cccccc;"/>
<rect x="187.200000" y="66.000000" width="24.000000" height="24.000000" rx="0" ry="0" style="stroke:none;fill:#4B71A1;"/>
<text x="199.200000" y="80.000000" font-family="Arial" font-size="7" text-anchor="middle" fill="#FFFFFF">*</text>
<circle cx="189.200000" cy="68.000000" r="1"/>
<line x1="184.200000" y1="73.000000" x2="187.200000" y2="74.000000"  transform="rotate(0.000000,187.200000,74.000000)" style="stroke: black; stroke-width:0.25;"/>
<line x1="184.200000" y1="75.000000" x2="187.200000" y2="74.000000"  transform="rotate(0.000000,187.200000,74.000000)" style="stroke: black; stroke-width:0.25;"/>
<line x1="184.200000" y1="81.000000" x2="187.200000" y2="82.000000"  transform="rotate(0.000000,187.200000,82.000000)" style="stroke: black; stroke-width:0.25;"/>
<line x1="184.200000" y1="83.000000" x2="187.200000" y2="82.000000"  transform="rotate(0.000000,187.200000,82.000000)" style="stroke: black; stroke-width:0.25;"/>
<line x1="15.000000" y1="15.000000" x2="15.000000" y2="141.000000"  style="stroke: black; stroke-linecap:round; stroke-width:0.25; stroke-dasharray:3,3;"/>
<line x1="15.000000" y1="141.000000" x2="228.200000" y2="141.000000"  style="stroke: black; stroke-linecap:round; stroke-width:0.25; stroke-dasharray:3,3;"/>
<line x1="228.200000" y1="141.000000" x2="228.200000" y2="15.000000"  style="stroke: black; stroke-linecap:round; stroke-width:0.25; stroke-dasharray:3,3;"/>
<line x1="15.000000" y1="15.000000" x2="20.000000" y2="15.000000"  style="stroke: black; stroke-linecap:round; stroke-width:0.25; stroke-dasharray:3,3;"/>
<line x1="49.025000" y1="15.000000" x2="228.200000" y2="15.000000"  style="stroke: black; stroke-linecap:round; stroke-width:0.25; stroke-dasharray:3,3;"/>
<text x="20.000000" y="17.000000" font-family="Arial" font-size="7">process</text>
<line x1="230.200000" y1="77.000000" x2="233.200000" y2="78.000000"  transform="rotate(0.000000,233.200000,78.000000)" style="stroke: black; stroke-width:0.25;"/>
<line x1="230.200000" y1="79.000000" x2="233.200000" y2="78.000000"  transform="rotate(0.000000,233.200000,78.000000)" style="stroke: black; stroke-width:0.25;"/>
<line x1="79.150000" y1="120.000000" x2="83.150000" y2="120.000000"  style="stroke:black; stroke-linecap:round; stroke-width:0.25;"/>
<line x1="83.150000" y1="120.000000" x2="112.500000" y2="120.000000"  style="stroke:black; stroke-linecap:round; stroke-width:0.25;"/>
<line x1="98.500000" y1="74.000000" x2="102.500000" y2="74.000000"  style="stroke:black; stroke-linecap:round; stroke-width:0.25;"/>
<line x1="98.500000" y1="82.000000" x2="102.500000" y2="82.000000"  style="stroke:black; stroke-linecap:round; stroke-width:0.25;"/>
<line x1="102.500000" y1="74.000000" x2="112.500000" y2="74.000000"  style="stroke:black; stroke-linecap:round; stroke-width:0.25;"/>
<line x1="102.500000" y1="82.000000" x2="112.500000" y2="82.000000"  style="stroke:black; stroke-linecap:round; stroke-width:0.25;"/>
<line x1="110.500000" y1="36.000000" x2="114.500000" y2="36.000000"  style="stroke:black; stroke-linecap:round; stroke-width:0.25;"/>
<line x1="112.500000" y1="74.000000" x2="128.500000" y2="74.000000"  style="stroke:black; stroke-linecap:round; stroke-width:0.25;"/>
<line x1="112.500000" y1="82.000000" x2="120.500000" y2="82.000000"  style="stroke:black; stroke-linecap:round; stroke-width:0.25;"/>
<line x1="112.500000" y1="102.000000" x2="128.500000" y2="102.000000"  style="stroke:black; stroke-linecap:round; stroke-width:0.25;"/>
<line x1="112.500000" y1="120.000000" x2="112.500000" y2="102.000000"  style="stroke:black; stroke-linecap:round; stroke-width:0.25;"/>
<line x1="112.500000" y1="120.000000" x2="112.500000" y2="120.000000"  style="stroke:black; stroke-linecap:round; stroke-width:0.25;"/>
<line x1="114.500000" y1="36.000000" x2="175.200000" y2="36.000000"  style="stroke:black; stroke-linecap:round; stroke-width:0.25;"/>
<line x1="120.500000" y1="82.000000" x2="120.500000" y2="94.000000"  style="stroke:black; stroke-linecap:round; stroke-width:0.25;"/>
<line x1="120.500000" y1="94.000000" x2="128.500000" y2="94.000000"  style="stroke:black; stroke-linecap:round; stroke-width:0.25;"/>
<line x1="128.500000" y1="74.000000" x2="128.500000" y2="86.000000"  style="stroke:black; stroke-linecap:round; stroke-width:0.25;"/>
<line x1="128.500000" y1="86.000000" x2="128.500000" y2="86.000000"  style="stroke:black; stroke-linecap:round; stroke-width:0.25;"/>
<line x1="128.500000" y1="86.000000" x2="132.500000" y2="86.000000"  style="stroke:black; stroke-linecap:round; stroke-width:0.25;"/>
<line x1="128.500000" y1="94.000000" x2="132.500000" y2="94.000000"  style="stroke:black; stroke-linecap:round; stroke-width:0.25;"/>
<line x1="128.500000" y1="102.000000" x2="132.500000" y2="102.000000"  style="stroke:black; stroke-linecap:round; stroke-width:0.25;"/>
<line x1="171.200000" y1="94.000000" x2="175.200000" y2="94.000000"  style="stroke:black; stroke-linecap:round; stroke-width:0.25;"/>
<line x1="175.200000" y1="36.000000" x2="183.200000" y2="36.000000"  style="stroke:black; stroke-linecap:round; stroke-width:0.25;"/>
<line x1="175.200000" y1="82.000000" x2="183.200000" y2="82.000000"  style="stroke:black; stroke-linecap:round; stroke-width:0.25;"/>
<line x1="175.200000" y1="94.000000" x2="175.200000" y2="82.000000"  style="stroke:black; stroke-linecap:round; stroke-width:0.25;"/>
<line x1="175.200000" y1="94.000000" x2="175.200000" y2="94.000000"  style="stroke:black; stroke-linecap:round; stroke-width:0.25;"/>
<line x1="183.200000" y1="36.000000" x2="183.200000" y2="74.000000"  style="stroke:black; stroke-linecap:round; stroke-width:0.25;"/>
<line x1="183.200000" y1="74.000000" x2="183.200000" y2="74.000000"  style="stroke:black; stroke-linecap:round; stroke-width:0.25;"/>
<line x1="183.200000" y1="74.000000" x2="187.200000" y2="74.000000"  style="stroke:black; stroke-linecap:round; stroke-width:0.25;"/>
<line x1="183.200000" y1="82.000000" x2="187.200000" y2="82.000000"  style="stroke:black; stroke-linecap:round; stroke-width:0.25;"/>
<line x1="211.200000" y1="78.000000" x2="215.200000" y2="78.000000"  style="stroke:black; stroke-linecap:round; stroke-width:0.25;"/>
<line x1="215.200000" y1="78.000000" x2="215.200000" y2="78.000000"  style="stroke:black; stroke-linecap:round; stroke-width:0.25;"/>
<line x1="215.200000" y1="78.000000" x2="219.200000" y2="78.000000"  style="stroke:black; stroke-linecap:round; stroke-width:0.25;"/>
<line x1="219.200000" y1="78.000000" x2="223.200000" y2="78.000000"  style="stroke:black; stroke-linecap:round; stroke-width:0.25;"/>
<line x1="223.200000" y1="78.000000" x2="233.200000" y2="78.000000"  style="stroke:black; stroke-linecap:round; stroke-width:0.25;"/>
</svg>
