<?xml version="1.0"?>
<svg xmlns="http://www.w3.org/2000/svg" xmlns:xlink="http://www.w3.org/1999/xlink" viewBox="0 0 386.200000 268.000000" width="193.100000mm" height="134.000000mm" version="1.1">
<rect x="1.000000" y="1.000000" width="385.200000" height="267.000000" rx="0" ry="0" style="stroke:none;fill:#cccccc;"/>
<rect x="0.000000" y="0.000000" width="385.200000" height="267.000000" rx="0" ry="0" style="stroke:none;fill:#ffffff;"/>
<text x="10.000000" y="7.000000" font-family="Arial" font-size="7"></text>
<rect x="173.800000" y="51.000000" width="25.800000" height="24.000000" rx="0" ry="0" style="stroke:none;fill:#cccccc;"/>
<rect x="172.800000" y="50.000000" width="25.800000" height="24.000000" rx="0" ry="0" style="stroke:none;fill:#47945E;"/>
<text x="185.700000" y="64.000000" font-family="Arial" font-size="7" text-anchor="middle" fill="#FFFFFF">[1] x</text>
<circle cx="174.800000" cy="52.000000" r="1"/>
<line x1="169.800000" y1="61.000000" x2="172.800000" y2="62.000000"  transform="rotate(0.000000,172.800000,62.000000)" style="stroke: black; stroke-width:0.25;"/>
<line x1="169.800000" y1="63.000000" x2="172.800000" y2="62.000000"  transform="rotate(0.000000,172.800000,62.000000)" style="stroke: black; stroke-width:0.25;"/>
<rect x="207.600000" y="35.000000" width="25.800000" height="24.000000" rx="0" ry="0" style="stroke:none;fill:#cccccc;"/>
<rect x="206.600000" y="34.000000" width="25.800000" height="24.000000" rx="0" ry="0" style="stroke:none;fill:#47945E;"/>
<text x="219.500000" y="48.000000" font-family="Arial" font-size="7" text-anchor="middle" fill="#FFFFFF">[1] x</text>
<circle cx="208.600000" cy="36.000000" r="1"/>
<rect x="207.600000" y="67.000000" width="25.800000" height="24.000000" rx="0" ry="0" style="stroke:none;fill:#cccccc;"/>
<rect x="206.600000" y="66.000000" width="25.800000" height="24.000000" rx="0" ry="0" style="stroke:none;fill:#f44800;"/>
<text x="219.500000" y="80.000000" font-family="Arial" font-size="7" text-anchor="middle" fill="#FFFFFF">0.5f</text>
<circle cx="208.600000" cy="68.000000" r="1"/>
<rect x="249.400000" y="51.000000" width="24.000000" height="24.000000" rx="0" ry="0" style="stroke:none;fill:#cccccc;"/>
<rect x="248.400000" y="50.000000" width="24.000000" height="24.000000" rx="0" ry="0" style="stroke:none;fill:#4B71A1;"/>
<text x="260.400000" y="64.000000" font-family="Arial" font-size="7" text-anchor="middle" fill="#FFFFFF">*</text>
<circle cx="250.400000" cy="52.000000" r="1"/>
<line x1="245.400000" y1="57.000000" x2="248.400000" y2="58.000000"  transform="rotate(0.000000,248.400000,58.000000)" style="stroke: black; stroke-width:0.25;"/>
<line x1="245.400000" y1="59.000000" x2="248.400000" y2="58.000000"  transform="rotate(0.000000,248.400000,58.000000)" style="stroke: black; stroke-width:0.25;"/>
<line x1="245.400000" y1="65.000000" x2="248.400000" y2="66.000000"  transform="rotate(0.000000,248.400000,66.000000)" style="stroke: black; stroke-width:0.25;"/>
<line x1="245.400000" y1="67.000000" x2="248.400000" y2="66.000000"  transform="rotate(0.000000,248.400000,66.000000)" style="stroke: black; stroke-width:0.25;"/>
<line x1="163.800000" y1="25.000000" x2="163.800000" y2="99.000000"  style="stroke: black; stroke-linecap:round; stroke-width:0.25; stroke-dasharray:3,3;"/>
<line x1="163.800000" y1="99.000000" x2="281.400000" y2="99.000000"  style="stroke: black; stroke-linecap:round; stroke-width:0.25; stroke-dasharray:3,3;"/>
<line x1="281.400000" y1="99.000000" x2="281.400000" y2="25.000000"  style="stroke: black; stroke-linecap:round; stroke-width:0.25; stroke-dasharray:3,3;"/>
<line x1="163.800000" y1="25.000000" x2="168.800000" y2="25.000000"  style="stroke: black; stroke-linecap:round; stroke-width:0.25; stroke-dasharray:3,3;"/>
<line x1="223.625000" y1="25.000000" x2="281.400000" y2="25.000000"  style="stroke: black; stroke-linecap:round; stroke-width:0.25; stroke-dasharray:3,3;"/>
<text x="168.800000" y="27.000000" font-family="Arial" font-size="7">gain_last(0.5f)</text>
<rect x="190.700000" y="127.000000" width="25.800000" height="24.000000" rx="0" ry="0" style="stroke:none;fill:#cccccc;"/>
<rect x="189.700000" y="126.000000" width="25.800000" height="24.000000" rx="0" ry="0" style="stroke:none;fill:#f44800;"/>
<text x="202.600000" y="140.000000" font-family="Arial" font-size="7" text-anchor="middle" fill="#FFFFFF">0.5f</text>
<circle cx="191.700000" cy="128.000000" r="1"/>
<rect x="232.500000" y="123.000000" width="24.000000" height="24.000000" rx="0" ry="0" style="stroke:none;fill:#cccccc;"/>
<rect x="231.500000" y="122.000000" width="24.000000" height="24.000000" rx="0" ry="0" style="stroke:none;fill:#4B71A1;"/>
<text x="243.500000" y="136.000000" font-family="Arial" font-size="7" text-anchor="middle" fill="#FFFFFF">*</text>
<circle cx="233.500000" cy="124.000000" r="1"/>
<line x1="228.500000" y1="129.000000" x2="231.500000" y2="130.000000"  transform="rotate(0.000000,231.500000,130.000000)" style="stroke: black; stroke-width:0.25;"/>
<line x1="228.500000" y1="131.000000" x2="231.500000" y2="130.000000"  transform="rotate(0.000000,231.500000,130.000000)" style="stroke: black; stroke-width:0.25;"/>
<line x1="228.500000" y1="137.000000" x2="231.500000" y2="138.000000"  transform="rotate(0.000000,231.500000,138.000000)" style="stroke: black; stroke-width:0.25;"/>
<line x1="228.500000" y1="139.000000" x2="231.500000" y2="138.000000"  transform="rotate(0.000000,231.500000,138.000000)" style="stroke: black; stroke-width:0.25;"/>
<line x1="180.700000" y1="109.000000" x2="180.700000" y2="159.000000"  style="stroke: black; stroke-linecap:round; stroke-width:0.25; stroke-dasharray:3,3;"/>
<line x1="180.700000" y1="159.000000" x2="264.500000" y2="159.000000"  style="stroke: black; stroke-linecap:round; stroke-width:0.25; stroke-dasharray:3,3;"/>
<line x1="264.500000" y1="159.000000" x2="264.500000" y2="109.000000"  style="stroke: black; stroke-linecap:round; stroke-width:0.25; stroke-dasharray:3,3;"/>
<line x1="180.700000" y1="109.000000" x2="185.700000" y2="109.000000"  style="stroke: black; stroke-linecap:round; stroke-width:0.25; stroke-dasharray:3,3;"/>
<line x1="253.425000" y1="109.000000" x2="264.500000" y2="109.000000"  style="stroke: black; stroke-linecap:round; stroke-width:0.25; stroke-dasharray:3,3;"/>
<text x="185.700000" y="111.000000" font-family="Arial" font-size="7">gain_first(_)(0.5f)</text>
<rect x="110.000000" y="195.000000" width="25.800000" height="24.000000" rx="0" ry="0" style="stroke:none;fill:#cccccc;"/>
<rect x="109.000000" y="194.000000" width="25.800000" height="24.000000" rx="0" ry="0" style="stroke:none;fill:#47945E;"/>
<text x="121.900000" y="208.000000" font-family="Arial" font-size="7" text-anchor="middle" fill="#FFFFFF">[2] x</text>
<circle cx="111.000000" cy="196.000000" r="1"/>
<line x1="106.000000" y1="205.000000" x2="109.000000" y2="206.000000"  transform="rotate(0.000000,109.000000,206.000000)" style="stroke: black; stroke-width:0.25;"/>
<line x1="106.000000" y1="207.000000" x2="109.000000" y2="206.000000"  transform="rotate(0.000000,109.000000,206.000000)" style="stroke: black; stroke-width:0.25;"/>
<rect x="143.800000" y="179.000000" width="25.800000" height="24.000000" rx="0" ry="0" style="stroke:none;fill:#cccccc;"/>
<rect x="142.800000" y="178.000000" width="25.800000" height="24.000000" rx="0" ry="0" style="stroke:none;fill:#47945E;"/>
<text x="155.700000" y="192.000000" font-family="Arial" font-size="7" text-anchor="middle" fill="#FFFFFF">[2] x</text>
<circle cx="144.800000" cy="180.000000" r="1"/>
<rect x="144.700000" y="211.000000" width="24.000000" height="24.000000" rx="0" ry="0" style="stroke:none;fill:#cccccc;"/>
<rect x="143.700000" y="210.000000" width="24.000000" height="24.000000" rx="0" ry="0" style="stroke:none;fill:#f44800;"/>
<text x="155.700000" y="224.000000" font-family="Arial" font-size="7" text-anchor="middle" fill="#FFFFFF">2</text>
<circle cx="145.700000" cy="212.000000" r="1"/>
<rect x="185.600000" y="195.000000" width="24.000000" height="24.000000" rx="0" ry="0" style="stroke:none;fill:#cccccc;"/>
<rect x="184.600000" y="194.000000" width="24.000000" height="24.000000" rx="0" ry="0" style="stroke:none;fill:#4B71A1;"/>
<text x="196.600000" y="208.000000" font-family="Arial" font-size="7" text-anchor="middle" fill="#FFFFFF">*</text>
<circle cx="186.600000" cy="196.000000" r="1"/>
<line x1="181.600000" y1="201.000000" x2="184.600000" y2="202.000000"  transform="rotate(0.000000,184.600000,202.000000)" style="stroke: black; stroke-width:0.25;"/>
<line x1="181.600000" y1="203.000000" x2="184.600000" y2="202.000000"  transform="rotate(0.000000,184.600000,202.000000)" style="stroke: black; stroke-width:0.25;"/>
<line x1="181.600000" y1="209.000000" x2="184.600000" y2="210.000000"  transform="rotate(0.000000,184.600000,210.000000)" style="stroke: black; stroke-width:0.25;"/>
<line x1="181.600000" y1="211.000000" x2="184.600000" y2="210.000000"  transform="rotate(0.000000,184.600000,210.000000)" style="stroke: black; stroke-width:0.25;"/>
<line x1="100.000000" y1="169.000000" x2="100.000000" y2="243.000000"  style="stroke: black; stroke-linecap:round; stroke-width:0.25; stroke-dasharray:3,3;"/>
<line x1="100.000000" y1="243.000000" x2="217.600000" y2="243.000000"  style="stroke: black; stroke-linecap:round; stroke-width:0.25; stroke-dasharray:3,3;"/>
<line x1="217.600000" y1="243.000000" x2="217.600000" y2="169.000000"  style="stroke: black; stroke-linecap:round; stroke-width:0.25; stroke-dasharray:3,3;"/>
<line x1="100.000000" y1="169.000000" x2="105.000000" y2="169.000000"  style="stroke: black; stroke-linecap:round; stroke-width:0.25; stroke-dasharray:3,3;"/>
<line x1="150.150000" y1="169.000000" x2="217.600000" y2="169.000000"  style="stroke: black; stroke-linecap:round; stroke-width:0.25; stroke-dasharray:3,3;"/>
<text x="105.000000" y="171.000000" font-family="Arial" font-size="7">gain_last(2)</text>
<rect x="237.600000" y="195.000000" width="25.800000" height="24.000000" rx="0" ry="0" style="stroke:none;fill:#cccccc;"/>
<rect x="236.600000" y="194.000000" width="25.800000" height="24.000000" rx="0" ry="0" style="stroke:none;fill:#47945E;"/>
<text x="249.500000" y="208.000000" font-family="Arial" font-size="7" text-anchor="middle" fill="#FFFFFF">[3] x</text>
<circle cx="238.600000" cy="196.000000" r="1"/>
<line x1="233.600000" y1="205.000000" x2="236.600000" y2="206.000000"  transform="rotate(0.000000,236.600000,206.000000)" style="stroke: black; stroke-width:0.25;"/>
<line x1="233.600000" y1="207.000000" x2="236.600000" y2="206.000000"  transform="rotate(0.000000,236.600000,206.000000)" style="stroke: black; stroke-width:0.25;"/>
<rect x="271.400000" y="179.000000" width="25.800000" height="24.000000" rx="0" ry="0" style="stroke:none;fill:#cccccc;"/>
<rect x="270.400000" y="178.000000" width="25.800000" height="24.000000" rx="0" ry="0" style="stroke:none;fill:#47945E;"/>
<text x="283.300000" y="192.000000" font-family="Arial" font-size="7" text-anchor="middle" fill="#FFFFFF">[3] x</text>
<circle cx="272.400000" cy="180.000000" r="1"/>
<rect x="271.400000" y="211.000000" width="25.800000" height="24.000000" rx="0" ry="0" style="stroke:none;fill:#cccccc;"/>
<rect x="270.400000" y="210.000000" width="25.800000" height="24.000000" rx="0" ry="0" style="stroke:none;fill:#f44800;"/>
<text x="283.300000" y="224.000000" font-family="Arial" font-size="7" text-anchor="middle" fill="#FFFFFF">0.25f</text>
<circle cx="272.400000" cy="212.000000" r="1"/>
<rect x="313.200000" y="195.000000" width="24.000000" height="24.000000" rx="0" ry="0" style="stroke:none;fill:#cccccc;"/>
<rect x="312.200000" y="194.000000" width="24.000000" height="24.000000" rx="0" ry="0" style="stroke:none;fill:#4B71A1;"/>
<text x="324.200000" y="208.000000" font-family="Arial" font-size="7" text-anchor="middle" fill="#FFFFFF">*</text>
<circle cx="314.200000" cy="196.000000" r="1"/>
<line x1="309.200000" y1="201.000000" x2="312.200000" y2="202.000000"  transform="rotate(0.000000,312.200000,202.000000)" style="stroke: black; stroke-width:0.25;"/>
<line x1="309.200000" y1="203.000000" x2="312.200000" y2="202.000000"  transform="rotate(0.000000,312.200000,202.000000)" style="stroke: black; stroke-width:0.25;"/>
<line x1="309.200000" y1="209.000000" x2="312.200000" y2="210.000000"  transform="rotate(0.000000,312.200000,210.000000)" style="stroke: black; stroke-width:0.25;"/>
<line x1="309.200000" y1="211.000000" x2="312.200000" y2="210.000000"  transform="rotate(0.000000,312.200000,210.000000)" style="stroke: black; stroke-width:0.25;"/>
<line x1="227.600000" y1="169.000000" x2="227.600000" y2="243.000000"  style="stroke: black; stroke-linecap:round; stroke-width:0.25; stroke-dasharray:3,3;"/>
<line x1="227.600000" y1="243.000000" x2="345.200000" y2="243.000000"  style="stroke: black; stroke-linecap:round; stroke-width:0.25; stroke-dasharray:3,3;"/>
<line x1="345.200000" y1="243.000000" x2="345.200000" y2="169.000000"  style="stroke: black; stroke-linecap:round; stroke-width:0.25; stroke-dasharray:3,3;"/>
<line x1="227.600000" y1="169.000000" x2="232.600000" y2="169.000000"  style="stroke: black; stroke-linecap:round; stroke-width:0.25; stroke-dasharray:3,3;"/>
<line x1="290.650000" y1="169.000000" x2="345.200000" y2="169.000000"  style="stroke: black; stroke-linecap:round; stroke-width:0.25; stroke-dasharray:3,3;"/>
<text x="232.600000" y="171.000000" font-family="Arial" font-size="7">gain_last(0.25f)</text>
<line x1="15.000000" y1="15.000000" x2="15.000000" y2="253.000000"  style="stroke: black; stroke-linecap:round; stroke-width:0.25; stroke-dasharray:3,3;"/>
<line x1="15.000000" y1="253.000000" x2="371.200000" y2="253.000000"  style="stroke: black; stroke-linecap:round; stroke-width:0.25; stroke-dasharray:3,3;"/>
<line x1="371.200000" y1="253.000000" x2="371.200000" y2="15.000000"  style="stroke: black; stroke-linecap:round; stroke-width:0.25; stroke-dasharray:3,3;"/>
<line x1="15.000000" y1="15.000000" x2="20.000000" y2="15.000000"  style="stroke: black; stroke-linecap:round; stroke-width:0.25; stroke-dasharray:3,3;"/>
<line x1="49.025000" y1="15.000000" x2="371.200000" y2="15.000000"  style="stroke: black; stroke-linecap:round; stroke-width:0.25; stroke-dasharray:3,3;"/>
<text x="20.000000" y="17.000000" font-family="Arial" font-size="7">process</text>
<line x1="373.200000" y1="125.000000" x2="376.200000" y2="126.000000"  transform="rotate(0.000000,376.200000,126.000000)" style="stroke: black; stroke-width:0.25;"/>
<line x1="373.200000" y1="127.000000" x2="376.200000" y2="126.000000"  transform="rotate(0.000000,376.200000,126.000000)" style="stroke: black; stroke-width:0.25;"/>
<line x1="373.200000" y1="133.000000" x2="376.200000" y2="134.000000"  transform="rotate(0.000000,376.200000,134.000000)" style="stroke: black; stroke-width:0.25;"/>
<line x1="373.200000" y1="135.000000" x2="376.200000" y2="134.000000"  transform="rotate(0.000000,376.200000,134.000000)" style="stroke: black; stroke-width:0.25;"/>
<line x1="373.200000" y1="141.000000" x2="376.200000" y2="142.000000"  transform="rotate(0.000000,376.200000,142.000000)" style="stroke: black; stroke-width:0.25;"/>
<line x1="373.200000" y1="143.000000" x2="376.200000" y2="142.000000"  transform="rotate(0.000000,376.200000,142.000000)" style="stroke: black; stroke-width:0.25;"/>
<line x1="10.000000" y1="134.000000" x2="20.000000" y2="134.000000"  style="stroke:black; stroke-linecap:round; stroke-width:0.25;"/>
<line x1="20.000000" y1="134.000000" x2="24.000000" y2="134.000000"  style="stroke:black; stroke-linecap:round; stroke-width:0.25;"/>
<line x1="24.000000" y1="134.000000" x2="28.000000" y2="134.000000"  style="stroke:black; stroke-linecap:round; stroke-width:0.25;"/>
<line x1="28.000000" y1="134.000000" x2="28.000000" y2="134.000000"  style="stroke:black; stroke-linecap:round; stroke-width:0.25;"/>
<line x1="28.000000" y1="134.000000" x2="32.000000" y2="134.000000"  style="stroke:black; stroke-linecap:round; stroke-width:0.25;"/>
<line x1="32.000000" y1="134.000000" x2="36.000000" y2="134.000000"  style="stroke:black; stroke-linecap:round; stroke-width:0.25;"/>
<line x1="36.000000" y1="134.000000" x2="95.000000" y2="118.000000"  style="stroke:black; stroke-linecap:round; stroke-width:0.25;"/>
<line x1="36.000000" y1="134.000000" x2="95.000000" y2="206.000000"  style="stroke:black; stroke-linecap:round; stroke-width:0.25;"/>
<line x1="36.000000" y1="134.000000" x2="95.000000" y2="62.000000"  style="stroke:black; stroke-linecap:round; stroke-width:0.25;"/>
<line x1="95.000000" y1="118.000000" x2="175.700000" y2="118.000000"  style="stroke:black; stroke-linecap:round; stroke-width:0.25;"/>
<line x1="95.000000" y1="206.000000" x2="95.000000" y2="206.000000"  style="stroke:black; stroke-linecap:round; stroke-width:0.25;"/>
<line x1="95.000000" y1="206.000000" x2="105.000000" y2="206.000000"  style="stroke:black; stroke-linecap:round; stroke-width:0.25;"/>
<line x1="95.000000" y1="62.000000" x2="158.800000" y2="62.000000"  style="stroke:black; stroke-linecap:round; stroke-width:0.25;"/>
<line x1="105.000000" y1="206.000000" x2="109.000000" y2="206.000000"  style="stroke:black; stroke-linecap:round; stroke-width:0.25;"/>
<line x1="158.800000" y1="62.000000" x2="168.800000" y2="62.000000"  style="stroke:black; stroke-linecap:round; stroke-width:0.25;"/>
<line x1="167.700000" y1="222.000000" x2="171.700000" y2="222.000000"  style="stroke:black; stroke-linecap:round; stroke-width:0.25;"/>
<line x1="168.600000" y1="190.000000" x2="172.600000" y2="190.000000"  style="stroke:black; stroke-linecap:round; stroke-width:0.25;"/>
<line x1="168.800000" y1="62.000000" x2="172.800000" y2="62.000000"  style="stroke:black; stroke-linecap:round; stroke-width:0.25;"/>
<line x1="171.700000" y1="222.000000" x2="172.600000" y2="222.000000"  style="stroke:black; stroke-linecap:round; stroke-width:0.25;"/>
<line x1="172.600000" y1="190.000000" x2="180.600000" y2="190.000000"  style="stroke:black; stroke-linecap:round; stroke-width:0.25;"/>
<line x1="172.600000" y1="210.000000" x2="180.600000" y2="210.000000"  style="stroke:black; stroke-linecap:round; stroke-width:0.25;"/>
<line x1="172.600000" y1="222.000000" x2="172.600000" y2="210.000000"  style="stroke:black; stroke-linecap:round; stroke-width:0.25;"/>
<line x1="172.600000" y1="222.000000" x2="172.600000" y2="222.000000"  style="stroke:black; stroke-linecap:round; stroke-width:0.25;"/>
<line x1="175.700000" y1="118.000000" x2="185.700000" y2="118.000000"  style="stroke:black; stroke-linecap:round; stroke-width:0.25;"/>
<line x1="180.600000" y1="190.000000" x2="180.600000" y2="202.000000"  style="stroke:black; stroke-linecap:round; stroke-width:0.25;"/>
<line x1="180.600000" y1="202.000000" x2="180.600000" y2="202.000000"  style="stroke:black; stroke-linecap:round; stroke-width:0.25;"/>
<line x1="180.600000" y1="202.000000" x2="184.600000" y2="202.000000"  style="stroke:black; stroke-linecap:round; stroke-width:0.25;"/>
<line x1="180.600000" y1="210.000000" x2="184.600000" y2="210.000000"  style="stroke:black; stroke-linecap:round; stroke-width:0.25;"/>
<line x1="185.700000" y1="118.000000" x2="202.600000" y2="118.000000"  style="stroke:black; stroke-linecap:round; stroke-width:0.25;"/>
<line x1="202.600000" y1="118.000000" x2="219.500000" y2="118.000000"  style="stroke:black; stroke-linecap:round; stroke-width:0.25;"/>
<line x1="208.600000" y1="206.000000" x2="212.600000" y2="206.000000"  style="stroke:black; stroke-linecap:round; stroke-width:0.25;"/>
<line x1="212.600000" y1="206.000000" x2="222.600000" y2="206.000000"  style="stroke:black; stroke-linecap:round; stroke-width:0.25;"/>
<line x1="215.500000" y1="138.000000" x2="219.500000" y2="138.000000"  style="stroke:black; stroke-linecap:round; stroke-width:0.25;"/>
<line x1="219.500000" y1="118.000000" x2="227.500000" y2="118.000000"  style="stroke:black; stroke-linecap:round; stroke-width:0.25;"/>
<line x1="219.500000" y1="138.000000" x2="227.500000" y2="138.000000"  style="stroke:black; stroke-linecap:round; stroke-width:0.25;"/>
<line x1="222.600000" y1="206.000000" x2="232.600000" y2="206.000000"  style="stroke:black; stroke-linecap:round; stroke-width:0.25;"/>
<line x1="222.600000" y1="206.000000" x2="222.600000" y2="206.000000"  style="stroke:black; stroke-linecap:round; stroke-width:0.25;"/>
<line x1="227.500000" y1="118.000000" x2="227.500000" y2="130.000000"  style="stroke:black; stroke-linecap:round; stroke-width:0.25;"/>
<line x1="227.500000" y1="130.000000" x2="227.500000" y2="130.000000"  style="stroke:black; stroke-linecap:round; stroke-width:0.25;"/>
<line x1="227.500000" y1="130.000000" x2="231.500000" y2="130.000000"  style="stroke:black; stroke-linecap:round; stroke-width:0.25;"/>
<line x1="227.500000" y1="138.000000" x2="231.500000" y2="138.000000"  style="stroke:black; stroke-linecap:round; stroke-width:0.25;"/>
<line x1="232.400000" y1="46.000000" x2="236.400000" y2="46.000000"  style="stroke:black; stroke-linecap:round; stroke-width:0.25;"/>
<line x1="232.400000" y1="78.000000" x2="236.400000" y2="78.000000"  style="stroke:black; stroke-linecap:round; stroke-width:0.25;"/>
<line x1="232.600000" y1="206.000000" x2="236.600000" y2="206.000000"  style="stroke:black; stroke-linecap:round; stroke-width:0.25;"/>
<line x1="236.400000" y1="46.000000" x2="244.400000" y2="46.000000"  style="stroke:black; stroke-linecap:round; stroke-width:0.25;"/>
<line x1="236.400000" y1="66.000000" x2="244.400000" y2="66.000000"  style="stroke:black; stroke-linecap:round; stroke-width:0.25;"/>
<line x1="236.400000" y1="78.000000" x2="236.400000" y2="66.000000"  style="stroke:black; stroke-linecap:round; stroke-width:0.25;"/>
<line x1="236.400000" y1="78.000000" x2="236.400000" y2="78.000000"  style="stroke:black; stroke-linecap:round; stroke-width:0.25;"/>
<line x1="244.400000" y1="46.000000" x2="244.400000" y2="58.000000"  style="stroke:black; stroke-linecap:round; stroke-width:0.25;"/>
<line x1="244.400000" y1="58.000000" x2="244.400000" y2="58.000000"  style="stroke:black; stroke-linecap:round; stroke-width:0.25;"/>
<line x1="244.400000" y1="58.000000" x2="248.400000" y2="58.000000"  style="stroke:black; stroke-linecap:round; stroke-width:0.25;"/>
<line x1="244.400000" y1="66.000000" x2="248.400000" y2="66.000000"  style="stroke:black; stroke-linecap:round; stroke-width:0.25;"/>
<line x1="255.500000" y1="134.000000" x2="259.500000" y2="134.000000"  style="stroke:black; stroke-linecap:round; stroke-width:0.25;"/>
<line x1="259.500000" y1="134.000000" x2="269.500000" y2="134.000000"  style="stroke:black; stroke-linecap:round; stroke-width:0.25;"/>
<line x1="269.500000" y1="134.000000" x2="350.200000" y2="134.000000"  style="stroke:black; stroke-linecap:round; stroke-width:0.25;"/>
<line x1="272.400000" y1="62.000000" x2="276.400000" y2="62.000000"  style="stroke:black; stroke-linecap:round; stroke-width:0.25;"/>
<line x1="276.400000" y1="62.000000" x2="286.400000" y2="62.000000"  style="stroke:black; stroke-linecap:round; stroke-width:0.25;"/>
<line x1="286.400000" y1="62.000000" x2="350.200000" y2="62.000000"  style="stroke:black; stroke-linecap:round; stroke-width:0.25;"/>
<line x1="296.200000" y1="190.000000" x2="300.200000" y2="190.000000"  style="stroke:black; stroke-linecap:round; stroke-width:0.25;"/>
<line x1="296.200000" y1="222.000000" x2="300.200000" y2="222.000000"  style="stroke:black; stroke-linecap:round; stroke-width:0.25;"/>
<line x1="300.200000" y1="190.000000" x2="308.200000" y2="190.000000"  style="stroke:black; stroke-linecap:round; stroke-width:0.25;"/>
<line x1="300.200000" y1="210.000000" x2="308.200000" y2="210.000000"  style="stroke:black; stroke-linecap:round; stroke-width:0.25;"/>
<line x1="300.200000" y1="222.000000" x2="300.200000" y2="210.000000"  style="stroke:black; stroke-linecap:round; stroke-width:0.25;"/>
<line x1="300.200000" y1="222.000000" x2="300.200000" y2="222.000000"  style="stroke:black; stroke-linecap:round; stroke-width:0.25;"/>
<line x1="308.200000" y1="190.000000" x2="308.200000" y2="202.000000"  style="stroke:black; stroke-linecap:round; stroke-width:0.25;"/>
<line x1="308.200000" y1="202.000000" x2="308.200000" y2="202.000000"  style="stroke:black; stroke-linecap:round; stroke-width:0.25;"/>
<line x1="308.200000" y1="202.000000" x2="312.200000" y2="202.000000"  style="stroke:black; stroke-linecap:round; stroke-width:0.25;"/>
<line x1="308.200000" y1="210.000000" x2="312.200000" y2="210.000000"  style="stroke:black; stroke-linecap:round; stroke-width:0.25;"/>
<line x1="336.200000" y1="206.000000" x2="340.200000" y2="206.000000"  style="stroke:black; stroke-linecap:round; stroke-width:0.25;"/>
<line x1="340.200000" y1="206.000000" x2="350.200000" y2="206.000000"  style="stroke:black; stroke-linecap:round; stroke-width:0.25;"/>
<line x1="350.200000" y1="134.000000" x2="358.200000" y2="134.000000"  style="stroke:black; stroke-linecap:round; stroke-width:0.25;"/>
<line x1="350.200000" y1="142.000000" x2="358.200000" y2="142.000000"  style="stroke:black; stroke-linecap:round; stroke-width:0.25;"/>
<line x1="350.200000" y1="206.000000" x2="350.200000" y2="142.000000"  style="stroke:black; stroke-linecap:round; stroke-width:0.25;"/>
<line x1="350.200000" y1="206.000000" x2="350.200000" y2="206.000000"  style="stroke:black; stroke-linecap:round; stroke-width:0.25;"/>
<line x1="350.200000" y1="62.000000" x2="358.200000" y2="62.000000"  style="stroke:black; stroke-linecap:round; stroke-width:0.25;"/>
<line x1="358.200000" y1="126.000000" x2="362.200000" y2="126.000000"  style="stroke:black; stroke-linecap:round; stroke-width:0.25;"/>
<line x1="358.200000" y1="134.000000" x2="362.200000" y2="134.000000"  style="stroke:black; stroke-linecap:round; stroke-width:0.25;"/>
<line x1="358.200000" y1="142.000000" x2="362.200000" y2="142.000000"  style="stroke:black; stroke-linecap:round; stroke-width:0.25;"/>
<line x1="358.200000" y1="62.000000" x2="358.200000" y2="126.000000"  style="stroke:black; stroke-linecap:round; stroke-width:0.25;"/>
<line x1="358.200000" y1="126.000000" x2="358.200000" y2="126.000000"  style="stroke:black; stroke-linecap:round; stroke-width:0.25;"/>
<line x1="362.200000" y1="126.000000" x2="366.200000" y2="126.000000"  style="stroke:black; stroke-linecap:round; stroke-width:0.25;"/>
<line x1="362.200000" y1="134.000000" x2="366.200000" y2="134.000000"  style="stroke:black; stroke-linecap:round; stroke-width:0.25;"/>
<line x1="362.200000" y1="142.000000" x2="366.200000" y2="142.000000"  style="stroke:black; stroke-linecap:round; stroke-width:0.25;"/>
<line x1="366.200000" y1="126.000000" x2="376.200000" y2="126.000000"  style="stroke:black; stroke-linecap:round; stroke-width:0.25;"/>
<line x1="366.200000" y1="134.000000" x2="376.200000" y2="134.000000"  style="stroke:black; stroke-linecap:round; stroke-width:0.25;"/>
<line x1="366.200000" y1="142.000000" x2="376.200000" y2="142.000000"  style="stroke:black; stroke-linecap:round; stroke-width:0.25;"/>
</svg>
